# Blender v2.80 (sub 75) OBJ File: 'MCOTMC_August2021_Explorer_Source.blend'
# www.blender.org
mtllib compass.mtl
o compass_Cylinder.099
v -0.000000 0.093869 0.131331
v -0.065666 0.093869 0.113736
v -0.113736 0.093869 0.065665
v -0.131331 0.093869 0.000000
v -0.113736 0.093869 -0.065665
v -0.065666 0.093869 -0.113736
v -0.000000 0.093869 -0.131331
v 0.065665 0.093869 -0.113736
v 0.113736 0.093869 -0.065665
v 0.131331 0.093869 -0.000000
v 0.113736 0.093869 0.065665
v 0.065665 0.093869 0.113736
v 0.088645 0.030763 0.153538
v 0.153538 0.030763 0.088645
v 0.177290 0.030763 -0.000000
v 0.153538 0.030763 -0.088645
v 0.088645 0.030763 -0.153538
v -0.000000 0.030763 -0.177290
v -0.088646 0.030763 -0.153538
v -0.153538 0.030763 -0.088645
v -0.177291 0.030763 0.000000
v -0.153538 0.030763 0.088645
v -0.000000 0.030763 0.177290
v -0.088645 0.030763 0.153538
v -0.088645 0.082587 0.153538
v -0.000000 0.082587 0.177290
v -0.153538 0.082587 0.088645
v -0.177291 0.082587 0.000000
v -0.153538 0.082587 -0.088645
v -0.088646 0.082587 -0.153538
v -0.000000 0.082587 -0.177290
v 0.088645 0.082587 -0.153538
v 0.153538 0.082587 -0.088645
v 0.177290 0.082587 -0.000000
v 0.153538 0.082587 0.088645
v 0.088645 0.082587 0.153538
v -0.000001 0.079842 -0.000000
v -0.058746 0.064007 0.101749
v -0.000001 0.064007 0.117490
v -0.101750 0.064007 0.058745
v -0.117491 0.064007 0.000000
v -0.101750 0.064007 -0.058745
v -0.058746 0.064007 -0.101749
v -0.000001 0.064007 -0.117490
v 0.058744 0.064007 -0.101749
v 0.101748 0.064007 -0.058745
v 0.117489 0.064007 -0.000000
v 0.101748 0.064007 0.058745
v 0.058744 0.064007 0.101749
v 0.065184 0.106419 0.177290
v -0.065185 0.106419 0.177290
v 0.065184 0.094320 0.198247
v -0.065185 0.094320 0.198247
v 0.065184 0.070121 0.198247
v -0.065185 0.070121 0.198247
v 0.065184 0.058022 0.177290
v -0.065185 0.058022 0.177290
v 0.065184 0.070121 0.156334
v -0.065185 0.070121 0.156334
v 0.065184 0.094320 0.156334
v -0.065185 0.094320 0.156334
v -0.148239 -0.010133 0.000000
v -0.128379 -0.010133 0.074120
v -0.074120 -0.010133 -0.128379
v -0.128379 -0.010133 -0.074120
v 0.074119 -0.010133 -0.128379
v -0.000000 -0.010133 -0.148239
v 0.148239 -0.010133 -0.000000
v 0.128378 -0.010133 -0.074120
v 0.074119 -0.010133 0.128379
v 0.128378 -0.010133 0.074119
v -0.074120 -0.010133 0.128379
v -0.000000 -0.010133 0.148239
v -0.000001 0.062254 -0.263779
v -0.000001 0.076818 -0.255128
v -0.000001 0.072393 -0.233034
v -0.000001 0.052115 -0.233034
v -0.000001 0.047690 -0.255128
v -0.040791 0.062254 -0.244136
v -0.034027 0.076818 -0.238742
v -0.016753 0.072393 -0.224967
v -0.016753 0.052115 -0.224967
v -0.034027 0.047690 -0.238742
v -0.050865 0.062254 -0.199998
v -0.042431 0.076818 -0.201923
v -0.020890 0.072393 -0.206839
v -0.020890 0.052115 -0.206839
v -0.042431 0.047690 -0.201923
v -0.022637 0.062254 -0.164602
v -0.018884 0.076818 -0.172396
v -0.009298 0.072393 -0.192302
v -0.009298 0.052115 -0.192302
v -0.018884 0.047690 -0.172396
v 0.022636 0.062254 -0.164602
v 0.018882 0.076818 -0.172396
v 0.009296 0.072393 -0.192302
v 0.009296 0.052115 -0.192302
v 0.018882 0.047690 -0.172396
v 0.050863 0.062254 -0.199998
v 0.042429 0.076818 -0.201923
v 0.020889 0.072393 -0.206839
v 0.020889 0.052115 -0.206839
v 0.042429 0.047690 -0.201923
v 0.040789 0.062254 -0.244136
v 0.034026 0.076818 -0.238742
v 0.016751 0.072393 -0.224967
v 0.016751 0.052115 -0.224967
v 0.034026 0.047690 -0.238742
v -0.000001 0.080457 -0.244081
v -0.025390 0.080457 -0.231854
v -0.031660 0.080457 -0.204381
v -0.014091 0.080457 -0.182349
v 0.014089 0.080457 -0.182349
v 0.031659 0.080457 -0.204381
v 0.025389 0.080457 -0.231854
vt 0.130000 0.457846
vt 0.250000 0.490000
vt 0.250000 0.490000
vt 0.130000 0.457846
vt 0.322383 0.124629
vt 0.375371 0.177617
vt 0.375371 0.177617
vt 0.322383 0.124629
vt 0.042154 0.130000
vt 0.010000 0.250000
vt 0.010000 0.250000
vt 0.042154 0.130000
vt 0.490000 0.250000
vt 0.457846 0.130000
vt 0.457846 0.130000
vt 0.490000 0.250000
vt 0.042154 0.370000
vt 0.130000 0.457846
vt 0.042154 0.370000
vt 0.370000 0.042154
vt 0.250000 0.010000
vt 0.250000 0.010000
vt 0.370000 0.042154
vt 0.250000 0.490000
vt 0.370000 0.457846
vt 0.370000 0.457846
vt 0.130000 0.042154
vt 0.130000 0.042154
vt 0.457846 0.370000
vt 0.457846 0.370000
vt 0.250000 0.394766
vt 0.322383 0.375371
vt 0.375371 0.322383
vt 0.394766 0.250000
vt 0.250000 0.105234
vt 0.177617 0.124629
vt 0.124629 0.177617
vt 0.105234 0.250000
vt 0.124629 0.322383
vt 0.177617 0.375371
vt 0.177617 0.375371
vt 0.250000 0.394766
vt 0.322383 0.375371
vt 0.375371 0.322383
vt 0.124629 0.177617
vt 0.105234 0.250000
vt 0.250000 0.105234
vt 0.394766 0.250000
vt 0.124629 0.322383
vt 0.177617 0.124629
vt 0.490000 0.250000
vt 0.457846 0.130000
vt 0.370000 0.042154
vt 0.250000 0.010000
vt 0.130000 0.042154
vt 0.042154 0.130000
vt 0.010000 0.250000
vt 0.042154 0.370000
vt 0.370000 0.457846
vt 0.457846 0.370000
vt 0.288583 0.316828
vt 0.316828 0.288583
vt 0.327166 0.250000
vt 0.316828 0.211417
vt 0.288583 0.183172
vt 0.250000 0.172834
vt 0.211417 0.183172
vt 0.183172 0.211417
vt 0.172834 0.250000
vt 0.183172 0.288583
vt 0.211417 0.316828
vt 0.250000 0.327166
vt 1.000000 0.500000
vt 1.000000 1.000000
vt 0.833333 1.000000
vt 0.833333 0.500000
vt 0.666667 1.000000
vt 0.666667 0.500000
vt 0.500000 1.000000
vt 0.500000 0.500000
vt 0.333333 1.000000
vt 0.333333 0.500000
vt 0.457846 0.370000
vt 0.250000 0.490000
vt 0.042154 0.370000
vt 0.042154 0.130000
vt 0.250000 0.010000
vt 0.457846 0.130000
vt 0.166667 1.000000
vt 0.166667 0.500000
vt -0.000000 1.000000
vt -0.000000 0.500000
vt 0.750000 0.490000
vt 0.957846 0.370000
vt 0.957846 0.130000
vt 0.750000 0.010000
vt 0.542154 0.130000
vt 0.542154 0.370000
vt 0.571429 0.600000
vt 0.714286 0.600000
vt 0.714286 0.800000
vt 0.571429 0.800000
vt 0.571429 0.900000
vt 0.714286 0.900000
vt 0.714286 1.000000
vt 0.571429 1.000000
vt 0.571429 0.000000
vt 0.714286 0.000000
vt 0.714286 0.200000
vt 0.571429 0.200000
vt 0.714286 0.400000
vt 0.571429 0.400000
vt 0.857143 0.600000
vt 0.857143 0.800000
vt 0.857143 0.900000
vt 0.857143 1.000000
vt 0.857143 0.000000
vt 0.857143 0.200000
vt 0.857143 0.400000
vt 1.000000 0.600000
vt 1.000000 0.800000
vt 1.000000 0.900000
vt 1.000000 1.000000
vt 1.000000 0.000000
vt 1.000000 0.200000
vt 1.000000 0.400000
vt -0.000000 0.600000
vt 0.142857 0.600000
vt 0.142857 0.800000
vt -0.000000 0.800000
vt -0.000000 0.900000
vt 0.142857 0.900000
vt 0.142857 1.000000
vt -0.000000 1.000000
vt -0.000000 0.000000
vt 0.142857 0.000000
vt 0.142857 0.200000
vt -0.000000 0.200000
vt 0.142857 0.400000
vt -0.000000 0.400000
vt 0.285714 0.600000
vt 0.285714 0.800000
vt 0.285714 0.900000
vt 0.285714 1.000000
vt 0.285714 0.000000
vt 0.285714 0.200000
vt 0.285714 0.400000
vt 0.428571 0.600000
vt 0.428571 0.800000
vt 0.428571 0.900000
vt 0.428571 1.000000
vt 0.428571 0.000000
vt 0.428571 0.200000
vt 0.428571 0.400000
vn 0.4785 -0.2903 0.8287
vn 0.0000 -0.2903 0.9569
vn 0.0000 -0.5791 0.8152
vn 0.4076 -0.5791 0.7060
vn 0.4536 0.4205 0.7857
vn 0.7857 0.4205 0.4536
vn 0.8660 0.0000 -0.5000
vn 1.0000 0.0000 -0.0000
vn 0.9569 -0.2903 -0.0000
vn 0.8287 -0.2903 -0.4785
vn -1.0000 0.0000 0.0000
vn -0.8660 0.0000 -0.5000
vn -0.8287 -0.2903 -0.4785
vn -0.9569 -0.2903 0.0000
vn 0.8660 0.0000 0.5000
vn 0.5000 0.0000 0.8660
vn 0.8287 -0.2903 0.4785
vn -0.5000 0.0000 -0.8660
vn -0.0000 0.0000 -1.0000
vn -0.0000 -0.2903 -0.9569
vn -0.4785 -0.2903 -0.8287
vn 0.0000 0.0000 1.0000
vn -0.5000 0.0000 0.8660
vn -0.4785 -0.2903 0.8287
vn 0.5000 0.0000 -0.8660
vn 0.4785 -0.2903 -0.8287
vn -0.8660 0.0000 0.5000
vn -0.8287 -0.2903 0.4785
vn 0.0000 0.9712 0.2384
vn -0.1192 0.9712 0.2065
vn -0.2065 0.9712 0.1192
vn -0.2384 0.9712 0.0000
vn -0.2065 0.9712 -0.1192
vn -0.1192 0.9712 -0.2065
vn -0.0000 0.9712 -0.2384
vn 0.1192 0.9712 -0.2065
vn 0.2065 0.9712 -0.1192
vn 0.2384 0.9712 -0.0000
vn 0.2065 0.9712 0.1192
vn 0.1192 0.9712 0.2065
vn -0.0000 0.4205 -0.9073
vn -0.4536 0.4205 -0.7857
vn 0.7857 0.4205 -0.4536
vn 0.4536 0.4205 -0.7857
vn -0.9073 0.4205 0.0000
vn -0.7857 0.4205 0.4536
vn -0.0000 0.4205 0.9073
vn 0.9073 0.4205 -0.0000
vn -0.7857 0.4205 -0.4536
vn -0.4536 0.4205 0.7857
vn 0.0000 -1.0000 0.0000
vn -0.8152 -0.5791 0.0000
vn -0.7060 -0.5791 0.4076
vn -0.7060 -0.5791 -0.4076
vn 0.7060 -0.5791 0.4076
vn -0.4076 -0.5791 0.7060
vn -0.4076 -0.5791 -0.7060
vn 0.8152 -0.5791 -0.0000
vn 0.4076 -0.5791 -0.7060
vn -0.0000 -0.5791 -0.8152
vn 0.7060 -0.5791 -0.4076
vn 0.0000 1.0000 -0.0000
vn -0.0668 0.9910 0.1157
vn 0.0000 0.9910 0.1336
vn -0.1157 0.9910 0.0668
vn -0.1336 0.9910 -0.0000
vn -0.1157 0.9910 -0.0668
vn -0.0668 0.9910 -0.1157
vn -0.0000 0.9910 -0.1336
vn 0.0668 0.9910 -0.1157
vn 0.1157 0.9910 -0.0668
vn 0.1336 0.9910 -0.0000
vn 0.1157 0.9910 0.0668
vn 0.0668 0.9910 0.1157
vn 0.0000 0.8660 0.5000
vn 0.0000 -0.8660 0.5000
vn -0.0000 -0.8660 -0.5000
vn -0.0000 0.8660 -0.5000
vn -0.3825 0.4718 -0.7944
vn 0.0000 0.8077 0.5896
vn 0.4610 0.8077 0.3676
vn 0.4339 0.0000 0.9010
vn 0.0000 -0.9805 0.1964
vn 0.1535 -0.9805 0.1224
vn -0.3825 -0.4718 -0.7944
vn -0.8596 0.4718 -0.1962
vn 0.5748 0.8077 -0.1312
vn 0.9749 0.0000 0.2225
vn 0.1915 -0.9805 -0.0437
vn -0.8596 -0.4718 -0.1962
vn -0.6893 0.4719 0.5497
vn 0.2558 0.8077 -0.5312
vn 0.7818 0.0000 -0.6235
vn 0.0852 -0.9805 -0.1769
vn -0.6893 -0.4719 0.5497
vn 0.0000 0.4719 0.8817
vn -0.2558 0.8077 -0.5312
vn -0.0852 -0.9805 -0.1769
vn 0.0000 -0.4719 0.8817
vn 0.6893 0.4719 0.5497
vn -0.5748 0.8077 -0.1312
vn -0.7818 0.0000 -0.6235
vn -0.1915 -0.9805 -0.0437
vn 0.6893 -0.4719 0.5497
vn 0.8596 0.4718 -0.1962
vn -0.4610 0.8077 0.3676
vn -0.9749 0.0000 0.2225
vn -0.1535 -0.9805 0.1224
vn 0.8596 -0.4718 -0.1962
vn 0.3825 0.4718 -0.7944
vn -0.4339 0.0000 0.9010
vn 0.3825 -0.4718 -0.7944
vn 0.2446 0.9498 -0.1951
vn -0.0000 0.9498 -0.3129
vn 0.3050 0.9498 0.0696
vn 0.1358 0.9498 0.2819
vn -0.1358 0.9498 0.2819
vn -0.3050 0.9498 0.0696
vn -0.2446 0.9498 -0.1951
usemtl Black
s 1
f 13/1/1 23/2/2 73/3/3 70/4/4
s 2
f 6/5/5 5/6/6 42/7/6 43/8/5
s 3
f 33/9/7 34/10/8 15/11/9 16/12/10
s 4
f 28/13/11 29/14/12 20/15/13 21/16/14
s 5
f 35/17/15 36/18/16 13/1/1 14/19/17
s 6
f 30/20/18 31/21/19 18/22/20 19/23/21
s 7
f 26/24/22 25/25/23 24/26/24 23/2/2
s 8
f 32/27/25 33/9/7 16/12/10 17/28/26
s 9
f 27/29/27 28/13/11 21/16/14 22/30/28
s 10
f 34/10/8 35/17/15 14/19/17 15/11/9
s 11
f 29/14/12 30/20/18 19/23/21 20/15/13
s 12
f 36/18/16 26/24/22 23/2/2 13/1/1
s 13
f 25/25/23 27/29/27 22/30/28 24/26/24
s 14
f 1/31/29 2/32/30 25/25/30 26/24/29
s 15
f 2/32/30 3/33/31 27/29/31 25/25/30
s 16
f 3/33/31 4/34/32 28/13/32 27/29/31
s 17
f 4/34/32 5/6/33 29/14/33 28/13/32
s 18
f 5/6/33 6/5/34 30/20/34 29/14/33
s 19
f 6/5/34 7/35/35 31/21/35 30/20/34
s 20
f 7/35/35 8/36/36 32/27/36 31/21/35
s 21
f 8/36/36 9/37/37 33/9/37 32/27/36
s 22
f 9/37/37 10/38/38 34/10/38 33/9/37
s 23
f 10/38/38 11/39/39 35/17/39 34/10/38
s 24
f 11/39/39 12/40/40 36/18/40 35/17/39
s 25
f 12/40/40 1/31/29 26/24/29 36/18/40
s 26
f 1/31/41 12/40/42 49/41/42 39/42/41
s 27
f 3/33/43 2/32/44 38/43/44 40/44/43
s 28
f 10/38/45 9/37/46 46/45/46 47/46/45
s 29
f 7/35/47 6/5/5 43/8/5 44/47/47
s 30
f 4/34/48 3/33/43 40/44/43 41/48/48
s 31
f 11/39/49 10/38/45 47/46/45 48/49/49
s 32
f 8/36/50 7/35/47 44/47/47 45/50/50
s 33
f 5/6/6 4/34/48 41/48/48 42/7/6
s 34
f 12/40/42 11/39/49 48/49/49 49/41/42
s 35
f 2/32/44 1/31/41 39/42/41 38/43/44
s 36
f 9/37/46 8/36/50 45/50/50 46/45/46
s 49
f 31/21/19 32/27/25 17/28/26 18/22/20
s 58
f 62/51/51 65/52/51 64/53/51 67/54/51 66/55/51 69/56/51 68/57/51 71/58/51 70/4/51 73/3/51 72/59/51 63/60/51
s 59
f 22/30/28 21/16/14 62/51/52 63/60/53
s 60
f 21/16/14 20/15/13 65/52/54 62/51/52
s 61
f 14/19/17 13/1/1 70/4/4 71/58/55
s 62
f 23/2/2 24/26/24 72/59/56 73/3/3
s 63
f 20/15/13 19/23/21 64/53/57 65/52/54
s 64
f 15/11/9 14/19/17 71/58/55 68/57/58
s 65
f 24/26/24 22/30/28 63/60/53 72/59/56
s 66
f 18/22/20 17/28/26 66/55/59 67/54/60
s 67
f 17/28/26 16/12/10 69/56/61 66/55/59
s 68
f 19/23/21 18/22/20 67/54/60 64/53/57
s 69
f 16/12/10 15/11/9 68/57/58 69/56/61
usemtl White
s 37
f 37/61/62 38/43/63 39/42/64
s 38
f 37/62/62 40/44/65 38/43/63
s 39
f 37/63/62 41/48/66 40/44/65
s 40
f 37/64/62 42/7/67 41/48/66
s 41
f 37/65/62 43/8/68 42/7/67
s 42
f 37/66/62 44/47/69 43/8/68
s 43
f 37/67/62 45/50/70 44/47/69
s 44
f 37/68/62 46/45/71 45/50/70
s 45
f 37/69/62 47/46/72 46/45/71
s 46
f 37/70/62 48/49/73 47/46/72
s 47
f 37/71/62 49/41/74 48/49/73
s 48
f 37/72/62 39/42/64 49/41/74
usemtl Metal
s 50
f 50/73/75 51/74/75 53/75/75 52/76/75
s 51
f 52/76/22 53/75/22 55/77/22 54/78/22
s 52
f 54/78/76 55/77/76 57/79/76 56/80/76
s 53
f 56/80/77 57/79/77 59/81/77 58/82/77
s 54
f 53/83/11 51/84/11 61/85/11 59/86/11 57/87/11 55/88/11
s 55
f 58/82/19 59/81/19 61/89/19 60/90/19
s 56
f 60/90/78 61/89/78 51/91/78 50/92/78
s 57
f 50/93/8 52/94/8 54/95/8 56/96/8 58/97/8 60/98/8
s 70
f 74/99/79 79/100/79 80/101/79 75/102/79
s 71
f 109/103/80 110/104/81 81/105/81 76/106/80
s 72
f 76/107/82 81/108/82 82/109/82 77/110/82
s 73
f 77/110/83 82/109/84 83/111/84 78/112/83
s 74
f 78/112/85 83/111/85 79/100/85 74/99/85
s 75
f 79/100/86 84/113/86 85/114/86 80/101/86
s 76
f 110/104/81 111/115/87 86/116/87 81/105/81
s 77
f 81/108/88 86/117/88 87/118/88 82/109/88
s 78
f 82/109/84 87/118/89 88/119/89 83/111/84
s 79
f 83/111/90 88/119/90 84/113/90 79/100/90
s 80
f 84/113/91 89/120/91 90/121/91 85/114/91
s 81
f 111/115/87 112/122/92 91/123/92 86/116/87
s 82
f 86/117/93 91/124/93 92/125/93 87/118/93
s 83
f 87/118/89 92/125/94 93/126/94 88/119/89
s 84
f 88/119/95 93/126/95 89/120/95 84/113/95
s 85
f 89/127/96 94/128/96 95/129/96 90/130/96
s 86
f 112/131/92 113/132/97 96/133/97 91/134/92
s 87
f 91/135/19 96/136/19 97/137/19 92/138/19
s 88
f 92/138/94 97/137/98 98/139/98 93/140/94
s 89
f 93/140/99 98/139/99 94/128/99 89/127/99
s 90
f 94/128/100 99/141/100 100/142/100 95/129/100
s 91
f 113/132/97 114/143/101 101/144/101 96/133/97
s 92
f 96/136/102 101/145/102 102/146/102 97/137/102
s 93
f 97/137/98 102/146/103 103/147/103 98/139/98
s 94
f 98/139/104 103/147/104 99/141/104 94/128/104
s 95
f 99/141/105 104/148/105 105/149/105 100/142/105
s 96
f 114/143/101 115/150/106 106/151/106 101/144/101
s 97
f 101/145/107 106/152/107 107/153/107 102/146/107
s 98
f 102/146/103 107/153/108 108/154/108 103/147/103
s 99
f 103/147/109 108/154/109 104/148/109 99/141/109
s 100
f 104/148/110 74/99/110 75/102/110 105/149/110
s 101
f 115/150/106 109/103/80 76/106/80 106/151/106
s 102
f 106/152/111 76/107/111 77/110/111 107/153/111
s 103
f 107/153/108 77/110/83 78/112/83 108/154/108
s 104
f 108/154/112 78/112/112 74/99/112 104/148/112
s 105
f 105/149/113 75/102/114 109/103/114 115/150/113
s 106
f 100/142/115 105/149/113 115/150/113 114/143/115
s 107
f 95/129/116 100/142/115 114/143/115 113/132/116
s 108
f 90/130/117 95/129/116 113/132/116 112/131/117
s 109
f 85/114/118 90/121/117 112/122/117 111/115/118
s 110
f 80/101/119 85/114/118 111/115/118 110/104/119
s 111
f 75/102/114 80/101/119 110/104/119 109/103/114
