# Blender v2.80 (sub 75) OBJ File: 'MCOTMC_July2021_Fisherman_Source.blend'
# www.blender.org
mtllib pipe.mtl
o pipe_BezierCurve.013
v -0.018415 -0.060841 0.139693
v -0.026173 -0.075556 0.128541
v -0.018546 -0.090341 0.117328
v -0.000000 -0.096466 0.112673
v 0.018546 -0.090341 0.117328
v 0.026173 -0.075556 0.128541
v 0.018415 -0.060841 0.139693
v -0.000000 -0.054818 0.144275
v -0.018915 -0.084052 0.179310
v -0.026520 -0.101899 0.173123
v -0.018513 -0.119475 0.167233
v 0.000000 -0.126621 0.164846
v 0.018513 -0.119475 0.167233
v 0.026520 -0.101899 0.173123
v 0.018915 -0.084052 0.179310
v 0.000000 -0.076861 0.181957
v -0.030961 -0.085710 0.263188
v -0.040530 -0.109221 0.272143
v -0.027924 -0.134550 0.281664
v 0.000000 -0.144915 0.285608
v 0.027924 -0.134550 0.281664
v 0.040531 -0.109221 0.272143
v 0.030961 -0.085710 0.263188
v 0.000000 -0.070496 0.254760
v -0.060957 -0.071315 0.280923
v -0.079810 -0.090903 0.320879
v -0.051462 -0.116620 0.355826
v 0.000000 -0.127613 0.370349
v 0.051462 -0.116620 0.355826
v 0.079810 -0.090903 0.320879
v 0.060957 -0.071315 0.280923
v 0.000000 -0.059657 0.254546
v -0.010772 0.015475 -0.034878
v -0.000000 0.020060 -0.035494
v -0.011920 0.012641 0.014737
v -0.000000 0.017229 0.016451
v -0.014868 0.004784 -0.033413
v -0.016954 0.001477 0.010568
v -0.010281 -0.005409 -0.032012
v -0.012055 -0.009825 0.006344
v -0.000000 -0.009512 -0.031460
v -0.000000 -0.014538 0.004580
v 0.010281 -0.005409 -0.032012
v 0.012055 -0.009825 0.006344
v 0.014868 0.004784 -0.033413
v 0.016954 0.001477 0.010568
v 0.010772 0.015475 -0.034878
v 0.011920 0.012640 0.014737
v -0.011962 -0.020630 0.075642
v -0.000000 -0.017149 0.079145
v -0.016955 -0.029068 0.067157
v -0.012012 -0.037545 0.058643
v -0.000000 -0.041067 0.055110
v 0.012012 -0.037545 0.058643
v 0.016955 -0.029068 0.067157
v 0.011962 -0.020630 0.075642
v -0.020773 -0.089891 0.209733
v -0.027429 -0.087126 0.248436
v -0.029512 -0.110038 0.208914
v -0.036186 -0.108338 0.248220
v -0.020720 -0.130602 0.208416
v -0.024781 -0.132498 0.248705
v 0.000000 -0.139023 0.208320
v 0.000000 -0.142165 0.248970
v 0.020720 -0.130602 0.208416
v 0.024781 -0.132498 0.248705
v 0.029512 -0.110038 0.208914
v 0.036186 -0.108338 0.248220
v 0.020773 -0.089891 0.209733
v 0.027429 -0.087126 0.248436
v 0.000000 -0.073218 0.246873
v 0.000000 -0.081942 0.210115
v -0.059289 -0.009934 0.283398
v 0.059568 -0.027385 0.410742
v -0.084056 -0.018441 0.346286
v 0.000000 -0.006538 0.255499
v 0.000000 -0.031188 0.437455
v 0.084056 -0.018441 0.346286
v 0.059289 -0.009934 0.283398
v -0.059568 -0.027385 0.410742
v -0.060745 -0.043065 0.284180
v -0.083206 -0.055391 0.343647
v -0.056236 -0.069029 0.399363
v 0.056236 -0.069029 0.399363
v 0.083206 -0.055391 0.343647
v 0.060745 -0.043065 0.284180
v 0.000000 -0.035278 0.253434
v 0.000000 -0.074944 0.422023
v -0.049351 0.064505 0.294050
v 0.049689 0.064388 0.399861
v -0.069992 0.064363 0.346231
v 0.000000 0.064631 0.270900
v 0.000000 0.064442 0.422187
v 0.069992 0.064363 0.346231
v 0.049351 0.064505 0.294050
v -0.049689 0.064388 0.399861
v -0.031233 0.065966 0.311566
v 0.031601 0.066032 0.382185
v -0.044868 0.065869 0.346355
v 0.000000 0.066282 0.296192
v 0.000000 0.066225 0.396761
v 0.044868 0.065869 0.346355
v 0.031233 0.065966 0.311566
v -0.031601 0.066032 0.382185
v -0.020504 -0.017142 0.323578
v 0.020711 -0.017167 0.369976
v -0.029510 -0.017135 0.346453
v -0.000000 -0.017233 0.313700
v -0.000000 -0.017207 0.379416
v 0.029510 -0.017135 0.346453
v 0.020504 -0.017142 0.323578
v -0.020711 -0.017167 0.369976
v -0.000000 -0.013866 0.346629
v 0.040362 0.069999 0.390136
v -0.040362 0.069999 0.390136
v -0.056812 0.070005 0.346260
v -0.040012 0.070008 0.303613
v 0.000000 0.069984 0.284532
v 0.040012 0.070008 0.303613
v 0.056812 0.070005 0.346260
v -0.000000 0.069995 0.408440
v -0.019659 0.023772 -0.043751
v -0.000000 0.032140 -0.044876
v -0.027134 0.004260 -0.041078
v -0.018764 -0.014341 -0.038522
v -0.000000 -0.021830 -0.037514
v 0.018764 -0.014341 -0.038522
v 0.027134 0.004260 -0.041078
v 0.019659 0.023772 -0.043751
v -0.009402 0.013268 -0.060313
v -0.000000 0.017271 -0.060842
v -0.012994 0.003894 -0.059027
v -0.008974 -0.005038 -0.057794
v -0.000000 -0.008621 -0.057320
v 0.008974 -0.005038 -0.057794
v 0.012993 0.003894 -0.059027
v 0.009402 0.013268 -0.060313
v 0.018465 0.021870 -0.061490
v -0.000000 0.029729 -0.062546
v 0.025486 0.003543 -0.058979
v 0.017624 -0.013928 -0.056578
v -0.000000 -0.020961 -0.055632
v -0.017624 -0.013928 -0.056578
v -0.025486 0.003544 -0.058979
v -0.018465 0.021870 -0.061490
v 0.009297 0.014328 -0.051804
v -0.000000 0.018286 -0.052327
v 0.012848 0.005059 -0.050533
v 0.008873 -0.003774 -0.049313
v -0.000000 -0.007316 -0.048845
v -0.008873 -0.003774 -0.049313
v -0.012848 0.005059 -0.050533
v -0.009297 0.014328 -0.051804
vt 0.333333 1.000000
vt 0.416667 1.000000
vt 0.416667 0.875000
vt 0.333333 0.875000
vt 0.333333 0.125000
vt 0.416667 0.125000
vt 0.416667 0.000000
vt 0.333333 0.000000
vt 0.333333 0.250000
vt 0.416667 0.250000
vt 0.333333 0.375000
vt 0.416667 0.375000
vt 0.333333 0.500000
vt 0.416667 0.500000
vt 0.333333 0.625000
vt 0.416667 0.625000
vt 0.333333 0.750000
vt 0.416667 0.750000
vt 0.529910 0.125000
vt 0.583333 0.125000
vt 0.583333 0.000000
vt 0.538694 0.000000
vt 0.453855 1.000000
vt 0.452873 0.875000
vt 0.524276 0.250000
vt 0.583333 0.250000
vt 0.522220 0.375000
vt 0.583333 0.375000
vt 0.524276 0.500000
vt 0.583333 0.500000
vt 0.529910 0.625000
vt 0.583333 0.625000
vt 0.538694 0.750000
vt 0.583333 0.750000
vt 0.546307 0.875000
vt 0.583333 0.875000
vt 0.457729 0.250000
vt 0.455932 0.125000
vt 0.538694 1.000000
vt 0.583333 1.000000
vt 0.458428 0.375000
vt 0.457729 0.500000
vt 0.455932 0.625000
vt 0.453855 0.750000
vt 0.750000 0.125000
vt 0.750000 0.000000
vt 0.750000 0.250000
vt 0.750000 0.375000
vt 0.750000 0.500000
vt 0.750000 0.625000
vt 0.750000 0.750000
vt 0.750000 0.875000
vt 0.791667 1.000000
vt 0.791667 0.875000
vt 0.750000 1.000000
vt 0.791667 0.125000
vt 0.791667 0.000000
vt 0.791667 0.250000
vt 0.791667 0.375000
vt 0.833333 0.375000
vt 0.833333 0.250000
vt 0.791667 0.500000
vt 0.791667 0.625000
vt 0.791667 0.750000
vt 0.833333 0.875000
vt 0.833333 0.750000
vt 0.453855 0.000000
vt 0.833333 0.625000
vt 0.833333 0.500000
vt 0.833333 0.125000
vt 0.833333 0.000000
vt 0.833333 1.000000
vt 0.833333 0.875000
vt 0.833333 0.750000
vt 0.833333 0.625000
vt 0.833333 1.000000
vt 0.833333 0.250000
vt 0.833333 0.125000
vt 0.833333 0.000000
vt 0.833333 0.500000
vt 0.833333 0.375000
vt 0.833333 0.625000
vt 0.833333 0.750000
vt 0.833333 0.750000
vt 0.833333 0.625000
vt 0.833333 0.875000
vt 0.833333 1.000000
vt 0.833333 1.000000
vt 0.833333 0.875000
vt 0.833333 0.125000
vt 0.833333 0.250000
vt 0.833333 0.250000
vt 0.833333 0.125000
vt 0.833333 0.000000
vt 0.833333 0.000000
vt 0.833333 0.500000
vt 0.833333 0.500000
vt 0.833333 0.375000
vt 0.833333 0.375000
vt 0.833333 0.375000
vt 0.833333 0.250000
vt 0.833333 0.875000
vt 0.833333 0.750000
vt 0.833333 0.625000
vt 0.833333 1.000000
vt 0.833333 0.125000
vt 0.833333 0.000000
vt 0.833333 0.500000
vt 0.166667 1.000000
vt 0.166667 0.875000
vt 0.000000 0.250000
vt 0.000000 0.125000
vt 0.000000 0.125000
vt 0.000000 0.250000
vt 0.000000 1.000000
vt 0.083333 1.000000
vt 0.083333 0.875000
vt 0.000000 0.875000
vt 0.083333 0.125000
vt 0.083333 0.000000
vt 0.000000 0.000000
vt 0.083333 0.250000
vt 0.000000 0.375000
vt 0.083333 0.375000
vt 0.000000 0.500000
vt 0.083333 0.500000
vt 0.000000 0.625000
vt 0.083333 0.625000
vt 0.000000 0.750000
vt 0.083333 0.750000
vt 0.166667 0.125000
vt 0.166667 0.000000
vt 0.166667 0.250000
vt 0.166667 0.375000
vt 0.166667 0.500000
vt 0.166667 0.625000
vt 0.166667 0.750000
vt 0.833333 0.000000
vt 0.833333 0.500000
vt 0.833333 0.375000
vt 0.833333 0.250000
vt 0.833333 0.750000
vt 0.833333 0.625000
vt 0.833333 0.875000
vt 0.833333 0.125000
vt 0.000000 0.875000
vt 0.000000 0.750000
vt 0.000000 0.750000
vt 0.000000 0.875000
vt 0.000000 0.500000
vt 0.000000 0.625000
vt 0.000000 0.375000
vt 0.000000 0.000000
vt 0.000000 1.000000
vt 0.000000 0.375000
vt 0.000000 0.500000
vt 0.000000 0.625000
vt 0.000000 0.250000
vt 0.000000 1.000000
vt 0.000000 0.125000
vt 0.000000 0.000000
vt 0.000000 0.318018
vt 0.000000 0.558586
vt 0.000000 0.558586
vt 0.000000 0.318018
vt 0.000000 0.614137
vt 0.000000 0.557718
vt 0.000000 0.478897
vt 0.000000 0.396235
vt 0.000000 0.318530
vt 0.000000 0.263368
vt 0.000000 0.614137
vt 0.000000 0.557718
vt 0.000000 0.478897
vt 0.000000 0.396235
vt 0.000000 0.318530
vt 0.000000 0.263368
vn -0.7062 0.6211 0.3398
vn -0.3732 0.8730 0.3139
vn 0.0000 0.9396 0.3423
vn 0.0000 0.8646 0.5024
vn -0.9981 0.0259 -0.0551
vn -0.9251 0.3667 0.0987
vn -0.9252 0.3649 0.1041
vn -0.6988 -0.5608 -0.4441
vn -0.6790 -0.6705 -0.2990
vn -0.9169 -0.3568 -0.1791
vn -0.0000 -0.7983 -0.6022
vn -0.0000 -0.9206 -0.3904
vn 0.6988 -0.5608 -0.4441
vn 0.6790 -0.6705 -0.2990
vn 0.9981 0.0259 -0.0551
vn 0.9169 -0.3568 -0.1791
vn 0.7062 0.6211 0.3398
vn 0.9252 0.3649 0.1041
vn 0.9251 0.3667 0.0987
vn 0.3732 0.8730 0.3139
vn -0.9134 0.3628 -0.1848
vn -0.8769 -0.3612 -0.3170
vn -0.7294 0.2847 -0.6221
vn -0.7205 0.6616 -0.2074
vn -0.7153 0.6968 -0.0526
vn 0.0000 0.9999 -0.0100
vn -0.6729 -0.7311 -0.1127
vn -0.5573 -0.8293 -0.0413
vn -0.8919 -0.4327 -0.1315
vn -0.0000 -0.9965 -0.0838
vn 0.0000 -0.9985 0.0548
vn 0.6729 -0.7311 -0.1127
vn 0.5573 -0.8293 -0.0413
vn 0.8919 -0.4327 -0.1315
vn 0.8769 -0.3612 -0.3170
vn 0.7205 0.6616 -0.2074
vn 0.7294 0.2847 -0.6221
vn 0.9134 0.3628 -0.1848
vn 0.4397 0.8751 -0.2023
vn 0.4656 0.8549 -0.2289
vn -0.6744 -0.7196 -0.1653
vn -0.9092 -0.3923 -0.1396
vn -0.4656 0.8549 -0.2289
vn -0.4397 0.8751 -0.2023
vn -0.0000 -0.9843 -0.1765
vn 0.6744 -0.7196 -0.1653
vn 0.9092 -0.3923 -0.1396
vn 0.7153 0.6968 -0.0526
vn 0.9160 0.3916 -0.0873
vn -0.9269 -0.3469 -0.1431
vn -0.7327 -0.0333 -0.6798
vn -0.6005 -0.7311 0.3240
vn 0.0000 -0.8713 0.4907
vn 0.6005 -0.7311 0.3240
vn 0.9269 -0.3469 -0.1431
vn 0.7327 -0.0333 -0.6798
vn 0.3909 0.1641 -0.9057
vn 0.4134 0.0941 -0.9057
vn -0.7455 0.0479 -0.6648
vn -0.4357 0.0334 -0.8995
vn -0.4134 0.0941 -0.9057
vn -0.9896 -0.1295 0.0633
vn -0.6569 -0.3948 0.6424
vn 0.0000 -0.5070 0.8620
vn -0.4082 -0.0758 0.9097
vn -0.7108 -0.0335 0.7026
vn 0.6569 -0.3948 0.6424
vn 0.9896 -0.1295 0.0633
vn 0.7455 0.0479 -0.6648
vn 0.4357 0.0334 -0.8995
vn 0.4333 0.1081 -0.8948
vn 0.7279 0.1072 -0.6772
vn -0.9160 0.3916 -0.0873
vn -0.3909 0.1641 -0.9057
vn 0.9982 0.0574 0.0147
vn 0.7108 -0.0335 0.7026
vn 0.4082 -0.0758 0.9097
vn -0.9982 0.0574 0.0147
vn -0.7279 0.1072 -0.6772
vn -0.4333 0.1081 -0.8948
vn 0.4227 0.1875 -0.8867
vn 0.7239 0.1890 -0.6635
vn 0.9858 0.1676 0.0042
vn -0.7239 0.1890 -0.6635
vn -0.4227 0.1875 -0.8867
vn -0.7150 0.1598 0.6806
vn -0.9858 0.1676 0.0042
vn 0.7150 0.1598 0.6806
vn 0.4008 0.1473 0.9042
vn -0.4008 0.1473 0.9042
vn 0.1196 0.9928 -0.0004
vn 0.0873 0.9932 -0.0764
vn -0.2344 0.9472 0.2190
vn -0.3237 0.9462 0.0030
vn -0.0000 0.9923 -0.1240
vn -0.0873 0.9932 -0.0764
vn 0.2344 0.9472 0.2190
vn -0.0000 0.9507 0.3100
vn -0.1196 0.9928 -0.0004
vn -0.0919 0.9925 0.0811
vn 0.2317 0.9482 -0.2175
vn 0.3237 0.9462 0.0030
vn 0.0919 0.9925 0.0811
vn -0.2317 0.9482 -0.2175
vn -0.0000 0.9922 0.1246
vn -0.0000 0.9501 -0.3120
vn 0.7153 0.1923 -0.6719
vn 0.4096 0.1852 -0.8933
vn 0.7219 0.1921 -0.6648
vn -0.7174 0.1899 0.6703
vn -0.4305 0.1843 0.8836
vn -0.7237 0.1898 0.6635
vn -0.9832 0.1823 0.0086
vn -0.9832 0.1823 0.0089
vn 0.4305 0.1843 0.8836
vn 0.7174 0.1899 0.6703
vn 0.7237 0.1898 0.6635
vn 0.9832 0.1823 0.0086
vn 0.9832 0.1823 0.0089
vn -0.7153 0.1923 -0.6719
vn -0.7219 0.1921 -0.6648
vn -0.4096 0.1852 -0.8933
vn 0.2785 0.9241 -0.2619
vn -0.0000 0.9308 -0.3656
vn -0.2781 0.9232 0.2655
vn 0.0000 0.9275 0.3739
vn 0.2781 0.9232 0.2655
vn 0.3929 0.9196 -0.0013
vn -0.2785 0.9241 -0.2619
vn -0.3929 0.9196 -0.0013
vn -0.6878 0.6415 0.3397
vn 0.0000 0.8709 0.4915
vn -0.3765 -0.2849 0.8815
vn -0.5306 0.0892 0.8429
vn -0.5302 0.1063 0.8412
vn -0.3848 -0.2764 0.8807
vn -0.3763 0.9253 0.0474
vn -0.6836 0.7036 0.1940
vn 0.0000 0.9609 0.2770
vn 0.0000 0.9987 0.0511
vn -0.9224 0.3861 -0.0065
vn -0.9250 0.3695 0.0883
vn -0.7178 -0.6876 -0.1091
vn -0.7281 -0.6500 -0.2174
vn -0.9206 -0.3667 -0.1342
vn -0.9158 -0.3936 -0.0799
vn -0.0000 -0.9908 -0.1353
vn -0.0000 -0.9528 -0.3035
vn 0.7178 -0.6876 -0.1091
vn 0.7281 -0.6500 -0.2174
vn 0.9158 -0.3936 -0.0799
vn 0.9206 -0.3667 -0.1342
vn 0.9224 0.3861 -0.0065
vn 0.6836 0.7036 0.1940
vn 0.9250 0.3695 0.0883
vn 0.3763 0.9253 0.0474
vn -0.9975 0.0604 -0.0369
vn -0.9249 -0.2938 -0.2415
vn -0.0000 -0.8137 -0.5813
vn -0.3822 -0.7438 -0.5483
vn 0.3822 -0.7438 -0.5483
vn 0.9975 0.0604 -0.0369
vn 0.9249 -0.2938 -0.2415
vn 0.6878 0.6415 0.3397
vn -0.0746 0.9944 -0.0749
vn -0.1101 0.9939 -0.0004
vn -0.0000 1.0000 -0.0002
vn 0.0747 0.9944 0.0743
vn 0.1101 0.9939 -0.0004
vn 0.0000 0.9948 0.1014
vn -0.0747 0.9944 0.0743
vn 0.0746 0.9944 -0.0749
vn 0.0000 0.9948 -0.1017
vn 0.3946 0.9104 -0.1242
vn 0.5306 0.0892 0.8429
vn 0.3765 -0.2849 0.8815
vn 0.3848 -0.2764 0.8807
vn 0.5302 0.1063 0.8412
vn 0.0000 -0.4411 0.8975
vn 0.3742 0.4602 0.8051
vn 0.3654 0.4687 0.8042
vn -0.3742 0.4602 0.8051
vn -0.3654 0.4687 0.8042
vn 0.0000 0.6134 0.7898
vn 0.6749 -0.7355 -0.0595
vn -0.0000 -0.9989 -0.0479
vn 0.6969 -0.7146 -0.0604
vn 0.9337 0.3440 -0.0997
vn 0.9941 -0.0626 -0.0890
vn 0.9957 -0.0174 -0.0910
vn -0.6749 -0.7355 -0.0595
vn -0.6969 -0.7146 -0.0604
vn -0.3946 0.9104 -0.1242
vn -0.9941 -0.0626 -0.0890
vn -0.9957 -0.0174 -0.0910
vn -0.9337 0.3440 -0.0997
vn 0.3946 -0.9124 0.1087
vn -0.0005 -0.1354 -0.9908
vn -0.0000 -0.1351 -0.9908
vn -0.0001 -0.1360 -0.9907
vn 0.0004 -0.1357 -0.9908
vn -0.0004 -0.1357 -0.9908
vn 0.0001 -0.1360 -0.9907
vn 0.0005 -0.1354 -0.9908
vn 0.0000 -0.1355 -0.9908
vn 0.6939 0.7109 -0.1143
vn 0.9995 0.0255 -0.0206
vn 0.9994 0.0260 -0.0207
vn 0.6940 0.7109 -0.1142
vn -0.6939 0.7109 -0.1143
vn 0.0000 0.9884 -0.1522
vn -0.6940 0.7109 -0.1142
vn -0.9348 -0.3537 0.0325
vn -0.9995 0.0255 -0.0206
vn -0.9994 0.0260 -0.0207
vn 0.9348 -0.3537 0.0325
vn -0.3946 -0.9124 0.1087
usemtl BrownDark
s 3
f 1/1/1 9/2/2 16/3/3 8/4/4
s 4
f 2/5/5 10/6/6 9/7/7 1/8/1
s 5
f 3/9/8 11/10/9 10/6/10 2/5/5
s 6
f 4/11/11 12/12/12 11/10/9 3/9/8
s 7
f 5/13/13 13/14/14 12/12/12 4/11/11
s 8
f 6/15/15 14/16/16 13/14/14 5/13/13
s 9
f 7/17/17 15/18/18 14/16/19 6/15/15
s 10
f 8/4/4 16/3/3 15/18/20 7/17/17
s 11
f 60/19/21 18/20/22 17/21/23 58/22/24
s 12
f 9/2/2 57/23/25 72/24/26 16/3/3
s 13
f 62/25/27 19/26/28 18/20/22 60/19/29
s 14
f 64/27/30 20/28/31 19/26/28 62/25/27
s 15
f 66/29/32 21/30/33 20/28/31 64/27/30
s 16
f 68/31/34 22/32/35 21/30/33 66/29/32
s 17
f 70/33/36 23/34/37 22/32/35 68/31/38
s 18
f 71/35/39 24/36/40 23/34/37 70/33/36
s 19
f 11/10/9 61/37/41 59/38/42 10/6/10
s 20
f 58/39/24 17/40/23 24/36/43 71/35/44
s 21
f 12/12/12 63/41/45 61/37/41 11/10/9
s 22
f 13/14/14 65/42/46 63/41/45 12/12/12
s 23
f 14/16/16 67/43/47 65/42/46 13/14/14
s 24
f 15/18/18 69/44/48 67/43/49 14/16/19
s 25
f 16/3/3 72/24/26 69/44/48 15/18/20
s 26
f 18/20/22 26/45/50 25/46/51 17/21/23
s 27
f 19/26/28 27/47/52 26/45/50 18/20/22
s 28
f 20/28/31 28/48/53 27/47/52 19/26/28
s 29
f 21/30/33 29/49/54 28/48/53 20/28/31
s 30
f 22/32/35 30/50/55 29/49/54 21/30/33
s 31
f 23/34/37 31/51/56 30/50/55 22/32/35
s 32
f 24/36/57 32/52/58 31/51/56 23/34/37
s 33
f 81/53/59 87/54/60 32/52/61 25/55/51
s 34
f 82/56/62 81/57/59 25/46/51 26/45/50
s 35
f 83/58/63 82/56/62 26/45/50 27/47/52
s 36
f 88/59/64 77/60/65 80/61/66 83/58/63
s 37
f 84/62/67 88/59/64 28/48/53 29/49/54
s 38
f 85/63/68 84/62/67 29/49/54 30/50/55
s 39
f 86/64/69 85/63/68 30/50/55 31/51/56
s 40
f 87/54/70 76/65/71 79/66/72 86/64/69
s 64
f 58/39/24 71/35/44 72/24/26 57/23/25
s 65
f 57/67/25 59/38/73 60/19/21 58/22/24
s 66
f 59/38/42 61/37/41 62/25/27 60/19/29
s 67
f 61/37/41 63/41/45 64/27/30 62/25/27
s 68
f 63/41/45 65/42/46 66/29/32 64/27/30
s 69
f 65/42/46 67/43/47 68/31/34 66/29/32
s 70
f 67/43/49 69/44/48 70/33/36 68/31/38
s 71
f 69/44/48 72/24/26 71/35/39 70/33/36
s 72
f 10/6/6 59/38/73 57/67/25 9/7/7
s 73
f 17/40/23 25/55/51 32/52/61 24/36/74
s 74
f 32/52/58 87/54/70 86/64/69 31/51/56
s 75
f 79/66/72 78/68/75 85/63/68 86/64/69
s 76
f 78/68/75 74/69/76 84/62/67 85/63/68
s 77
f 74/69/76 77/60/77 88/59/64 84/62/67
s 78
f 28/48/53 88/59/64 83/58/63 27/47/52
s 79
f 80/61/66 75/70/78 82/56/62 83/58/63
s 80
f 75/70/78 73/71/79 81/57/59 82/56/62
s 81
f 73/72/79 76/65/80 87/54/60 81/53/59
s 82
f 79/66/72 76/65/71 92/73/81 95/74/82
s 83
f 78/68/75 79/66/72 95/74/82 94/75/83
s 84
f 76/65/80 73/72/79 89/76/84 92/73/85
s 85
f 75/70/78 80/61/66 96/77/86 91/78/87
s 86
f 73/71/79 75/70/78 91/78/87 89/79/84
s 87
f 74/69/76 78/68/75 94/75/83 90/80/88
s 88
f 77/60/77 74/69/76 90/80/88 93/81/89
s 89
f 80/61/66 77/60/65 93/81/90 96/77/86
s 90
f 120/82/91 119/83/92 103/84/93 102/85/94
s 91
f 118/86/95 117/87/96 97/88/97 100/89/98
s 92
f 116/90/99 115/91/100 104/92/101 99/93/102
s 93
f 117/94/96 116/90/99 99/93/102 97/95/97
s 94
f 114/96/103 120/82/91 102/85/94 98/97/104
s 95
f 121/98/105 114/96/103 98/97/104 101/99/106
s 96
f 115/91/100 121/98/105 101/99/106 104/92/101
s 97
f 119/83/92 118/86/95 100/89/98 103/84/93
s 98
f 104/92/107 101/99/108 109/100/108 112/101/109
s 99
f 103/84/110 100/89/111 108/102/111 111/103/112
s 100
f 102/85/113 103/84/110 111/103/112 110/104/114
s 101
f 100/89/115 97/88/116 105/105/117 108/102/115
s 102
f 99/93/118 104/92/107 112/101/109 107/106/119
s 103
f 97/95/116 99/93/118 107/106/119 105/107/117
s 104
f 98/97/120 102/85/113 110/104/114 106/108/121
s 105
f 101/99/122 98/97/120 106/108/121 109/100/122
s 114
f 95/74/123 92/73/124 118/86/95 119/83/92
s 115
f 96/77/125 93/81/126 121/98/105 115/91/100
s 116
f 93/81/126 90/80/127 114/96/103 121/98/105
s 117
f 90/80/127 94/75/128 120/82/91 114/96/103
s 118
f 89/79/129 91/78/130 116/90/99 117/94/96
s 119
f 91/78/130 96/77/125 115/91/100 116/90/99
s 120
f 92/73/124 89/76/129 117/87/96 118/86/95
s 121
f 94/75/128 95/74/123 119/83/92 120/82/91
usemtl Black
s 1
f 49/109/131 1/1/1 8/4/4 50/110/132
s 2
f 39/111/133 37/112/134 124/113/135 125/114/136
s 41
f 33/115/137 35/116/138 36/117/139 34/118/140
s 42
f 37/112/141 38/119/142 35/120/138 33/121/141
s 43
f 39/111/143 40/122/144 38/119/145 37/112/146
s 44
f 41/123/147 42/124/148 40/122/144 39/111/143
s 45
f 43/125/149 44/126/150 42/124/148 41/123/147
s 46
f 45/127/151 46/128/152 44/126/150 43/125/149
s 47
f 47/129/153 48/130/154 46/128/155 45/127/153
s 48
f 34/118/140 36/117/139 48/130/154 47/129/156
s 49
f 35/116/138 49/109/131 50/110/132 36/117/139
s 50
f 38/119/142 51/131/157 49/132/131 35/120/138
s 51
f 40/122/144 52/133/158 51/131/157 38/119/145
s 52
f 42/124/148 53/134/159 52/133/160 40/122/144
s 53
f 44/126/150 54/135/161 53/134/159 42/124/148
s 54
f 46/128/152 55/136/162 54/135/163 44/126/150
s 55
f 48/130/154 56/137/164 55/136/162 46/128/155
s 56
f 36/117/139 50/110/132 56/137/164 48/130/154
s 57
f 51/131/157 2/5/5 1/8/1 49/132/131
s 58
f 52/133/158 3/9/8 2/5/5 51/131/157
s 59
f 53/134/159 4/11/11 3/9/8 52/133/160
s 60
f 54/135/161 5/13/13 4/11/11 53/134/159
s 61
f 55/136/162 6/15/15 5/13/13 54/135/163
s 62
f 56/137/164 7/17/17 6/15/15 55/136/162
s 63
f 50/110/132 8/4/4 7/17/17 56/137/164
s 106
f 105/107/165 107/106/166 113/138/167
s 107
f 106/108/168 110/104/169 113/139/167
s 108
f 109/100/170 106/108/168 113/140/167
s 109
f 112/101/171 109/100/170 113/141/167
s 110
f 111/103/172 108/102/173 113/142/167
s 111
f 110/104/169 111/103/172 113/143/167
s 112
f 108/102/173 105/105/165 113/144/167
s 113
f 107/106/166 112/101/171 113/145/167
s 122
f 123/146/174 129/147/174 138/148/174 139/149/174
s 123
f 45/127/175 43/125/176 127/150/177 128/151/178
s 124
f 41/123/179 39/111/133 125/114/136 126/152/179
s 125
f 47/129/180 45/127/175 128/151/178 129/147/181
s 126
f 37/112/134 33/121/182 122/153/183 124/113/135
s 127
f 43/125/176 41/123/179 126/152/179 127/150/177
s 128
f 34/118/184 47/129/180 129/147/181 123/146/184
s 129
f 33/115/182 34/118/184 123/146/184 122/154/183
s 130
f 127/150/185 126/152/186 142/155/186 141/156/187
s 131
f 129/147/188 128/151/189 140/157/190 138/148/188
s 132
f 126/152/186 125/114/191 143/158/192 142/155/186
s 133
f 122/154/193 123/146/193 139/149/193 145/159/193
s 134
f 128/151/189 127/150/185 141/156/187 140/157/190
s 135
f 125/114/191 124/113/194 144/160/195 143/158/192
s 136
f 124/113/194 122/153/196 145/161/196 144/160/195
s 137
f 130/162/197 131/163/197 147/164/197 153/165/197
s 138
f 137/166/198 131/163/199 139/149/199 138/148/198
s 139
f 136/167/200 137/166/198 138/148/198 140/157/200
s 140
f 135/168/201 136/167/200 140/157/200 141/156/201
s 141
f 134/169/199 135/168/201 141/156/201 142/155/199
s 142
f 133/170/202 134/169/199 142/155/199 143/158/202
s 143
f 132/171/203 133/170/202 143/158/202 144/160/203
s 144
f 130/162/204 132/171/203 144/160/203 145/161/204
s 145
f 131/163/199 130/162/204 145/161/204 139/149/199
s 146
f 146/172/205 148/173/205 149/174/205 150/175/205 151/176/205 152/177/205 153/165/205 147/164/205
s 147
f 133/170/206 132/171/207 152/177/208 151/176/209
s 148
f 135/168/210 134/169/211 150/175/211 149/174/212
s 149
f 137/166/213 136/167/214 148/173/215 146/172/213
s 150
f 132/171/207 130/162/216 153/165/216 152/177/208
s 151
f 134/169/211 133/170/206 151/176/209 150/175/211
s 152
f 136/167/214 135/168/210 149/174/212 148/173/215
s 153
f 131/163/217 137/166/217 146/172/217 147/164/217
