# Blender v2.80 (sub 75) OBJ File: 'MCOTMC_May2021_TavernKeeper_Source.blend'
# www.blender.org
mtllib cleaver.mtl
o cleaver_Cylinder.038
v 0.000002 -0.194631 -0.059073
v 0.000002 0.409763 -0.034808
v 0.034724 -0.194631 -0.047791
v 0.024944 0.409763 -0.028161
v 0.056183 -0.194631 -0.018254
v 0.040358 0.409763 -0.010756
v 0.056183 -0.194631 0.018254
v 0.040358 0.409763 0.010756
v 0.034724 -0.194631 0.047791
v 0.024944 0.409763 0.028161
v 0.000002 -0.194631 0.059073
v 0.000002 0.409763 0.034808
v -0.034720 -0.194631 0.047791
v -0.024939 0.409763 0.028161
v -0.056179 -0.194631 0.018254
v -0.040354 0.409763 0.010756
v -0.056179 -0.194631 -0.018254
v -0.040354 0.409763 -0.010756
v -0.034720 -0.194631 -0.047791
v -0.024939 0.409763 -0.028161
v 0.000001 -0.020988 -0.057633
v 0.000002 0.062480 -0.049401
v 0.000003 0.236121 -0.059073
v 0.032193 0.249136 -0.047791
v 0.029039 0.062480 -0.039966
v 0.028760 -0.038891 -0.046626
v 0.052088 0.257179 -0.018254
v 0.046985 0.062480 -0.015266
v 0.046534 -0.049956 -0.017810
v 0.052088 0.257179 0.018254
v 0.046985 0.062480 0.015266
v 0.046534 -0.049956 0.017810
v 0.032193 0.249136 0.047791
v 0.029039 0.062480 0.039966
v 0.028760 -0.038891 0.046626
v 0.000002 0.236121 0.059073
v 0.000002 0.062480 0.049401
v 0.000001 -0.020988 0.057633
v -0.032188 0.223106 0.047791
v -0.029035 0.062480 0.039966
v -0.028757 -0.003085 0.046626
v -0.052083 0.215063 0.018254
v -0.046981 0.062480 0.015266
v -0.046531 0.007980 0.017810
v -0.052083 0.215063 -0.018254
v -0.046981 0.062480 -0.015266
v -0.046531 0.007980 -0.017810
v -0.032188 0.223106 -0.047791
v -0.029035 0.062480 -0.039966
v -0.028757 -0.003085 -0.046626
v 0.021797 0.767267 -0.029998
v 0.000003 0.767267 -0.037080
v 0.035267 0.767267 -0.011458
v 0.035267 0.767267 0.011458
v 0.021797 0.767267 0.029998
v 0.000003 0.767267 0.037080
v -0.021792 0.767267 0.029998
v -0.035262 0.767267 0.011458
v -0.035262 0.767267 -0.011458
v -0.021792 0.767267 -0.029998
v 0.000002 -0.220583 -0.041402
v 0.024338 -0.220583 -0.033495
v 0.039378 -0.220583 -0.012794
v 0.039378 -0.220583 0.012794
v 0.024338 -0.220583 0.033495
v 0.000002 -0.220583 0.041402
v -0.024333 -0.220583 0.033495
v -0.039373 -0.220583 0.012794
v -0.039373 -0.220583 -0.012794
v -0.024333 -0.220583 -0.033495
v 0.233088 0.106775 -0.000000
v -0.113352 0.747091 0.062429
v -0.113352 0.747091 -0.062429
v -0.115612 0.286765 -0.062429
v 0.279061 0.747091 0.000000
v -0.115612 0.286765 0.062429
v 0.137739 0.155992 0.040427
v 0.029677 0.211771 0.062429
v 0.085844 0.182779 0.000000
v 0.029677 0.211771 -0.062429
v 0.137739 0.155992 -0.040427
v 0.055778 0.747091 0.062429
v 0.167235 0.747091 0.042131
v 0.113359 0.747091 0.000000
v 0.167235 0.747091 -0.042131
v 0.055778 0.747091 -0.062429
vt 1.000000 0.875000
vt 1.000000 1.000000
vt 0.900000 1.000000
vt 0.900000 0.875000
vt 0.800000 1.000000
vt 0.800000 0.875000
vt 0.700000 1.000000
vt 0.700000 0.875000
vt 0.600000 1.000000
vt 0.600000 0.875000
vt 0.500000 1.000000
vt 0.500000 0.875000
vt 0.400000 1.000000
vt 0.400000 0.875000
vt 0.300000 1.000000
vt 0.300000 0.875000
vt 0.200000 1.000000
vt 0.200000 0.875000
vt 0.900000 1.000000
vt 0.800000 1.000000
vt 0.100000 1.000000
vt 0.100000 0.875000
vt -0.000000 1.000000
vt -0.000000 0.875000
vt 0.200000 0.500000
vt 0.100000 0.500000
vt 0.100000 0.500000
vt 0.200000 0.500000
vt 0.100000 0.625000
vt -0.000000 0.625000
vt -0.000000 0.500000
vt 0.100000 0.750000
vt -0.000000 0.750000
vt 0.200000 0.625000
vt 0.200000 0.750000
vt 0.300000 0.500000
vt 0.300000 0.625000
vt 0.300000 0.750000
vt 0.400000 0.500000
vt 0.400000 0.625000
vt 0.400000 0.750000
vt 0.500000 0.500000
vt 0.500000 0.625000
vt 0.500000 0.750000
vt 0.600000 0.500000
vt 0.600000 0.625000
vt 0.600000 0.750000
vt 0.700000 0.500000
vt 0.700000 0.625000
vt 0.700000 0.750000
vt 0.800000 0.500000
vt 0.800000 0.625000
vt 0.800000 0.750000
vt 0.900000 0.500000
vt 0.900000 0.625000
vt 0.900000 0.750000
vt 1.000000 0.500000
vt 1.000000 0.625000
vt 1.000000 0.750000
vt 0.391068 0.444164
vt 0.250000 0.490000
vt 0.108932 0.444164
vt 0.021746 0.324164
vt 0.021746 0.175836
vt 0.108932 0.055836
vt 0.250000 0.010000
vt 0.391068 0.055836
vt 0.478254 0.175836
vt 0.478254 0.324164
vt 0.100000 1.000000
vt -0.000000 1.000000
vt 0.200000 1.000000
vt 0.300000 1.000000
vt 0.400000 1.000000
vt 0.500000 1.000000
vt 0.600000 1.000000
vt 0.700000 1.000000
vt 1.000000 1.000000
vt 0.750000 0.490000
vt 0.891068 0.444164
vt 0.978254 0.324164
vt 0.978254 0.175836
vt 0.891068 0.055836
vt 0.750000 0.010000
vt 0.608932 0.055836
vt 0.521746 0.175836
vt 0.521746 0.324164
vt 0.608932 0.444164
vt 0.300000 0.500000
vt 0.400000 0.500000
vt 0.500000 0.500000
vt 0.600000 0.500000
vt 0.700000 0.500000
vt 0.900000 0.500000
vt 1.000000 0.500000
vt 0.800000 0.500000
vt -0.000000 0.500000
vt 0.625000 0.500000
vt 0.625000 0.634844
vt 0.625000 0.668716
vt 0.625000 0.500000
vt 0.875000 0.500000
vt 0.875000 0.500000
vt 0.875000 0.750000
vt 0.875000 0.750000
vt 0.625000 0.615156
vt 0.625000 0.500000
vt 0.625000 0.500000
vt 0.625000 0.661890
vt 0.694702 0.500000
vt 0.625000 0.634844
vt 0.694702 0.750000
vt 0.688496 0.500000
vt 0.625000 0.615156
vt 0.688496 0.750000
vt 0.625000 0.829913
vt 0.563027 0.500000
vt 0.563307 0.750000
vt 0.625000 0.500000
vn -0.0054 0.0386 -0.9992
vn -0.0139 0.0645 -0.9978
vn 0.5599 0.0621 -0.8262
vn 0.5777 0.0450 -0.8150
vn 0.9444 0.0529 -0.3246
vn 0.9484 0.0356 -0.3150
vn 0.9444 0.0529 0.3246
vn 0.9484 0.0356 0.3150
vn 0.5599 0.0621 0.8262
vn 0.5777 0.0450 0.8150
vn -0.0139 0.0645 0.9978
vn -0.0054 0.0386 0.9992
vn -0.5764 0.0543 0.8154
vn -0.5881 0.0223 0.8085
vn -0.9467 0.0433 0.3193
vn -0.9510 0.0130 0.3088
vn -0.9467 0.0433 -0.3193
vn -0.9510 0.0130 -0.3088
vn 0.5546 0.0013 -0.8321
vn 0.9428 0.0111 -0.3333
vn -0.5764 0.0543 -0.8154
vn -0.5881 0.0223 -0.8085
vn -0.9218 -0.2580 -0.2892
vn -0.5795 -0.2676 -0.7697
vn -0.4859 -0.5628 -0.6687
vn -0.7861 -0.5628 -0.2554
vn -0.5951 0.0547 -0.8018
vn 0.0134 0.0492 -0.9987
vn 0.0019 -0.2739 -0.9618
vn -0.6037 0.0097 -0.7972
vn 0.0176 0.0182 -0.9997
vn -0.9539 0.0299 -0.2987
vn -0.9561 -0.0122 -0.2927
vn -0.9218 -0.2580 0.2892
vn -0.9539 0.0299 0.2987
vn -0.9561 -0.0122 0.2927
vn -0.5795 -0.2676 0.7697
vn -0.5951 0.0547 0.8018
vn -0.6037 0.0097 0.7972
vn 0.0019 -0.2739 0.9618
vn 0.0134 0.0492 0.9987
vn 0.0176 0.0182 0.9997
vn 0.5848 -0.2645 0.7668
vn 0.6129 0.0343 0.7894
vn 0.6191 0.0031 0.7853
vn 0.9250 -0.2502 0.2861
vn 0.9559 0.0354 0.2914
vn 0.9568 -0.0114 0.2905
vn 0.9250 -0.2502 -0.2861
vn 0.9559 0.0354 -0.2914
vn 0.9568 -0.0114 -0.2905
vn 0.5848 -0.2645 -0.7668
vn 0.6129 0.0343 -0.7894
vn 0.6191 0.0031 -0.7853
vn 0.0000 1.0000 -0.0000
vn -0.5546 0.0013 -0.8321
vn 0.0000 -0.0045 -1.0000
vn -0.9428 0.0111 -0.3333
vn -0.9428 0.0111 0.3333
vn -0.5546 0.0013 0.8321
vn 0.0000 -0.0045 1.0000
vn 0.5546 0.0013 0.8321
vn 0.9428 0.0111 0.3333
vn 0.0000 -1.0000 -0.0000
vn -0.7861 -0.5628 0.2554
vn -0.4859 -0.5628 0.6687
vn 0.0000 -0.5628 0.8266
vn 0.4859 -0.5628 0.6687
vn 0.7861 -0.5628 0.2554
vn 0.4859 -0.5628 -0.6687
vn 0.0000 -0.5628 -0.8266
vn 0.7861 -0.5628 -0.2554
vn -1.0000 0.0049 0.0000
vn -0.4587 -0.8886 -0.0000
vn 0.3652 -0.0237 0.9306
vn 0.0000 -0.0000 -1.0000
vn 0.3652 -0.0237 -0.9306
vn 0.1866 -0.0107 -0.9824
vn 0.1866 -0.0107 0.9824
vn 0.0000 0.0000 1.0000
usemtl BrownDark
s 1
f 23/1/1 2/2/2 4/3/3 24/4/4
s 2
f 24/4/4 4/3/3 6/5/5 27/6/6
s 3
f 27/6/6 6/5/5 8/7/7 30/8/8
s 4
f 30/8/8 8/7/7 10/9/9 33/10/10
s 5
f 33/10/10 10/9/9 12/11/11 36/12/12
s 6
f 36/12/12 12/11/11 14/13/13 39/14/14
s 7
f 39/14/14 14/13/13 16/15/15 42/16/16
s 8
f 42/16/16 16/15/15 18/17/17 45/18/18
s 9
f 6/5/5 4/3/3 51/19/19 53/20/20
s 10
f 45/18/18 18/17/17 20/21/21 48/22/22
s 11
f 48/22/22 20/21/21 2/23/2 23/24/1
s 12
f 17/25/23 19/26/24 70/27/25 69/28/26
s 13
f 19/26/24 50/29/27 21/30/28 1/31/29
s 14
f 50/29/27 49/32/30 22/33/31 21/30/28
s 15
f 49/32/30 48/22/22 23/24/1 22/33/31
s 16
f 17/25/23 47/34/32 50/29/27 19/26/24
s 17
f 47/34/32 46/35/33 49/32/30 50/29/27
s 18
f 46/35/33 45/18/18 48/22/22 49/32/30
s 19
f 15/36/34 44/37/35 47/34/32 17/25/23
s 20
f 44/37/35 43/38/36 46/35/33 47/34/32
s 21
f 43/38/36 42/16/16 45/18/18 46/35/33
s 22
f 13/39/37 41/40/38 44/37/35 15/36/34
s 23
f 41/40/38 40/41/39 43/38/36 44/37/35
s 24
f 40/41/39 39/14/14 42/16/16 43/38/36
s 25
f 11/42/40 38/43/41 41/40/38 13/39/37
s 26
f 38/43/41 37/44/42 40/41/39 41/40/38
s 27
f 37/44/42 36/12/12 39/14/14 40/41/39
s 28
f 9/45/43 35/46/44 38/43/41 11/42/40
s 29
f 35/46/44 34/47/45 37/44/42 38/43/41
s 30
f 34/47/45 33/10/10 36/12/12 37/44/42
s 31
f 7/48/46 32/49/47 35/46/44 9/45/43
s 32
f 32/49/47 31/50/48 34/47/45 35/46/44
s 33
f 31/50/48 30/8/8 33/10/10 34/47/45
s 34
f 5/51/49 29/52/50 32/49/47 7/48/46
s 35
f 29/52/50 28/53/51 31/50/48 32/49/47
s 36
f 28/53/51 27/6/6 30/8/8 31/50/48
s 37
f 3/54/52 26/55/53 29/52/50 5/51/49
s 38
f 26/55/53 25/56/54 28/53/51 29/52/50
s 39
f 25/56/54 24/4/4 27/6/6 28/53/51
s 40
f 1/57/29 21/58/28 26/55/53 3/54/52
s 41
f 21/58/28 22/59/31 25/56/54 26/55/53
s 42
f 22/59/31 23/1/1 24/4/4 25/56/54
s 43
f 51/60/55 52/61/55 60/62/55 59/63/55 58/64/55 57/65/55 56/66/55 55/67/55 54/68/55 53/69/55
s 44
f 2/23/2 20/21/21 60/70/56 52/71/57
s 45
f 20/21/21 18/17/17 59/72/58 60/70/56
s 46
f 18/17/17 16/15/15 58/73/59 59/72/58
s 47
f 16/15/15 14/13/13 57/74/60 58/73/59
s 48
f 14/13/13 12/11/11 56/75/61 57/74/60
s 49
f 12/11/11 10/9/9 55/76/62 56/75/61
s 50
f 10/9/9 8/7/7 54/77/63 55/76/62
s 51
f 4/3/3 2/2/2 52/78/57 51/19/19
s 52
f 8/7/7 6/5/5 53/20/20 54/77/63
s 53
f 61/79/64 62/80/64 63/81/64 64/82/64 65/83/64 66/84/64 67/85/64 68/86/64 69/87/64 70/88/64
s 54
f 15/36/34 17/25/23 69/28/26 68/89/65
s 55
f 13/39/37 15/36/34 68/89/65 67/90/66
s 56
f 11/42/40 13/39/37 67/90/66 66/91/67
s 57
f 9/45/43 11/42/40 66/91/67 65/92/68
s 58
f 7/48/46 9/45/43 65/92/68 64/93/69
s 59
f 1/57/29 3/54/52 62/94/70 61/95/71
s 60
f 5/51/49 7/48/46 64/93/69 63/96/72
s 61
f 3/54/52 5/51/49 63/96/72 62/94/70
s 62
f 19/26/24 1/31/29 61/97/71 70/27/25
usemtl Metal
s off
f 85/98/55 84/99/55 83/100/55 75/101/55
f 73/102/73 74/103/73 76/104/73 72/105/73
f 79/106/74 81/107/74 71/108/74 77/109/74
f 80/110/74 79/111/74 78/112/74 76/104/74 74/103/74
f 83/100/75 77/109/75 71/108/75 75/101/75
f 86/113/76 80/110/76 74/103/76 73/102/76
f 84/114/55 86/113/55 73/102/55 72/105/55 82/115/55
f 75/101/77 71/108/77 81/107/77 85/98/77
f 77/109/74 78/116/74 79/111/74
f 80/110/74 81/117/74 79/106/74
f 82/115/55 83/118/55 84/99/55
f 85/98/55 86/119/55 84/114/55
f 85/98/78 81/107/78 80/110/78 86/113/78
f 77/109/79 83/100/79 82/115/79 78/112/79
f 72/105/80 76/104/80 78/112/80 82/115/80
