# Blender v2.80 (sub 75) OBJ File: 'MCOTMC_May2021_TavernKeeper_Source.blend'
# www.blender.org
mtllib knife.mtl
o knife_Cylinder.036
v 0.000001 -0.194152 -0.039956
v 0.033609 -0.194152 -0.032325
v 0.054379 -0.194152 -0.012347
v 0.054379 -0.194152 0.012347
v 0.033609 -0.194152 0.032325
v 0.000001 -0.194152 0.039956
v -0.033607 -0.194152 0.032325
v -0.054378 -0.194152 0.012347
v -0.054378 -0.194152 -0.012347
v -0.033607 -0.194152 -0.032325
v 0.000000 -0.076701 -0.038982
v 0.000001 0.040747 -0.033414
v 0.000001 0.158196 -0.039956
v 0.031159 0.167000 -0.032325
v 0.028106 0.040747 -0.027033
v 0.027836 -0.088811 -0.031537
v 0.050416 0.172440 -0.012347
v 0.045477 0.040747 -0.010326
v 0.045039 -0.096295 -0.012046
v 0.050416 0.172440 0.012347
v 0.045477 0.040747 0.010326
v 0.045039 -0.096295 0.012046
v 0.031159 0.167000 0.032325
v 0.028106 0.040747 0.027033
v 0.027836 -0.088811 0.031537
v 0.000001 0.158196 0.039956
v 0.000001 0.040747 0.033414
v 0.000000 -0.076701 0.038982
v -0.031156 0.149393 0.032325
v -0.028104 0.040747 0.027033
v -0.027836 -0.064592 0.031537
v -0.050413 0.143953 0.012347
v -0.045475 0.040747 0.010326
v -0.045039 -0.057108 0.012046
v -0.050413 0.143953 -0.012347
v -0.045475 0.040747 -0.010326
v -0.045039 -0.057108 -0.012046
v -0.031156 0.149393 -0.032325
v -0.028104 0.040747 -0.027033
v -0.027836 -0.064592 -0.031537
v 0.000001 -0.211706 -0.028004
v 0.023556 -0.211706 -0.022656
v 0.038113 -0.211706 -0.008654
v 0.038113 -0.211706 0.008654
v 0.023556 -0.211706 0.022656
v 0.000001 -0.211706 0.028004
v -0.023553 -0.211706 0.022656
v -0.038111 -0.211706 0.008654
v -0.038111 -0.211706 -0.008654
v -0.023553 -0.211706 -0.022656
v 0.177854 0.125694 0.000000
v -0.075999 0.658399 0.042226
v 0.081905 0.125694 0.042226
v -0.075999 0.658399 -0.042226
v 0.081905 0.125694 -0.042226
v 0.081905 0.658399 0.042226
v -0.075999 0.125694 -0.042226
v 0.081905 0.658399 -0.042226
v 0.177854 0.610044 0.000000
v -0.075999 0.125694 0.042226
v -0.075999 1.009089 0.029859
v -0.075999 1.009089 -0.029859
v 0.081905 0.954897 -0.000000
v -0.075999 1.189221 0.000000
vt 0.200000 0.500000
vt 0.100000 0.500000
vt 0.100000 0.500000
vt 0.200000 0.500000
vt 0.100000 0.625000
vt -0.000000 0.625000
vt -0.000000 0.500000
vt 0.100000 0.750000
vt -0.000000 0.750000
vt 0.100000 0.875000
vt -0.000000 0.875000
vt 0.200000 0.625000
vt 0.200000 0.750000
vt 0.200000 0.875000
vt 0.300000 0.500000
vt 0.300000 0.625000
vt 0.300000 0.750000
vt 0.300000 0.875000
vt 0.400000 0.500000
vt 0.400000 0.625000
vt 0.400000 0.750000
vt 0.400000 0.875000
vt 0.500000 0.500000
vt 0.500000 0.625000
vt 0.500000 0.750000
vt 0.500000 0.875000
vt 0.600000 0.500000
vt 0.600000 0.625000
vt 0.600000 0.750000
vt 0.600000 0.875000
vt 0.700000 0.500000
vt 0.700000 0.625000
vt 0.700000 0.750000
vt 0.700000 0.875000
vt 0.800000 0.500000
vt 0.800000 0.625000
vt 0.800000 0.750000
vt 0.800000 0.875000
vt 0.900000 0.500000
vt 0.900000 0.625000
vt 0.900000 0.750000
vt 0.900000 0.875000
vt 1.000000 0.500000
vt 1.000000 0.625000
vt 1.000000 0.750000
vt 1.000000 0.875000
vt 0.750000 0.490000
vt 0.891068 0.444164
vt 0.978254 0.324164
vt 0.978254 0.175836
vt 0.891068 0.055836
vt 0.750000 0.010000
vt 0.608932 0.055836
vt 0.521746 0.175836
vt 0.521746 0.324164
vt 0.608932 0.444164
vt 0.300000 0.500000
vt 0.400000 0.500000
vt 0.500000 0.500000
vt 0.600000 0.500000
vt 0.700000 0.500000
vt 0.900000 0.500000
vt 1.000000 0.500000
vt 0.800000 0.500000
vt -0.000000 0.500000
vt 0.625000 0.500000
vt 0.625000 0.500000
vt 0.875000 0.500000
vt 0.875000 0.500000
vt 0.875000 0.750000
vt 0.875000 0.750000
vt 0.625000 0.750000
vt 0.625000 0.750000
vt 0.625000 0.500000
vt 0.625000 0.500000
vt 0.625000 0.500000
vt 0.625000 0.750000
vt 0.875000 0.750000
vt 0.875000 0.750000
vt 0.875000 0.500000
vt 0.625000 0.500000
vt 0.875000 0.500000
vn -0.8829 -0.3107 -0.3520
vn -0.4787 -0.2912 -0.8283
vn -0.3530 -0.5984 -0.7193
vn -0.6623 -0.6800 -0.3146
vn -0.4905 0.0339 -0.8708
vn 0.0057 0.0277 -0.9996
vn 0.0014 -0.2774 -0.9607
vn -0.4907 -0.0113 -0.8713
vn 0.0081 -0.0055 -1.0000
vn -0.4445 -0.0547 -0.8941
vn 0.0480 -0.0531 -0.9974
vn -0.9248 0.0329 -0.3790
vn -0.9259 -0.0231 -0.3771
vn -0.7030 -0.0510 -0.7094
vn -0.8829 -0.3107 0.3520
vn -0.9248 0.0329 0.3790
vn -0.9259 -0.0231 0.3771
vn -0.9989 -0.0478 0.0000
vn -0.4787 -0.2912 0.8283
vn -0.4905 0.0339 0.8708
vn -0.4907 -0.0113 0.8713
vn -0.4445 -0.0547 0.8941
vn -0.7030 -0.0510 0.7094
vn 0.0014 -0.2774 0.9607
vn 0.0057 0.0277 0.9996
vn 0.0081 -0.0055 1.0000
vn 0.0480 -0.0531 0.9974
vn 0.4845 -0.2873 0.8262
vn 0.4993 0.0286 0.8659
vn 0.5006 -0.0102 0.8656
vn 0.5288 -0.0471 0.8474
vn 0.8880 -0.2999 0.3485
vn 0.9259 0.0464 0.3750
vn 0.9271 -0.0186 0.3743
vn 0.9340 -0.0427 0.3546
vn 0.8880 -0.2999 -0.3485
vn 0.9259 0.0464 -0.3750
vn 0.9271 -0.0186 -0.3743
vn 0.9340 -0.0427 -0.3546
vn 0.4845 -0.2873 -0.8262
vn 0.4993 0.0286 -0.8659
vn 0.5006 -0.0102 -0.8656
vn 0.5288 -0.0471 -0.8474
vn 0.0000 -1.0000 -0.0000
vn -0.6623 -0.6800 0.3146
vn -0.3530 -0.5984 0.7193
vn 0.0000 -0.5628 0.8266
vn 0.3530 -0.5984 0.7193
vn 0.6624 -0.6799 0.3146
vn 0.3530 -0.5984 -0.7193
vn 0.0000 -0.5628 -0.8266
vn 0.6624 -0.6799 -0.3146
vn 0.2475 0.0617 -0.9669
vn 0.2058 0.0000 -0.9786
vn 0.0000 0.0000 -1.0000
vn 0.0541 0.0419 -0.9977
vn -1.0000 0.0000 0.0000
vn 0.2475 0.0617 0.9669
vn 0.2058 0.0000 0.9786
vn 0.4028 0.0000 0.9153
vn 0.4189 0.0389 0.9072
vn 0.0541 0.0419 0.9977
vn 0.0000 0.0000 1.0000
vn 0.4189 0.0389 -0.9072
vn 0.1763 0.1066 -0.9786
vn 0.4028 0.0000 -0.9153
vn 0.1763 0.1066 0.9786
vn 0.1849 0.1290 0.9743
vn 0.2358 0.1589 0.9587
vn 0.1849 0.1290 -0.9743
vn 0.2358 0.1589 -0.9587
usemtl Black
s 1
f 9/1/1 10/2/2 50/3/3 49/4/4
s 2
f 10/2/2 40/5/5 11/6/6 1/7/7
s 3
f 40/5/5 39/8/8 12/9/9 11/6/6
s 4
f 39/8/8 38/10/10 13/11/11 12/9/9
s 5
f 9/1/1 37/12/12 40/5/5 10/2/2
s 6
f 37/12/12 36/13/13 39/8/8 40/5/5
s 7
f 36/13/13 35/14/14 38/10/10 39/8/8
s 8
f 8/15/15 34/16/16 37/12/12 9/1/1
s 9
f 34/16/16 33/17/17 36/13/13 37/12/12
s 10
f 33/17/17 32/18/18 35/14/18 36/13/13
s 11
f 7/19/19 31/20/20 34/16/16 8/15/15
s 12
f 31/20/20 30/21/21 33/17/17 34/16/16
s 13
f 30/21/21 29/22/22 32/18/23 33/17/17
s 14
f 6/23/24 28/24/25 31/20/20 7/19/19
s 15
f 28/24/25 27/25/26 30/21/21 31/20/20
s 16
f 27/25/26 26/26/27 29/22/22 30/21/21
s 17
f 5/27/28 25/28/29 28/24/25 6/23/24
s 18
f 25/28/29 24/29/30 27/25/26 28/24/25
s 19
f 24/29/30 23/30/31 26/26/27 27/25/26
s 20
f 4/31/32 22/32/33 25/28/29 5/27/28
s 21
f 22/32/33 21/33/34 24/29/30 25/28/29
s 22
f 21/33/34 20/34/35 23/30/31 24/29/30
s 23
f 3/35/36 19/36/37 22/32/33 4/31/32
s 24
f 19/36/37 18/37/38 21/33/34 22/32/33
s 25
f 18/37/38 17/38/39 20/34/35 21/33/34
s 26
f 2/39/40 16/40/41 19/36/37 3/35/36
s 27
f 16/40/41 15/41/42 18/37/38 19/36/37
s 28
f 15/41/42 14/42/43 17/38/39 18/37/38
s 29
f 1/43/7 11/44/6 16/40/41 2/39/40
s 30
f 11/44/6 12/45/9 15/41/42 16/40/41
s 31
f 12/45/9 13/46/11 14/42/43 15/41/42
s 32
f 41/47/44 42/48/44 43/49/44 44/50/44 45/51/44 46/52/44 47/53/44 48/54/44 49/55/44 50/56/44
s 33
f 8/15/15 9/1/1 49/4/4 48/57/45
s 34
f 7/19/19 8/15/15 48/57/45 47/58/46
s 35
f 6/23/24 7/19/19 47/58/46 46/59/47
s 36
f 5/27/28 6/23/24 46/59/47 45/60/48
s 37
f 4/31/32 5/27/28 45/60/48 44/61/49
s 38
f 1/43/7 2/39/40 42/62/50 41/63/51
s 39
f 3/35/36 4/31/32 44/61/49 43/64/52
s 40
f 2/39/40 3/35/36 43/64/52 42/62/50
s 41
f 10/2/2 1/7/7 41/65/51 50/3/3
usemtl Metal
s 42
f 58/66/53 55/67/54 57/68/55 54/69/56
s 43
f 54/69/57 57/68/57 60/70/57 52/71/57
s 44
f 56/72/58 53/73/59 51/74/60 59/75/61
s 45
f 52/71/62 60/70/63 53/73/59 56/72/58
s 46
f 59/75/64 58/66/53 63/76/65
s 47
f 55/67/44 53/73/44 60/70/44 57/68/44
s 48
f 59/75/64 51/74/66 55/67/54 58/66/53
s 49
f 56/72/58 59/75/61 63/77/67
s 50
f 55/67/44 51/74/44 53/73/44
s 51
f 61/78/68 63/77/67 64/79/69
s 52
f 54/69/57 52/71/57 61/78/57 62/80/57
s 53
f 52/71/62 56/72/58 63/77/67 61/78/68
s 54
f 58/66/53 54/69/56 62/80/70 63/76/65
s 55
f 63/76/65 62/80/70 64/81/71
s 56
f 62/80/57 61/78/57 64/82/57
