# Blender v2.80 (sub 75) OBJ File: 'MCOTMC_May2021_TavernKeeper_Source.blend'
# www.blender.org
mtllib table.mtl
o table_Cube.6073
v -1.176688 -0.006601 0.244492
v -1.176688 0.609067 0.244492
v -1.176688 -0.006601 -0.313531
v -1.176688 0.609067 -0.313531
v 1.191961 -0.006601 0.244492
v 1.191961 0.609067 0.244492
v 1.191961 -0.006601 -0.313531
v 1.191961 0.609067 -0.313531
v -1.245897 0.546184 0.312289
v -1.245897 0.563359 0.323229
v -1.263073 0.563359 0.312289
v -1.245897 0.551214 0.320025
v -1.255814 0.553443 0.318605
v -1.258042 0.563359 0.320025
v -1.258042 0.551214 0.312289
v -1.245897 0.629882 0.323229
v -1.245897 0.647057 0.312289
v -1.263073 0.629882 0.312289
v -1.245897 0.642026 0.320025
v -1.255814 0.639798 0.318605
v -1.258042 0.642026 0.312289
v -1.258042 0.629882 0.320025
v -1.245897 0.546184 -0.376620
v -1.263073 0.563359 -0.376620
v -1.245897 0.563359 -0.387560
v -1.258042 0.551214 -0.376620
v -1.255814 0.553443 -0.382936
v -1.258042 0.563359 -0.384356
v -1.245897 0.551214 -0.384356
v -1.245897 0.647057 -0.376620
v -1.245897 0.629882 -0.387560
v -1.263073 0.629882 -0.376620
v -1.245897 0.642026 -0.384356
v -1.255814 0.639798 -0.382936
v -1.258042 0.629882 -0.384356
v -1.258042 0.642026 -0.376620
v 1.261170 0.546184 0.312289
v 1.278346 0.563359 0.312289
v 1.261170 0.563359 0.323229
v 1.273315 0.551214 0.312289
v 1.271087 0.553443 0.318605
v 1.273315 0.563359 0.320025
v 1.261170 0.551214 0.320025
v 1.261170 0.647057 0.312289
v 1.261170 0.629882 0.323229
v 1.278346 0.629882 0.312289
v 1.261170 0.642026 0.320025
v 1.271087 0.639798 0.318605
v 1.273315 0.629882 0.320025
v 1.273315 0.642026 0.312289
v 1.261170 0.546184 -0.376620
v 1.261170 0.563359 -0.387560
v 1.278346 0.563359 -0.376620
v 1.261170 0.551214 -0.384356
v 1.271087 0.553443 -0.382936
v 1.273315 0.563359 -0.384356
v 1.273315 0.551214 -0.376620
v 1.261170 0.647057 -0.376620
v 1.278346 0.629882 -0.376620
v 1.261170 0.629882 -0.387560
v 1.273315 0.642026 -0.376620
v 1.271087 0.639798 -0.382936
v 1.273315 0.629882 -0.384356
v 1.261170 0.642026 -0.384356
vt 0.375000 0.000000
vt 0.625000 0.000000
vt 0.625000 0.250000
vt 0.375000 0.250000
vt 0.625000 0.500000
vt 0.375000 0.500000
vt 0.625000 0.750000
vt 0.375000 0.750000
vt 0.625000 1.000000
vt 0.375000 1.000000
vt 0.125000 0.500000
vt 0.125000 0.750000
vt 0.417567 0.751690
vt 0.582433 0.751690
vt 0.582433 0.998310
vt 0.417567 0.998310
vt 0.417567 0.505355
vt 0.582433 0.505355
vt 0.582433 0.744645
vt 0.417567 0.744645
vt 0.626690 0.505355
vt 0.873310 0.505355
vt 0.873310 0.744645
vt 0.626690 0.744645
vt 0.417567 0.005355
vt 0.582433 0.005355
vt 0.582433 0.244645
vt 0.417567 0.244645
vt 0.417567 0.251690
vt 0.582433 0.251690
vt 0.582433 0.498310
vt 0.417567 0.498310
vt 0.126690 0.744645
vt 0.126690 0.750000
vt 0.125714 0.750000
vt 0.125000 0.744645
vt 0.417567 1.000000
vt 0.392991 1.000000
vt 0.375000 0.998310
vt 0.375000 0.005355
vt 0.375000 0.002263
vt 0.417567 0.000000
vt 0.625000 0.998310
vt 0.625000 0.999286
vt 0.582433 1.000000
vt 0.875000 0.744645
vt 0.875000 0.747737
vt 0.873310 0.750000
vt 0.582433 0.000000
vt 0.607009 0.000000
vt 0.625000 0.005355
vt 0.126690 0.505355
vt 0.125000 0.505355
vt 0.125000 0.502263
vt 0.126690 0.500000
vt 0.417567 0.250000
vt 0.392991 0.250000
vt 0.375000 0.244645
vt 0.375000 0.251690
vt 0.375000 0.250714
vt 0.873310 0.500000
vt 0.874286 0.500000
vt 0.875000 0.505355
vt 0.582433 0.250000
vt 0.607009 0.250000
vt 0.625000 0.251690
vt 0.625000 0.244645
vt 0.625000 0.247737
vt 0.373310 0.744645
vt 0.375000 0.744645
vt 0.380997 0.749484
vt 0.373310 0.750000
vt 0.417567 0.750000
vt 0.375000 0.751690
vt 0.626690 0.750000
vt 0.619241 0.749246
vt 0.625000 0.744645
vt 0.582433 0.750000
vt 0.625000 0.751690
vt 0.373310 0.505355
vt 0.373310 0.500000
vt 0.380759 0.500754
vt 0.375000 0.505355
vt 0.417567 0.500000
vt 0.375000 0.498310
vt 0.625000 0.505355
vt 0.619003 0.500516
vt 0.626689 0.500000
vt 0.582433 0.500000
vt 0.625000 0.498310
vn -1.0000 0.0000 0.0000
vn 0.0000 0.0000 -1.0000
vn 1.0000 0.0000 0.0000
vn 0.0000 0.0000 1.0000
vn 0.0000 -1.0000 0.0000
vn 0.1198 -0.1198 0.9855
vn 0.1198 0.1198 0.9855
vn -0.1198 0.1198 0.9855
vn -0.1198 -0.1198 0.9855
vn 0.9492 -0.1759 -0.2610
vn 0.9492 0.1759 -0.2610
vn 0.9492 0.1759 0.2610
vn 0.9492 -0.1759 0.2610
vn 0.1759 0.9492 -0.2610
vn -0.1759 0.9492 -0.2610
vn -0.1759 0.9492 0.2610
vn 0.1759 0.9492 0.2610
vn -0.9492 -0.1759 0.2610
vn -0.9492 0.1759 0.2610
vn -0.9492 0.1759 -0.2610
vn -0.9492 -0.1759 -0.2610
vn -0.1198 -0.1198 -0.9855
vn -0.1198 0.1198 -0.9855
vn 0.1198 0.1198 -0.9855
vn 0.1198 -0.1198 -0.9855
vn -0.1759 -0.9492 0.2610
vn -0.1399 -0.5931 0.7929
vn -0.6077 -0.6077 0.5113
vn -0.6846 -0.6846 0.2505
vn -0.5931 -0.1399 0.7929
vn -0.2214 -0.2214 0.9497
vn -0.1399 0.5931 0.7929
vn -0.2214 0.2214 0.9497
vn -0.5931 0.1399 0.7929
vn -0.6846 0.6846 0.2505
vn -0.6077 0.6077 0.5113
vn -0.1759 -0.9492 -0.2610
vn -0.6846 -0.6846 -0.2505
vn -0.6077 -0.6077 -0.5113
vn -0.1399 -0.5931 -0.7929
vn -0.5931 -0.1399 -0.7929
vn -0.2214 -0.2214 -0.9497
vn -0.1399 0.5931 -0.7929
vn -0.6077 0.6077 -0.5113
vn -0.6846 0.6846 -0.2505
vn -0.5931 0.1399 -0.7929
vn -0.2214 0.2214 -0.9497
vn 0.1759 -0.9492 0.2610
vn 0.6846 -0.6846 0.2505
vn 0.6077 -0.6077 0.5113
vn 0.1399 -0.5931 0.7929
vn 0.5931 -0.1399 0.7929
vn 0.2214 -0.2214 0.9497
vn 0.1399 0.5931 0.7929
vn 0.6077 0.6077 0.5113
vn 0.6846 0.6846 0.2505
vn 0.5931 0.1399 0.7929
vn 0.2214 0.2214 0.9497
vn 0.1759 -0.9492 -0.2610
vn 0.1399 -0.5931 -0.7929
vn 0.6077 -0.6077 -0.5113
vn 0.6846 -0.6846 -0.2505
vn 0.5931 -0.1399 -0.7929
vn 0.2214 -0.2214 -0.9497
vn 0.6846 0.6846 -0.2505
vn 0.6077 0.6077 -0.5113
vn 0.1399 0.5931 -0.7929
vn 0.5931 0.1399 -0.7929
vn 0.2214 0.2214 -0.9497
usemtl Stone2
s 6
f 1/1/1 2/2/1 4/3/1 3/4/1
s 7
f 3/4/2 4/3/2 8/5/2 7/6/2
s 8
f 7/6/3 8/5/3 6/7/3 5/8/3
s 9
f 5/8/4 6/7/4 2/9/4 1/10/4
s 10
f 3/11/5 7/6/5 5/8/5 1/12/5
usemtl Black
s 1
f 39/13/6 45/14/7 16/15/8 10/16/9
s 2
f 53/17/10 59/18/11 46/19/12 38/20/13
s 3
f 58/21/14 30/22/15 17/23/16 44/24/17
s 4
f 11/25/18 18/26/19 32/27/20 24/28/21
s 5
f 25/29/22 31/30/23 60/31/24 52/32/25
s 11
f 9/33/26 12/34/27 13/35/28 15/36/29
s 12
f 10/16/9 14/37/30 13/38/31 12/39/27
s 13
f 11/25/18 15/40/29 13/41/28 14/42/30
s 14
f 16/15/8 19/43/32 20/44/33 22/45/34
s 15
f 17/23/16 21/46/35 20/47/36 19/48/32
s 16
f 18/26/19 22/49/34 20/50/36 21/51/35
s 17
f 23/52/37 26/53/38 27/54/39 29/55/40
s 18
f 24/28/21 28/56/41 27/57/39 26/58/38
s 19
f 25/29/22 29/59/40 27/60/42 28/56/41
s 20
f 30/22/15 33/61/43 34/62/44 36/63/45
s 21
f 31/30/23 35/64/46 34/65/47 33/66/43
s 22
f 32/27/20 36/67/45 34/68/44 35/64/46
s 23
f 37/69/48 40/70/49 41/71/50 43/72/51
s 24
f 38/20/13 42/73/52 41/71/50 40/70/49
s 25
f 39/13/6 43/74/51 41/71/53 42/73/52
s 26
f 44/24/17 47/75/54 48/76/55 50/77/56
s 27
f 45/14/7 49/78/57 48/76/58 47/79/54
s 28
f 46/19/12 50/77/56 48/76/55 49/78/57
s 29
f 51/80/59 54/81/60 55/82/61 57/83/62
s 30
f 52/32/25 56/84/63 55/82/64 54/85/60
s 31
f 53/17/10 57/83/62 55/82/61 56/84/63
s 32
f 58/21/14 61/86/65 62/87/66 64/88/67
s 33
f 59/18/11 63/89/68 62/87/66 61/86/65
s 34
f 60/31/24 64/90/67 62/87/69 63/89/68
s 35
f 23/52/37 9/33/26 15/36/29 26/53/38
s 36
f 26/58/38 15/40/29 11/25/18 24/28/21
s 37
f 10/16/9 16/15/8 22/45/34 14/37/30
s 38
f 14/42/30 22/49/34 18/26/19 11/25/18
s 39
f 17/23/16 30/22/15 36/63/45 21/46/35
s 40
f 21/51/35 36/67/45 32/27/20 18/26/19
s 41
f 31/30/23 25/29/22 28/56/41 35/64/46
s 42
f 35/64/46 28/56/41 24/28/21 32/27/20
s 43
f 51/80/59 23/52/37 29/55/40 54/81/60
s 44
f 54/85/60 29/59/40 25/29/22 52/32/25
s 45
f 30/22/15 58/21/14 64/88/67 33/61/43
s 46
f 33/66/43 64/90/67 60/31/24 31/30/23
s 47
f 59/18/11 53/17/10 56/84/63 63/89/68
s 48
f 63/89/68 56/84/63 52/32/25 60/31/24
s 49
f 37/69/48 51/80/59 57/83/62 40/70/49
s 50
f 40/70/49 57/83/62 53/17/10 38/20/13
s 51
f 58/21/14 44/24/17 50/77/56 61/86/65
s 52
f 61/86/65 50/77/56 46/19/12 59/18/11
s 53
f 45/14/7 39/13/6 42/73/52 49/78/57
s 54
f 49/78/57 42/73/52 38/20/13 46/19/12
s 55
f 9/33/26 37/69/48 43/72/51 12/34/27
s 56
f 12/39/27 43/74/51 39/13/6 10/16/9
s 57
f 44/24/17 17/23/16 19/48/32 47/75/54
s 58
f 47/79/54 19/43/32 16/15/8 45/14/7
s 59
f 23/52/37 51/80/59 37/69/48 9/33/26
