# Blender v2.80 (sub 75) OBJ File: 'MCOTMC_May2021_TavernKeeper_Source.blend'
# www.blender.org
mtllib wall.mtl
o wall_Cube.6070
v -1.574731 2.542622 0.137306
v 1.574732 2.542623 0.137306
v -1.574731 2.542622 -0.137306
v 1.574732 2.542623 -0.137306
v -1.574731 2.302081 0.137306
v 1.574732 2.302081 0.137306
v -1.574731 2.302081 -0.137306
v 1.574732 2.302081 -0.137306
v -1.469704 0.000000 0.101052
v -1.469704 2.636490 0.101052
v -1.469704 0.000000 -0.101053
v -1.469704 2.636490 -0.101053
v -1.267599 0.000000 0.101052
v -1.267599 2.636490 0.101052
v -1.267599 0.000000 -0.101053
v -1.267599 2.636490 -0.101053
v 1.267600 0.000000 0.101053
v 1.267600 2.636490 0.101053
v 1.267600 0.000000 -0.101053
v 1.267600 2.636490 -0.101053
v 1.469706 0.000000 0.101053
v 1.469706 2.636490 0.101053
v 1.469706 0.000000 -0.101053
v 1.469706 2.636490 -0.101053
v 0.999712 2.406996 0.062944
v 1.448852 1.957856 0.062944
v 0.999712 2.406996 -0.062943
v 1.448852 1.957856 -0.062944
v 0.910697 2.317980 0.062944
v 1.359837 1.868840 0.062944
v 0.910697 2.317980 -0.062944
v 1.359837 1.868840 -0.062944
v -1.448850 1.957856 0.062943
v -0.999711 2.406996 0.062943
v -1.448850 1.957856 -0.062944
v -0.999711 2.406996 -0.062944
v -1.359835 1.868840 0.062943
v -0.910695 2.317980 0.062943
v -1.359835 1.868840 -0.062944
v -0.910695 2.317980 -0.062944
v -0.407806 0.000000 -0.042031
v -0.407805 1.200714 0.003245
v -0.407806 0.000000 -0.129312
v -0.407805 1.208287 -0.084036
v 0.011701 0.000000 -0.042031
v 0.011701 1.200714 0.003245
v 0.011701 0.000000 -0.129312
v 0.011701 1.208287 -0.084036
v -0.007037 0.000000 -0.019321
v 0.058210 1.215279 -0.019321
v -0.007037 0.000000 -0.106746
v 0.058210 1.215279 -0.106746
v 0.411887 0.000000 -0.019321
v 0.477134 1.194031 -0.019321
v 0.411887 0.000000 -0.106746
v 0.477134 1.194031 -0.106746
v 0.526171 0.000000 -0.039702
v 0.483683 1.194086 0.000480
v 0.526171 0.000000 -0.127013
v 0.483683 1.200811 -0.086831
v 0.945430 0.000000 -0.039235
v 0.902942 1.207905 0.000947
v 0.945430 0.000000 -0.126547
v 0.902942 1.214630 -0.086365
v 0.966698 0.000000 -0.019321
v 0.969178 1.205884 -0.019321
v 0.966698 0.000000 -0.106746
v 0.969178 1.205884 -0.106746
v 1.386203 0.000000 -0.019321
v 1.388684 1.205077 -0.019321
v 1.386203 0.000000 -0.106746
v 1.388684 1.205077 -0.106746
v -0.882842 0.000000 -0.019321
v -0.840076 1.212090 -0.019321
v -0.882842 0.000000 -0.106746
v -0.840076 1.212090 -0.106746
v -0.463586 0.000000 -0.019321
v -0.420820 1.198163 -0.019321
v -0.463586 0.000000 -0.106746
v -0.420820 1.198163 -0.106746
v -1.289991 0.000000 0.008790
v -1.326517 1.202470 -0.047093
v -1.289991 0.000000 -0.078416
v -1.326517 1.193118 -0.134299
v -0.870667 0.000000 0.008232
v -0.907193 1.214335 -0.047651
v -0.870667 0.000000 -0.078974
v -0.907193 1.204983 -0.134856
v 0.950230 1.172140 -0.084036
v 0.950231 2.362594 -0.129312
v 0.950230 1.179713 0.003245
v 0.950231 2.370167 -0.042030
v 1.369736 1.172139 -0.084036
v 1.369737 2.362594 -0.129312
v 1.369736 1.179713 0.003245
v 1.369737 2.370167 -0.042030
v -1.380419 1.186396 -0.106746
v -1.315171 2.377159 -0.106746
v -1.380419 1.186396 -0.019321
v -1.315171 2.377159 -0.019321
v -0.961494 1.165147 -0.106746
v -0.896247 2.355910 -0.106746
v -0.961494 1.165147 -0.019321
v -0.896247 2.355910 -0.019321
v -0.847210 1.165796 -0.086365
v -0.889698 2.355966 -0.126547
v -0.847210 1.172522 0.000947
v -0.889698 2.362691 -0.039235
v -0.427951 1.179615 -0.086831
v -0.470438 2.369785 -0.127014
v -0.427951 1.186340 0.000480
v -0.470438 2.376510 -0.039702
v -0.406683 1.175349 -0.106746
v -0.404202 2.367764 -0.106746
v -0.406683 1.175349 -0.019321
v -0.404202 2.367764 -0.019321
v 0.012822 1.174542 -0.106746
v 0.015303 2.366956 -0.106746
v 0.012822 1.174542 -0.019321
v 0.015303 2.366956 -0.019321
v 0.475194 1.182264 -0.106746
v 0.517960 2.373971 -0.106746
v 0.475194 1.182264 -0.019321
v 0.517960 2.373971 -0.019321
v 0.894450 1.168336 -0.106746
v 0.937216 2.360043 -0.106746
v 0.894450 1.168336 -0.019321
v 0.937216 2.360043 -0.019321
v 0.068045 1.175444 -0.134856
v 0.031519 2.364350 -0.078974
v 0.068045 1.166092 -0.047651
v 0.031519 2.354998 0.008232
v 0.487369 1.187309 -0.134298
v 0.450843 2.376215 -0.078416
v 0.487369 1.177957 -0.047093
v 0.450843 2.366863 0.008790
v -1.343824 1.070070 0.057110
v -1.343824 1.310356 0.057110
v -1.384273 1.070070 -0.065787
v -1.384273 1.310356 -0.065787
v 1.343826 1.070070 0.057110
v 1.343826 1.310356 0.057110
v 1.384275 1.070070 -0.065786
v 1.384275 1.310356 -0.065786
v -1.384273 1.310356 -0.164556
v -1.384273 1.070070 -0.164556
v 1.384275 1.070070 -0.164555
v 1.384275 1.310356 -0.164555
v 1.384275 0.000000 -0.065786
v -1.384273 0.000000 -0.065787
v -1.384273 2.456967 -0.065787
v 1.384275 2.456967 -0.065786
v 1.384275 0.000000 -0.164555
v -1.384273 0.000000 -0.164556
v -1.384273 2.456967 -0.164556
v 1.384275 2.456967 -0.164555
vt 0.375000 0.000000
vt 0.625000 0.000000
vt 0.625000 0.250000
vt 0.375000 0.250000
vt 0.625000 0.500000
vt 0.375000 0.500000
vt 0.625000 0.750000
vt 0.375000 0.750000
vt 0.625000 1.000000
vt 0.375000 1.000000
vt 0.125000 0.500000
vt 0.125000 0.750000
vt 0.875000 0.500000
vt 0.875000 0.750000
vt 0.375000 0.000000
vt 0.625000 0.000000
vt 0.625000 0.250000
vt 0.375000 0.250000
vt 0.625000 0.500000
vt 0.375000 0.500000
vt 0.625000 0.750000
vt 0.375000 0.750000
vt 0.625000 1.000000
vt 0.375000 1.000000
vt 0.125000 0.500000
vt 0.125000 0.750000
vt 0.875000 0.500000
vt 0.875000 0.750000
vt 0.375000 0.000000
vt 0.625000 0.000000
vt 0.625000 0.250000
vt 0.375000 0.250000
vt 0.625000 0.500000
vt 0.375000 0.500000
vt 0.625000 0.750000
vt 0.375000 0.750000
vt 0.625000 1.000000
vt 0.375000 1.000000
vt 0.125000 0.500000
vt 0.125000 0.750000
vt 0.875000 0.500000
vt 0.875000 0.750000
vt 0.375000 0.000000
vt 0.625000 0.000000
vt 0.625000 0.250000
vt 0.375000 0.250000
vt 0.625000 0.500000
vt 0.375000 0.500000
vt 0.625000 0.750000
vt 0.375000 0.750000
vt 0.625000 1.000000
vt 0.375000 1.000000
vt 0.125000 0.500000
vt 0.125000 0.750000
vt 0.875000 0.500000
vt 0.875000 0.750000
vt 0.375000 0.000000
vt 0.625000 0.000000
vt 0.625000 0.250000
vt 0.375000 0.250000
vt 0.625000 0.500000
vt 0.375000 0.500000
vt 0.625000 0.750000
vt 0.375000 0.750000
vt 0.625000 1.000000
vt 0.375000 1.000000
vt 0.125000 0.500000
vt 0.125000 0.750000
vt 0.875000 0.500000
vt 0.875000 0.750000
vt 0.375000 0.000000
vt 0.625000 0.000000
vt 0.625000 0.250000
vt 0.375000 0.250000
vt 0.625000 0.500000
vt 0.375000 0.500000
vt 0.625000 0.750000
vt 0.375000 0.750000
vt 0.625000 1.000000
vt 0.375000 1.000000
vt 0.125000 0.500000
vt 0.125000 0.750000
vt 0.875000 0.500000
vt 0.875000 0.750000
vt 0.375000 0.000000
vt 0.625000 0.000000
vt 0.625000 0.250000
vt 0.375000 0.250000
vt 0.625000 0.500000
vt 0.375000 0.500000
vt 0.625000 0.750000
vt 0.375000 0.750000
vt 0.625000 1.000000
vt 0.375000 1.000000
vt 0.125000 0.500000
vt 0.125000 0.750000
vt 0.875000 0.500000
vt 0.875000 0.750000
vt 0.375000 0.000000
vt 0.625000 0.000000
vt 0.625000 0.250000
vt 0.375000 0.250000
vt 0.625000 0.500000
vt 0.375000 0.500000
vt 0.625000 0.750000
vt 0.375000 0.750000
vt 0.625000 1.000000
vt 0.375000 1.000000
vt 0.125000 0.500000
vt 0.125000 0.750000
vt 0.875000 0.500000
vt 0.875000 0.750000
vt 0.375000 0.000000
vt 0.625000 0.000000
vt 0.625000 0.250000
vt 0.375000 0.250000
vt 0.625000 0.500000
vt 0.375000 0.500000
vt 0.625000 0.750000
vt 0.375000 0.750000
vt 0.625000 1.000000
vt 0.375000 1.000000
vt 0.125000 0.500000
vt 0.125000 0.750000
vt 0.875000 0.500000
vt 0.875000 0.750000
vt 0.375000 0.000000
vt 0.625000 0.000000
vt 0.625000 0.250000
vt 0.375000 0.250000
vt 0.625000 0.500000
vt 0.375000 0.500000
vt 0.625000 0.750000
vt 0.375000 0.750000
vt 0.625000 1.000000
vt 0.375000 1.000000
vt 0.125000 0.500000
vt 0.125000 0.750000
vt 0.875000 0.500000
vt 0.875000 0.750000
vt 0.375000 0.000000
vt 0.625000 0.000000
vt 0.625000 0.250000
vt 0.375000 0.250000
vt 0.625000 0.500000
vt 0.375000 0.500000
vt 0.625000 0.750000
vt 0.375000 0.750000
vt 0.625000 1.000000
vt 0.375000 1.000000
vt 0.125000 0.500000
vt 0.125000 0.750000
vt 0.875000 0.500000
vt 0.875000 0.750000
vt 0.375000 0.000000
vt 0.375000 0.250000
vt 0.625000 0.250000
vt 0.625000 0.000000
vt 0.375000 0.500000
vt 0.625000 0.500000
vt 0.375000 0.750000
vt 0.625000 0.750000
vt 0.375000 1.000000
vt 0.625000 1.000000
vt 0.125000 0.500000
vt 0.125000 0.750000
vt 0.875000 0.750000
vt 0.875000 0.500000
vt 0.375000 0.000000
vt 0.375000 0.250000
vt 0.625000 0.250000
vt 0.625000 0.000000
vt 0.375000 0.500000
vt 0.625000 0.500000
vt 0.375000 0.750000
vt 0.625000 0.750000
vt 0.375000 1.000000
vt 0.625000 1.000000
vt 0.125000 0.500000
vt 0.125000 0.750000
vt 0.875000 0.750000
vt 0.875000 0.500000
vt 0.375000 0.000000
vt 0.375000 0.250000
vt 0.625000 0.250000
vt 0.625000 0.000000
vt 0.375000 0.500000
vt 0.625000 0.500000
vt 0.375000 0.750000
vt 0.625000 0.750000
vt 0.375000 1.000000
vt 0.625000 1.000000
vt 0.125000 0.500000
vt 0.125000 0.750000
vt 0.875000 0.750000
vt 0.875000 0.500000
vt 0.375000 0.000000
vt 0.375000 0.250000
vt 0.625000 0.250000
vt 0.625000 0.000000
vt 0.375000 0.500000
vt 0.625000 0.500000
vt 0.375000 0.750000
vt 0.625000 0.750000
vt 0.375000 1.000000
vt 0.625000 1.000000
vt 0.125000 0.500000
vt 0.125000 0.750000
vt 0.875000 0.750000
vt 0.875000 0.500000
vt 0.375000 0.000000
vt 0.375000 0.250000
vt 0.625000 0.250000
vt 0.625000 0.000000
vt 0.375000 0.500000
vt 0.625000 0.500000
vt 0.375000 0.750000
vt 0.625000 0.750000
vt 0.375000 1.000000
vt 0.625000 1.000000
vt 0.125000 0.500000
vt 0.125000 0.750000
vt 0.875000 0.750000
vt 0.875000 0.500000
vt 0.375000 0.000000
vt 0.375000 0.250000
vt 0.625000 0.250000
vt 0.625000 0.000000
vt 0.375000 0.500000
vt 0.625000 0.500000
vt 0.375000 0.750000
vt 0.625000 0.750000
vt 0.375000 1.000000
vt 0.625000 1.000000
vt 0.125000 0.500000
vt 0.125000 0.750000
vt 0.875000 0.750000
vt 0.875000 0.500000
vt 0.375000 0.000000
vt 0.625000 0.000000
vt 0.625000 0.250000
vt 0.375000 0.250000
vt 0.375000 0.250000
vt 0.375000 0.500000
vt 0.375000 0.500000
vt 0.375000 0.250000
vt 0.375000 0.500000
vt 0.625000 0.500000
vt 0.625000 0.750000
vt 0.375000 0.750000
vt 0.625000 1.000000
vt 0.375000 1.000000
vt 0.125000 0.500000
vt 0.125000 0.750000
vt 0.875000 0.500000
vt 0.875000 0.750000
vt 0.625000 0.250000
vt 0.625000 0.500000
vt 0.125000 0.500000
vt 0.375000 0.500000
vt 0.125000 0.500000
vt 0.875000 0.500000
vt 0.625000 0.500000
vt 0.625000 0.500000
vt 0.875000 0.500000
vt 0.375000 0.250000
vt 0.625000 0.250000
vt 0.625000 0.250000
vn -0.0000 1.0000 0.0000
vn 0.0000 0.0000 -1.0000
vn 0.0000 -1.0000 0.0000
vn -0.0000 0.0000 1.0000
vn -1.0000 0.0000 0.0000
vn 1.0000 0.0000 0.0000
vn 0.7071 0.7071 0.0000
vn -0.7071 -0.7071 0.0000
vn -0.7071 0.7071 0.0000
vn 0.7071 -0.7071 0.0000
vn 0.0000 0.0374 -0.9993
vn -0.0000 -0.0377 0.9993
vn -0.0000 0.9963 0.0864
vn -0.9986 0.0536 -0.0000
vn 0.9985 -0.0546 0.0000
vn 0.0507 0.9987 0.0000
vn -0.9994 -0.0354 -0.0014
vn 0.0006 0.0333 -0.9994
vn 0.9994 0.0350 0.0013
vn -0.0006 -0.0335 0.9994
vn -0.0329 0.9965 0.0768
vn -1.0000 0.0021 0.0000
vn 1.0000 -0.0021 0.0000
vn 0.0019 1.0000 0.0000
vn -0.9994 0.0353 0.0000
vn 0.9994 -0.0357 0.0000
vn 0.0332 0.9994 0.0000
vn -0.9995 -0.0304 0.0016
vn -0.0007 -0.0466 -0.9989
vn 0.9995 0.0301 -0.0016
vn 0.0007 0.0462 0.9989
vn -0.0283 0.9939 -0.1066
vn -0.0000 0.0380 0.9993
vn 0.0000 -0.0380 -0.9993
vn -0.0000 -0.9963 0.0864
vn 0.0000 0.9963 -0.0864
vn -0.9985 0.0547 0.0000
vn 0.9985 -0.0547 0.0000
vn -0.0507 -0.9987 0.0000
vn -0.9994 -0.0356 0.0027
vn -0.0000 0.0337 0.9994
vn 0.9994 0.0356 -0.0027
vn 0.0000 -0.0337 -0.9994
vn 0.0329 -0.9965 0.0768
vn -0.0329 0.9965 -0.0768
vn -0.0019 -1.0000 0.0000
vn -0.9994 0.0359 0.0000
vn 0.9994 -0.0359 0.0000
vn -0.0332 -0.9994 0.0000
vn -0.9995 -0.0306 -0.0033
vn -0.0000 -0.0470 0.9989
vn 0.9995 0.0306 0.0033
vn 0.0000 0.0470 -0.9989
vn 0.0283 -0.9939 -0.1066
vn -0.0283 0.9939 0.1066
vn -0.9499 0.0000 0.3126
vn 0.9499 0.0000 0.3126
usemtl WoodDark
s off
f 1/1/1 2/2/1 4/3/1 3/4/1
f 3/4/2 4/3/2 8/5/2 7/6/2
f 7/6/3 8/5/3 6/7/3 5/8/3
f 5/8/4 6/7/4 2/9/4 1/10/4
f 3/11/5 7/6/5 5/8/5 1/12/5
f 8/5/6 4/13/6 2/14/6 6/7/6
f 9/15/5 10/16/5 12/17/5 11/18/5
f 11/18/2 12/17/2 16/19/2 15/20/2
f 15/20/6 16/19/6 14/21/6 13/22/6
f 13/22/4 14/21/4 10/23/4 9/24/4
f 11/25/3 15/20/3 13/22/3 9/26/3
f 16/19/1 12/27/1 10/28/1 14/21/1
f 17/29/5 18/30/5 20/31/5 19/32/5
f 19/32/2 20/31/2 24/33/2 23/34/2
f 23/34/6 24/33/6 22/35/6 21/36/6
f 21/36/4 22/35/4 18/37/4 17/38/4
f 19/39/3 23/34/3 21/36/3 17/40/3
f 24/33/1 20/41/1 18/42/1 22/35/1
f 25/43/7 26/44/7 28/45/7 27/46/7
f 27/46/2 28/45/2 32/47/2 31/48/2
f 31/48/8 32/47/8 30/49/8 29/50/8
f 29/50/4 30/49/4 26/51/4 25/52/4
f 27/53/9 31/48/9 29/50/9 25/54/9
f 32/47/10 28/55/10 26/56/10 30/49/10
f 33/57/9 34/58/9 36/59/9 35/60/9
f 35/60/2 36/59/2 40/61/2 39/62/2
f 39/62/10 40/61/10 38/63/10 37/64/10
f 37/64/4 38/63/4 34/65/4 33/66/4
f 35/67/8 39/62/8 37/64/8 33/68/8
f 40/61/7 36/69/7 34/70/7 38/63/7
f 41/71/5 42/72/5 44/73/5 43/74/5
f 43/74/11 44/73/11 48/75/11 47/76/11
f 47/76/6 48/75/6 46/77/6 45/78/6
f 45/78/12 46/77/12 42/79/12 41/80/12
f 43/81/3 47/76/3 45/78/3 41/82/3
f 48/75/13 44/83/13 42/84/13 46/77/13
f 49/85/14 50/86/14 52/87/14 51/88/14
f 51/88/2 52/87/2 56/89/2 55/90/2
f 55/90/15 56/89/15 54/91/15 53/92/15
f 53/92/4 54/91/4 50/93/4 49/94/4
f 51/95/3 55/90/3 53/92/3 49/96/3
f 56/89/16 52/97/16 50/98/16 54/91/16
f 57/99/17 58/100/17 60/101/17 59/102/17
f 59/102/18 60/101/18 64/103/18 63/104/18
f 63/104/19 64/103/19 62/105/19 61/106/19
f 61/106/20 62/105/20 58/107/20 57/108/20
f 59/109/3 63/104/3 61/106/3 57/110/3
f 64/103/21 60/111/21 58/112/21 62/105/21
f 65/113/22 66/114/22 68/115/22 67/116/22
f 67/116/2 68/115/2 72/117/2 71/118/2
f 71/118/23 72/117/23 70/119/23 69/120/23
f 69/120/4 70/119/4 66/121/4 65/122/4
f 67/123/3 71/118/3 69/120/3 65/124/3
f 72/117/24 68/125/24 66/126/24 70/119/24
f 73/127/25 74/128/25 76/129/25 75/130/25
f 75/130/2 76/129/2 80/131/2 79/132/2
f 79/132/26 80/131/26 78/133/26 77/134/26
f 77/134/4 78/133/4 74/135/4 73/136/4
f 75/137/3 79/132/3 77/134/3 73/138/3
f 80/131/27 76/139/27 74/140/27 78/133/27
f 81/141/28 82/142/28 84/143/28 83/144/28
f 83/144/29 84/143/29 88/145/29 87/146/29
f 87/146/30 88/145/30 86/147/30 85/148/30
f 85/148/31 86/147/31 82/149/31 81/150/31
f 83/151/3 87/146/3 85/148/3 81/152/3
f 88/145/32 84/153/32 82/154/32 86/147/32
f 89/155/5 91/156/5 92/157/5 90/158/5
f 91/156/33 95/159/33 96/160/33 92/157/33
f 95/159/6 93/161/6 94/162/6 96/160/6
f 93/161/34 89/163/34 90/164/34 94/162/34
f 91/165/35 89/166/35 93/161/35 95/159/35
f 96/160/36 94/162/36 90/167/36 92/168/36
f 97/169/37 99/170/37 100/171/37 98/172/37
f 99/170/4 103/173/4 104/174/4 100/171/4
f 103/173/38 101/175/38 102/176/38 104/174/38
f 101/175/2 97/177/2 98/178/2 102/176/2
f 99/179/39 97/180/39 101/175/39 103/173/39
f 104/174/16 102/176/16 98/181/16 100/182/16
f 105/183/40 107/184/40 108/185/40 106/186/40
f 107/184/41 111/187/41 112/188/41 108/185/41
f 111/187/42 109/189/42 110/190/42 112/188/42
f 109/189/43 105/191/43 106/192/43 110/190/43
f 107/193/44 105/194/44 109/189/44 111/187/44
f 112/188/45 110/190/45 106/195/45 108/196/45
f 113/197/22 115/198/22 116/199/22 114/200/22
f 115/198/4 119/201/4 120/202/4 116/199/4
f 119/201/23 117/203/23 118/204/23 120/202/23
f 117/203/2 113/205/2 114/206/2 118/204/2
f 115/207/46 113/208/46 117/203/46 119/201/46
f 120/202/24 118/204/24 114/209/24 116/210/24
f 121/211/47 123/212/47 124/213/47 122/214/47
f 123/212/4 127/215/4 128/216/4 124/213/4
f 127/215/48 125/217/48 126/218/48 128/216/48
f 125/217/2 121/219/2 122/220/2 126/218/2
f 123/221/49 121/222/49 125/217/49 127/215/49
f 128/216/27 126/218/27 122/223/27 124/224/27
f 129/225/50 131/226/50 132/227/50 130/228/50
f 131/226/51 135/229/51 136/230/51 132/227/51
f 135/229/52 133/231/52 134/232/52 136/230/52
f 133/231/53 129/233/53 130/234/53 134/232/53
f 131/235/54 129/236/54 133/231/54 135/229/54
f 136/230/55 134/232/55 130/237/55 132/238/55
f 137/239/56 138/240/56 140/241/56 139/242/56
f 146/243/2 147/244/2 153/245/2 154/246/2
f 143/247/57 144/248/57 142/249/57 141/250/57
f 141/250/4 142/249/4 138/251/4 137/252/4
f 139/253/3 143/247/3 141/250/3 137/254/3
f 144/248/1 140/255/1 138/256/1 142/249/1
f 146/243/2 145/257/2 148/258/2 147/244/2
f 143/247/4 139/253/4 150/259/4 149/260/4
f 139/242/5 140/241/5 145/257/5 146/243/5
f 144/248/6 143/247/6 147/244/6 148/258/6
f 149/260/3 150/259/3 154/261/3 153/245/3
f 151/262/1 152/263/1 156/264/1 155/265/1
f 144/248/6 148/258/6 156/264/6 152/263/6
f 139/242/5 146/243/5 154/246/5 150/266/5
f 140/255/4 144/248/4 152/263/4 151/262/4
f 148/258/2 145/257/2 155/267/2 156/264/2
f 145/257/5 140/241/5 151/268/5 155/267/5
f 147/244/6 143/247/6 149/260/6 153/245/6
