# Blender v2.80 (sub 75) OBJ File: 'MCOTMC_March2021_Blacksmith_Source.blend'
# www.blender.org
mtllib thongs_left.mtl
o thongs_left_Cylinder.017
v -0.007602 0.188569 -0.027217
v -0.007602 0.188569 0.027216
v -0.053799 0.177252 -0.027217
v -0.053799 0.177252 0.027216
v -0.087618 0.146334 -0.027217
v -0.087618 0.146334 0.027217
v -0.099996 0.104098 -0.027217
v -0.099996 0.104098 0.027217
v -0.087618 0.077143 -0.027217
v -0.087618 0.077143 0.027217
v -0.053799 0.048262 -0.027217
v -0.053799 0.048262 0.027217
v -0.015475 0.035082 -0.027217
v -0.015475 0.035082 0.027217
v 0.038816 0.009789 -0.027217
v 0.038816 0.009789 0.027217
v 0.027816 -0.333054 0.010021
v 0.027816 -0.333054 -0.010021
v 0.064893 -0.332916 0.010021
v 0.064893 -0.332916 -0.010021
v -0.007602 0.217342 -0.027217
v -0.007602 0.237326 -0.008914
v -0.007602 0.231472 -0.021856
v -0.064148 0.203442 -0.027217
v -0.071365 0.221706 -0.008911
v -0.069251 0.216356 -0.021855
v -0.071365 0.221706 0.008911
v -0.064148 0.203442 0.027216
v -0.069251 0.216356 0.021855
v -0.007602 0.237326 0.008913
v -0.007602 0.217342 0.027216
v -0.007602 0.231472 0.021856
v -0.102735 0.154313 -0.027217
v -0.118042 0.162393 -0.008903
v -0.113559 0.160026 -0.021853
v -0.118042 0.162392 0.008902
v -0.102735 0.154313 0.027217
v -0.113559 0.160026 0.021852
v -0.117494 0.104098 -0.027217
v -0.135127 0.104098 -0.008888
v -0.129962 0.104098 -0.021848
v -0.135127 0.104098 0.008888
v -0.117494 0.104098 0.027217
v -0.129962 0.104098 0.021848
v -0.104615 0.059635 -0.027217
v -0.118042 0.045804 -0.008866
v -0.114109 0.049855 -0.021842
v -0.118042 0.045804 0.008866
v -0.104615 0.059635 0.027217
v -0.114109 0.049855 0.021842
v -0.063924 0.022249 -0.027217
v -0.071365 0.003130 -0.008835
v -0.069185 0.008729 -0.021833
v -0.071365 0.003130 0.008835
v -0.063924 0.022249 0.027217
v -0.069185 0.008729 0.021833
v -0.020323 0.006859 -0.027217
v -0.023844 -0.013641 -0.000000
v -0.022812 -0.007637 -0.021820
v -0.020323 0.006859 0.027217
v -0.022812 -0.007637 0.021820
v 0.009568 -0.025268 0.019500
v 0.009568 -0.025267 -0.019500
v 0.109136 -0.091802 -0.013108
v 0.101111 -0.057866 -0.015180
v 0.101104 -0.057854 0.015239
v 0.109136 -0.091802 0.013108
v 0.052012 -0.060090 0.000029
v 0.062332 -0.091804 0.011430
v 0.053627 -0.058979 0.013623
v 0.075750 -0.091802 0.013132
v 0.065977 -0.057735 0.014335
v 0.075750 -0.091802 -0.013132
v 0.066030 -0.057834 -0.014271
v 0.062332 -0.091802 -0.011431
v 0.053158 -0.059287 -0.012687
v 0.027816 -0.513229 0.010021
v 0.027816 -0.513229 -0.010021
v 0.064893 -0.513091 0.010021
v 0.064893 -0.513091 -0.010021
vt 0.418125 0.490000
vt 0.301264 0.481521
vt 0.250000 0.462902
vt 0.250000 0.423885
vt 0.836942 0.400588
vt 0.785634 0.453354
vt 0.709173 0.479808
vt 0.581875 0.490000
vt 0.900589 0.336942
vt 0.929039 0.353368
vt 0.856418 0.434322
vt 0.836942 0.400588
vt 0.923885 0.250000
vt 0.956816 0.250000
vt 0.900588 0.163058
vt 0.932576 0.144589
vt 0.836942 0.099411
vt 0.855996 0.066409
vt 0.750000 0.076115
vt 0.750000 0.037817
vt 1.000000 0.668125
vt 0.916667 0.668149
vt 0.916667 0.831851
vt 1.000000 0.831875
vt 0.336942 0.400588
vt 0.356418 0.434322
vt 0.429039 0.353368
vt 0.400589 0.336942
vt 0.833333 0.668225
vt 0.750000 0.668359
vt 0.750000 0.831641
vt 0.833333 0.831775
vt 0.456816 0.250000
vt 0.423885 0.250000
vt 0.666667 0.668560
vt 0.666667 0.831440
vt 0.432576 0.144590
vt 0.400589 0.163058
vt 0.583333 0.668845
vt 0.583333 0.831155
vt 0.355996 0.066409
vt 0.336942 0.099411
vt 0.500000 0.830762
vt 0.250000 0.037817
vt 0.250000 0.076115
vt 0.250000 0.076115
vt 0.750000 0.076115
vt 0.836942 0.099411
vt 0.336942 0.099411
vt 0.336942 0.099411
vt 0.836942 0.099411
vt 0.900588 0.163058
vt 0.400589 0.163058
vt 0.400589 0.163058
vt 0.900588 0.163058
vt 0.923885 0.250000
vt 0.423885 0.250000
vt 0.423885 0.250000
vt 0.923885 0.250000
vt 0.900589 0.336942
vt 0.400589 0.336942
vt 0.400589 0.336942
vt 0.900589 0.336942
vt 0.836942 0.400588
vt 0.336942 0.400588
vt 0.336942 0.400588
vt 0.750000 0.423885
vt 0.250000 0.423885
vt 0.750000 0.076115
vt 0.750000 0.027908
vt 0.500000 0.747425
vt 0.500000 1.012092
vt 0.500000 1.000000
vt 0.250000 0.027908
vt 0.250000 0.076115
vt 0.336942 0.099411
vt 0.250000 0.076115
vt 0.500000 0.752575
vt 0.500000 0.669238
vt 0.500000 0.500000
vt 0.500000 0.506150
vt 0.250000 0.029487
vt 0.250000 0.010000
vt 0.250000 0.010000
vt 0.250000 0.076115
vt 0.250000 0.076115
vt 0.750000 0.076115
vt 0.750000 0.076115
vt 0.750000 0.010000
vt 0.750000 0.010000
vt 0.750000 0.029487
vt 0.750000 0.076115
vt 0.750000 0.029019
vt 0.250000 0.010000
vt 0.250000 0.076115
vt 0.250000 0.029015
vt 0.250000 0.076115
vt 0.336942 0.099411
vt 0.250000 0.076115
vt 0.750000 0.009719
vt 0.750000 0.010000
vt 0.750000 0.462902
vt 0.868574 0.458228
vt 0.752546 0.489318
vt 0.998232 0.500000
vt 0.917657 0.500000
vt 0.252546 0.489318
vt 0.368574 0.458228
vt 0.917657 1.000000
vt 0.998232 1.000000
vt 0.956784 0.371063
vt 0.873371 0.454475
vt 0.913469 0.500000
vt 0.834341 0.500000
vt 0.373371 0.454475
vt 0.456784 0.371063
vt 0.834341 1.000000
vt 0.913469 1.000000
vt 0.989231 0.252869
vt 0.958381 0.368005
vt 0.831948 0.500000
vt 0.751993 0.500000
vt 0.458381 0.368005
vt 0.489231 0.252869
vt 0.751993 1.000000
vt 0.831948 1.000000
vt 0.959318 0.135495
vt 0.989231 0.247131
vt 0.748007 0.500000
vt 0.670482 0.500000
vt 0.489231 0.247131
vt 0.459318 0.135495
vt 0.670482 1.000000
vt 0.748007 1.000000
vt 0.873014 0.045168
vt 0.957611 0.129765
vt 0.666444 0.500000
vt 0.586193 0.500000
vt 0.457611 0.129765
vt 0.373014 0.045168
vt 0.586193 1.000000
vt 0.666444 1.000000
vt 0.752442 0.010654
vt 0.869544 0.042032
vt 0.583017 0.500000
vt 0.501696 0.500000
vt 0.369544 0.042032
vt 0.252442 0.010654
vt 0.501696 1.000000
vt 0.583017 1.000000
vt 0.500000 0.776410
vt 0.500000 0.500000
vt 0.500000 1.000000
vt 0.500000 0.568764
vt 0.500000 0.500000
vt 0.500000 0.500000
vt 0.250000 0.010512
vt 0.750000 0.423885
vt 0.250000 0.010000
vt 0.250000 0.010717
vt 0.336942 0.099411
vt 0.250000 0.076115
vt 0.500000 1.000000
vt 0.750000 0.010000
vt 0.750000 0.019312
vt 0.336942 0.099411
vt 0.250000 0.076115
vt 0.500000 0.500000
vt 0.500000 1.000000
vt 0.750000 0.010000
vt 0.750000 0.076115
vt 0.336942 0.099411
vt 0.250000 0.076115
vt 0.500000 0.500000
vt 0.500000 1.000000
vn 1.0000 0.0000 0.0000
vn -0.0000 0.0000 -1.0000
vn -0.2036 0.1046 -0.9734
vn -0.1324 0.1833 -0.9741
vn -0.2367 0.0001 -0.9716
vn -0.1976 -0.1096 -0.9741
vn -0.1079 -0.1703 -0.9795
vn 0.0027 -0.0535 -0.9986
vn -0.0469 -0.1851 -0.9816
vn -0.2332 0.9518 -0.1990
vn -0.5254 0.8279 -0.1966
vn -0.5254 0.8279 0.1966
vn -0.2332 0.9518 0.1990
vn 0.0000 0.0000 1.0000
vn -0.1324 0.1833 0.9741
vn -0.2036 0.1046 0.9734
vn -0.0507 0.2063 0.9772
vn -0.8741 0.4507 -0.1813
vn -0.9833 0.0000 -0.1822
vn -0.9833 0.0000 0.1822
vn -0.8741 0.4507 0.1813
vn -0.2367 0.0001 0.9716
vn -0.8290 -0.5250 -0.1928
vn -0.8290 -0.5250 0.1928
vn -0.1976 -0.1096 0.9741
vn -0.4932 -0.8486 -0.1914
vn -0.4932 -0.8486 0.1914
vn -0.1079 -0.1703 0.9795
vn -0.4301 -0.9028 0.0024
vn -0.0447 -0.1813 0.9824
vn 0.0027 -0.0535 0.9986
vn 0.3743 0.9273 0.0000
vn 0.4960 0.8683 0.0000
vn 0.7977 0.6030 0.0000
vn 0.9088 0.4173 0.0000
vn 0.9596 -0.2813 -0.0000
vn 0.8485 -0.5292 -0.0000
vn 0.4710 -0.8821 -0.0000
vn 0.2379 -0.9713 -0.0000
vn -0.0095 -0.1623 -0.9867
vn -0.0634 -0.2511 -0.9659
vn -0.5332 -0.8460 0.0055
vn -0.5210 -0.8285 0.2054
vn -0.3983 -0.8756 0.2734
vn -0.0550 -0.2359 0.9702
vn -0.0097 -0.1621 0.9867
vn 0.5833 0.8123 -0.0000
vn -0.3992 -0.8763 -0.2697
vn -0.5237 -0.8289 -0.1964
vn -0.0325 -0.0359 0.9988
vn -0.0558 -0.0430 0.9975
vn -0.0095 -0.0042 0.9999
vn -0.0106 -0.0047 0.9999
vn -0.0165 -0.0302 0.9994
vn -0.0165 -0.0294 -0.9994
vn -0.0106 -0.0047 -0.9999
vn -0.0095 -0.0042 -0.9999
vn -0.0718 -0.0405 -0.9966
vn -0.0390 -0.0343 -0.9987
vn -0.0165 -0.0974 -0.9951
vn -0.0546 -0.1434 -0.9882
vn -0.0413 -0.1356 0.9899
vn -0.0166 -0.0983 0.9950
vn 0.8757 0.4828 0.0000
vn 0.8759 0.4826 0.0000
vn -0.0982 -0.2150 -0.9717
vn -0.1146 -0.3306 -0.9368
vn -0.0507 0.2063 -0.9772
vn -0.1883 0.3122 -0.9312
vn -0.0867 0.3530 -0.9316
vn -0.2179 0.8891 -0.4025
vn -0.5110 0.7617 -0.3983
vn -0.0867 0.3530 0.9316
vn -0.1883 0.3122 0.9312
vn -0.5110 0.7617 0.3983
vn -0.2179 0.8891 0.4025
vn -0.3572 0.1845 -0.9156
vn -0.8281 0.4263 -0.3640
vn -0.3572 0.1845 0.9156
vn -0.8281 0.4263 0.3640
vn -0.3961 0.0000 -0.9182
vn -0.9292 0.0001 -0.3696
vn -0.3961 0.0000 0.9182
vn -0.9292 0.0001 0.3696
vn -0.3112 -0.2078 -0.9274
vn -0.7910 -0.4734 -0.3876
vn -0.3112 -0.2078 0.9274
vn -0.7910 -0.4734 0.3876
vn -0.1753 -0.3042 -0.9364
vn -0.4700 -0.8008 -0.3712
vn -0.1753 -0.3042 0.9364
vn -0.4700 -0.8008 0.3712
vn -0.1062 -0.3160 0.9428
vn -0.9604 -0.2782 0.0130
vn -0.9963 -0.0851 -0.0124
vn -0.9962 -0.0855 0.0172
vn -0.0560 -0.1658 0.9846
vn 0.9995 0.0302 0.0000
vn 0.9995 0.0301 0.0000
vn -0.9555 -0.2624 0.1350
vn -0.9562 -0.2738 -0.1035
vn 0.9959 -0.0910 0.0000
vn -0.9975 0.0711 0.0000
vn 0.0037 -1.0000 0.0000
vn -1.0000 0.0000 -0.0000
usemtl Stone2
s 1
f 30/1/1 32/2/1 31/3/1 2/4/1 1/5/1 21/6/1 23/7/1 22/8/1
s 2
f 5/9/2 33/10/3 24/11/4 3/12/2
s 3
f 7/13/2 39/14/5 33/10/3 5/9/2
s 4
f 9/15/2 45/16/6 39/14/5 7/13/2
s 5
f 11/17/2 51/18/7 45/16/6 9/15/2
s 6
f 13/19/8 57/20/9 51/18/7 11/17/2
s 7
f 22/21/10 25/22/11 27/23/12 30/24/13
s 8
f 4/25/14 28/26/15 37/27/16 6/28/14
s 9
f 2/4/14 31/3/17 28/26/15 4/25/14
s 10
f 34/29/18 40/30/19 42/31/20 36/32/21
s 11
f 6/28/14 37/27/16 43/33/22 8/34/14
s 12
f 40/30/19 46/35/23 48/36/24 42/31/20
s 13
f 8/34/14 43/33/22 49/37/25 10/38/14
s 14
f 46/35/23 52/39/26 54/40/27 48/36/24
s 15
f 10/38/14 49/37/25 55/41/28 12/42/14
s 16
f 52/39/26 58/43/29 54/40/27
s 17
f 12/42/14 55/41/28 60/44/30 14/45/31
s 18
f 13/46/32 11/47/33 12/48/33 14/49/32
s 19
f 11/50/33 9/51/34 10/52/34 12/53/33
s 20
f 9/54/34 7/55/35 8/56/35 10/57/34
s 21
f 7/58/36 5/59/37 6/60/37 8/61/36
s 22
f 5/62/37 3/63/38 4/64/38 6/65/37
s 23
f 3/66/38 1/5/39 2/67/39 4/68/38
s 24
f 25/22/11 34/29/18 36/32/21 27/23/12
s 25
f 13/19/8 15/69/40 63/70/41 57/20/9
s 26
f 58/43/29 68/71/42 70/72/43 61/73/44
s 27
f 60/44/30 62/74/45 16/75/46 14/45/31
s 28
f 14/49/32 16/76/47 15/77/47 13/46/32
s 29
f 68/78/42 58/79/29 59/80/48 76/81/49
s 30
f 71/82/50 69/83/51 17/84/52 19/85/53 67/86/54
s 31
f 64/87/55 20/88/56 18/89/57 75/90/58 73/91/59
s 32
f 15/69/40 65/92/60 74/93/61 63/70/41
s 33
f 19/85/53 17/84/52 77/94/14 79/95/14
s 34
f 62/74/45 72/96/62 66/97/63 16/75/46
s 35
f 16/76/47 66/98/64 65/99/65 15/77/47
s 36
f 76/100/66 59/101/67 57/20/9 63/70/41
s 37
f 21/102/68 24/11/4 26/103/69 23/104/70
s 38
f 23/105/71 26/106/72 25/22/11 22/21/10
s 39
f 28/26/15 31/3/17 32/107/73 29/108/74
s 40
f 29/109/75 32/110/76 30/24/13 27/23/12
s 41
f 24/11/4 33/10/3 35/111/77 26/112/69
s 42
f 26/113/72 35/114/78 34/29/18 25/22/11
s 43
f 37/27/16 28/26/15 29/115/74 38/116/79
s 44
f 38/117/80 29/118/75 27/23/12 36/32/21
s 45
f 33/10/3 39/14/5 41/119/81 35/120/77
s 46
f 35/121/78 41/122/82 40/30/19 34/29/18
s 47
f 43/33/22 37/27/16 38/123/79 44/124/83
s 48
f 44/125/84 38/126/80 36/32/21 42/31/20
s 49
f 39/14/5 45/16/6 47/127/85 41/128/81
s 50
f 41/129/82 47/130/86 46/35/23 40/30/19
s 51
f 49/37/25 43/33/22 44/131/83 50/132/87
s 52
f 50/133/88 44/134/84 42/31/20 48/36/24
s 53
f 45/16/6 51/18/7 53/135/89 47/136/85
s 54
f 47/137/86 53/138/90 52/39/26 46/35/23
s 55
f 55/41/28 49/37/25 50/139/87 56/140/91
s 56
f 56/141/92 50/142/88 48/36/24 54/40/27
s 57
f 51/18/7 57/20/9 59/143/67 53/144/89
s 58
f 53/145/90 59/146/48 58/79/29 52/39/26
s 59
f 60/44/30 55/41/28 56/147/91 61/148/93
s 60
f 61/149/44 56/150/92 54/40/27 58/43/29
s 61
f 68/151/94 75/152/95 69/153/96
s 62
f 76/154/66 63/155/41 74/156/61
s 63
f 62/74/45 70/157/97 72/96/62
s 64
f 3/12/2 24/11/4 21/102/68 1/158/2
s 65
f 61/159/93 70/160/97 62/74/45 60/44/30
s 66
f 67/161/98 64/162/99 65/99/65 66/98/64
s 67
f 68/151/94 69/153/96 70/163/100
s 68
f 69/83/51 71/82/50 72/96/62 70/157/97
s 69
f 73/91/59 75/90/58 76/164/66 74/165/61
s 70
f 71/82/50 67/86/54 66/97/63 72/96/62
s 71
f 64/87/55 73/91/59 74/93/61 65/92/60
s 72
f 75/152/95 68/78/94 76/81/101
s 73
f 67/161/98 19/166/102 20/167/102 64/162/99
s 74
f 69/153/96 75/152/95 18/168/103 17/169/103
s 75
f 78/170/104 80/171/104 79/172/104 77/94/104
s 76
f 20/167/102 19/166/102 79/172/1 80/173/1
s 77
f 18/89/57 20/88/56 80/171/2 78/170/2
s 78
f 17/169/103 18/168/103 78/174/105 77/175/105
