{
    "asset" : {
        "generator" : "Khronos glTF Blender I/O v0.9.36",
        "version" : "2.0"
    },
    "scene" : 0,
    "scenes" : [
        {
            "name" : "Scene",
            "nodes" : [
                0
            ]
        }
    ],
    "nodes" : [
        {
            "mesh" : 0,
            "name" : "character_polarExplorerHeadB",
            "translation" : [
                0,
                0.7045383453369141,
                0
            ]
        }
    ],
    "materials" : [
        {
            "doubleSided" : true,
            "name" : "PinkLight",
            "pbrMetallicRoughness" : {
                "baseColorFactor" : [
                    0.9215819239616394,
                    0.5271151065826416,
                    0.33245164155960083,
                    1
                ],
                "metallicFactor" : 0,
                "roughnessFactor" : 0.5
            }
        },
        {
            "name" : "Black",
            "pbrMetallicRoughness" : {
                "baseColorFactor" : [
                    0.019794002175331116,
                    0.03207586705684662,
                    0.037408243864774704,
                    1
                ],
                "metallicFactor" : 0,
                "roughnessFactor" : 0.5
            }
        },
        {
            "name" : "BrownDark",
            "pbrMetallicRoughness" : {
                "baseColorFactor" : [
                    0.32694560289382935,
                    0.10152623057365417,
                    0.05927089974284172,
                    1
                ],
                "metallicFactor" : 0,
                "roughnessFactor" : 0.4000000059604645
            }
        }
    ],
    "meshes" : [
        {
            "name" : "Cube.4632",
            "primitives" : [
                {
                    "attributes" : {
                        "POSITION" : 0,
                        "NORMAL" : 1,
                        "TEXCOORD_0" : 2
                    },
                    "indices" : 3,
                    "material" : 0
                },
                {
                    "attributes" : {
                        "POSITION" : 4,
                        "NORMAL" : 5,
                        "TEXCOORD_0" : 6
                    },
                    "indices" : 7,
                    "material" : 1
                },
                {
                    "attributes" : {
                        "POSITION" : 8,
                        "NORMAL" : 9,
                        "TEXCOORD_0" : 10
                    },
                    "indices" : 11,
                    "material" : 2
                }
            ]
        }
    ],
    "accessors" : [
        {
            "bufferView" : 0,
            "componentType" : 5126,
            "count" : 465,
            "max" : [
                0.5877276062965393,
                0.8608809113502502,
                0.5780367851257324
            ],
            "min" : [
                -0.5877274870872498,
                0,
                -0.4829626977443695
            ],
            "type" : "VEC3"
        },
        {
            "bufferView" : 1,
            "componentType" : 5126,
            "count" : 465,
            "type" : "VEC3"
        },
        {
            "bufferView" : 2,
            "componentType" : 5126,
            "count" : 465,
            "type" : "VEC2"
        },
        {
            "bufferView" : 3,
            "componentType" : 5123,
            "count" : 1386,
            "type" : "SCALAR"
        },
        {
            "bufferView" : 4,
            "componentType" : 5126,
            "count" : 108,
            "max" : [
                0.329667866230011,
                0.4932206869125366,
                0.468027800321579
            ],
            "min" : [
                -0.32963353395462036,
                0.35582518577575684,
                0.36318591237068176
            ],
            "type" : "VEC3"
        },
        {
            "bufferView" : 5,
            "componentType" : 5126,
            "count" : 108,
            "type" : "VEC3"
        },
        {
            "bufferView" : 6,
            "componentType" : 5126,
            "count" : 108,
            "type" : "VEC2"
        },
        {
            "bufferView" : 7,
            "componentType" : 5123,
            "count" : 396,
            "type" : "SCALAR"
        },
        {
            "bufferView" : 8,
            "componentType" : 5126,
            "count" : 930,
            "max" : [
                0.5347926020622253,
                1.2860838174819946,
                0.5446070432662964
            ],
            "min" : [
                -0.5317927598953247,
                -0.06820112466812134,
                -0.5274245142936707
            ],
            "type" : "VEC3"
        },
        {
            "bufferView" : 9,
            "componentType" : 5126,
            "count" : 930,
            "type" : "VEC3"
        },
        {
            "bufferView" : 10,
            "componentType" : 5126,
            "count" : 930,
            "type" : "VEC2"
        },
        {
            "bufferView" : 11,
            "componentType" : 5123,
            "count" : 3744,
            "type" : "SCALAR"
        }
    ],
    "bufferViews" : [
        {
            "buffer" : 0,
            "byteLength" : 5580,
            "byteOffset" : 0
        },
        {
            "buffer" : 0,
            "byteLength" : 5580,
            "byteOffset" : 5580
        },
        {
            "buffer" : 0,
            "byteLength" : 3720,
            "byteOffset" : 11160
        },
        {
            "buffer" : 0,
            "byteLength" : 2772,
            "byteOffset" : 14880
        },
        {
            "buffer" : 0,
            "byteLength" : 1296,
            "byteOffset" : 17652
        },
        {
            "buffer" : 0,
            "byteLength" : 1296,
            "byteOffset" : 18948
        },
        {
            "buffer" : 0,
            "byteLength" : 864,
            "byteOffset" : 20244
        },
        {
            "buffer" : 0,
            "byteLength" : 792,
            "byteOffset" : 21108
        },
        {
            "buffer" : 0,
            "byteLength" : 11160,
            "byteOffset" : 21900
        },
        {
            "buffer" : 0,
            "byteLength" : 11160,
            "byteOffset" : 33060
        },
        {
            "buffer" : 0,
            "byteLength" : 7440,
            "byteOffset" : 44220
        },
        {
            "buffer" : 0,
            "byteLength" : 7488,
            "byteOffset" : 51660
        }
    ],
    "buffers" : [
        {
            "byteLength" : 59148,
            "uri" : "data:application/octet-stream;base64,"
        }
    ]
}
