{
    "asset" : {
        "generator" : "Khronos glTF Blender I/O v0.9.36",
        "version" : "2.0"
    },
    "scene" : 0,
    "scenes" : [
        {
            "name" : "Scene",
            "nodes" : [
                3
            ]
        }
    ],
    "nodes" : [
        {
            "mesh" : 0,
            "name" : "character_yetiArmLeft",
            "translation" : [
                0.20404481887817383,
                0.6335563659667969,
                0
            ]
        },
        {
            "mesh" : 1,
            "name" : "character_yetiArmRight",
            "translation" : [
                -0.20404601097106934,
                0.6335563063621521,
                0
            ]
        },
        {
            "mesh" : 2,
            "name" : "character_yetiHead",
            "translation" : [
                0,
                0.704538106918335,
                0
            ]
        },
        {
            "children" : [
                0,
                1,
                2
            ],
            "mesh" : 3,
            "name" : "character_yetiBody"
        }
    ],
    "materials" : [
        {
            "name" : "White",
            "pbrMetallicRoughness" : {
                "baseColorFactor" : [
                    0.799102783203125,
                    0.799102783203125,
                    0.799102783203125,
                    1
                ],
                "metallicFactor" : 0,
                "roughnessFactor" : 0.5
            }
        },
        {
            "name" : "BlueLight",
            "pbrMetallicRoughness" : {
                "baseColorFactor" : [
                    0.3603615462779999,
                    0.5287242531776428,
                    0.7185794115066528,
                    1
                ],
                "metallicFactor" : 0,
                "roughnessFactor" : 0.5
            }
        },
        {
            "name" : "Black",
            "pbrMetallicRoughness" : {
                "baseColorFactor" : [
                    0.019794002175331116,
                    0.03207586705684662,
                    0.037408243864774704,
                    1
                ],
                "metallicFactor" : 0,
                "roughnessFactor" : 0.5
            }
        },
        {
            "name" : "Beige",
            "pbrMetallicRoughness" : {
                "baseColorFactor" : [
                    0.7029160857200623,
                    0.4253237545490265,
                    0.20689357817173004,
                    1
                ],
                "metallicFactor" : 0,
                "roughnessFactor" : 0.5
            }
        }
    ],
    "meshes" : [
        {
            "name" : "Cube.4633",
            "primitives" : [
                {
                    "attributes" : {
                        "POSITION" : 0,
                        "NORMAL" : 1,
                        "TEXCOORD_0" : 2
                    },
                    "indices" : 3,
                    "material" : 0
                },
                {
                    "attributes" : {
                        "POSITION" : 4,
                        "NORMAL" : 5,
                        "TEXCOORD_0" : 6
                    },
                    "indices" : 7,
                    "material" : 1
                }
            ]
        },
        {
            "name" : "Cube.4634",
            "primitives" : [
                {
                    "attributes" : {
                        "POSITION" : 8,
                        "NORMAL" : 9,
                        "TEXCOORD_0" : 10
                    },
                    "indices" : 11,
                    "material" : 0
                },
                {
                    "attributes" : {
                        "POSITION" : 12,
                        "NORMAL" : 13,
                        "TEXCOORD_0" : 14
                    },
                    "indices" : 15,
                    "material" : 1
                }
            ]
        },
        {
            "name" : "Cube.4628",
            "primitives" : [
                {
                    "attributes" : {
                        "POSITION" : 16,
                        "NORMAL" : 17,
                        "TEXCOORD_0" : 18
                    },
                    "indices" : 19,
                    "material" : 2
                },
                {
                    "attributes" : {
                        "POSITION" : 20,
                        "NORMAL" : 21,
                        "TEXCOORD_0" : 22
                    },
                    "indices" : 23,
                    "material" : 3
                },
                {
                    "attributes" : {
                        "POSITION" : 24,
                        "NORMAL" : 25,
                        "TEXCOORD_0" : 26
                    },
                    "indices" : 27,
                    "material" : 0
                },
                {
                    "attributes" : {
                        "POSITION" : 28,
                        "NORMAL" : 29,
                        "TEXCOORD_0" : 30
                    },
                    "indices" : 31,
                    "material" : 1
                }
            ]
        },
        {
            "name" : "Cube.4626",
            "primitives" : [
                {
                    "attributes" : {
                        "POSITION" : 32,
                        "NORMAL" : 33,
                        "TEXCOORD_0" : 34
                    },
                    "indices" : 35,
                    "material" : 0
                }
            ]
        }
    ],
    "accessors" : [
        {
            "bufferView" : 0,
            "componentType" : 5126,
            "count" : 168,
            "max" : [
                0.29304519295692444,
                0.09418356418609619,
                0.12623678147792816
            ],
            "min" : [
                -0.11533478647470474,
                -0.34376147389411926,
                -0.12623679637908936
            ],
            "type" : "VEC3"
        },
        {
            "bufferView" : 1,
            "componentType" : 5126,
            "count" : 168,
            "type" : "VEC3"
        },
        {
            "bufferView" : 2,
            "componentType" : 5126,
            "count" : 168,
            "type" : "VEC2"
        },
        {
            "bufferView" : 3,
            "componentType" : 5123,
            "count" : 723,
            "type" : "SCALAR"
        },
        {
            "bufferView" : 4,
            "componentType" : 5126,
            "count" : 117,
            "max" : [
                0.26490139961242676,
                -0.3437543511390686,
                0.09058663994073868
            ],
            "min" : [
                0.12564954161643982,
                -0.47665560245513916,
                -0.0905865803360939
            ],
            "type" : "VEC3"
        },
        {
            "bufferView" : 5,
            "componentType" : 5126,
            "count" : 117,
            "type" : "VEC3"
        },
        {
            "bufferView" : 6,
            "componentType" : 5126,
            "count" : 117,
            "type" : "VEC2"
        },
        {
            "bufferView" : 7,
            "componentType" : 5123,
            "count" : 561,
            "type" : "SCALAR"
        },
        {
            "bufferView" : 8,
            "componentType" : 5126,
            "count" : 168,
            "max" : [
                0.11533478647470474,
                0.09418356418609619,
                0.12623678147792816
            ],
            "min" : [
                -0.29304519295692444,
                -0.34376147389411926,
                -0.12623679637908936
            ],
            "type" : "VEC3"
        },
        {
            "bufferView" : 9,
            "componentType" : 5126,
            "count" : 168,
            "type" : "VEC3"
        },
        {
            "bufferView" : 10,
            "componentType" : 5126,
            "count" : 168,
            "type" : "VEC2"
        },
        {
            "bufferView" : 11,
            "componentType" : 5123,
            "count" : 723,
            "type" : "SCALAR"
        },
        {
            "bufferView" : 12,
            "componentType" : 5126,
            "count" : 117,
            "max" : [
                -0.12564954161643982,
                -0.3437543511390686,
                0.09058663994073868
            ],
            "min" : [
                -0.26490139961242676,
                -0.47665560245513916,
                -0.0905865803360939
            ],
            "type" : "VEC3"
        },
        {
            "bufferView" : 13,
            "componentType" : 5126,
            "count" : 117,
            "type" : "VEC3"
        },
        {
            "bufferView" : 14,
            "componentType" : 5126,
            "count" : 117,
            "type" : "VEC2"
        },
        {
            "bufferView" : 15,
            "componentType" : 5123,
            "count" : 561,
            "type" : "SCALAR"
        },
        {
            "bufferView" : 16,
            "componentType" : 5126,
            "count" : 108,
            "max" : [
                0.329667866230011,
                0.4932206869125366,
                0.42238473892211914
            ],
            "min" : [
                -0.32963353395462036,
                0.35582518577575684,
                0.3175428509712219
            ],
            "type" : "VEC3"
        },
        {
            "bufferView" : 17,
            "componentType" : 5126,
            "count" : 108,
            "type" : "VEC3"
        },
        {
            "bufferView" : 18,
            "componentType" : 5126,
            "count" : 108,
            "type" : "VEC2"
        },
        {
            "bufferView" : 19,
            "componentType" : 5123,
            "count" : 396,
            "type" : "SCALAR"
        },
        {
            "bufferView" : 20,
            "componentType" : 5126,
            "count" : 304,
            "max" : [
                0.7457762956619263,
                1.0393035411834717,
                0.500986635684967
            ],
            "min" : [
                -0.7459221482276917,
                0.13917428255081177,
                -0.13997510075569153
            ],
            "type" : "VEC3"
        },
        {
            "bufferView" : 21,
            "componentType" : 5126,
            "count" : 304,
            "type" : "VEC3"
        },
        {
            "bufferView" : 22,
            "componentType" : 5126,
            "count" : 304,
            "type" : "VEC2"
        },
        {
            "bufferView" : 23,
            "componentType" : 5123,
            "count" : 840,
            "type" : "SCALAR"
        },
        {
            "bufferView" : 24,
            "componentType" : 5126,
            "count" : 820,
            "max" : [
                0.5519233345985413,
                1.202479362487793,
                0.5742751359939575
            ],
            "min" : [
                -0.5519234538078308,
                -0.1728488802909851,
                -0.6206767559051514
            ],
            "type" : "VEC3"
        },
        {
            "bufferView" : 25,
            "componentType" : 5126,
            "count" : 820,
            "type" : "VEC3"
        },
        {
            "bufferView" : 26,
            "componentType" : 5126,
            "count" : 820,
            "type" : "VEC2"
        },
        {
            "bufferView" : 27,
            "componentType" : 5123,
            "count" : 3234,
            "type" : "SCALAR"
        },
        {
            "bufferView" : 28,
            "componentType" : 5126,
            "count" : 489,
            "max" : [
                0.5877276062965393,
                0.802545964717865,
                0.5832037925720215
            ],
            "min" : [
                -0.5877274870872498,
                0.15293221175670624,
                -0.1311497688293457
            ],
            "type" : "VEC3"
        },
        {
            "bufferView" : 29,
            "componentType" : 5126,
            "count" : 489,
            "type" : "VEC3"
        },
        {
            "bufferView" : 30,
            "componentType" : 5126,
            "count" : 489,
            "type" : "VEC2"
        },
        {
            "bufferView" : 31,
            "componentType" : 5123,
            "count" : 1470,
            "type" : "SCALAR"
        },
        {
            "bufferView" : 32,
            "componentType" : 5126,
            "count" : 298,
            "max" : [
                0.33807387948036194,
                0.7255613207817078,
                0.37584125995635986
            ],
            "min" : [
                -0.33807387948036194,
                -2.2351741790771484e-08,
                -0.3499997556209564
            ],
            "type" : "VEC3"
        },
        {
            "bufferView" : 33,
            "componentType" : 5126,
            "count" : 298,
            "type" : "VEC3"
        },
        {
            "bufferView" : 34,
            "componentType" : 5126,
            "count" : 298,
            "type" : "VEC2"
        },
        {
            "bufferView" : 35,
            "componentType" : 5123,
            "count" : 1338,
            "type" : "SCALAR"
        }
    ],
    "bufferViews" : [
        {
            "buffer" : 0,
            "byteLength" : 2016,
            "byteOffset" : 0
        },
        {
            "buffer" : 0,
            "byteLength" : 2016,
            "byteOffset" : 2016
        },
        {
            "buffer" : 0,
            "byteLength" : 1344,
            "byteOffset" : 4032
        },
        {
            "buffer" : 0,
            "byteLength" : 1446,
            "byteOffset" : 5376
        },
        {
            "buffer" : 0,
            "byteLength" : 1404,
            "byteOffset" : 6824
        },
        {
            "buffer" : 0,
            "byteLength" : 1404,
            "byteOffset" : 8228
        },
        {
            "buffer" : 0,
            "byteLength" : 936,
            "byteOffset" : 9632
        },
        {
            "buffer" : 0,
            "byteLength" : 1122,
            "byteOffset" : 10568
        },
        {
            "buffer" : 0,
            "byteLength" : 2016,
            "byteOffset" : 11692
        },
        {
            "buffer" : 0,
            "byteLength" : 2016,
            "byteOffset" : 13708
        },
        {
            "buffer" : 0,
            "byteLength" : 1344,
            "byteOffset" : 15724
        },
        {
            "buffer" : 0,
            "byteLength" : 1446,
            "byteOffset" : 17068
        },
        {
            "buffer" : 0,
            "byteLength" : 1404,
            "byteOffset" : 18516
        },
        {
            "buffer" : 0,
            "byteLength" : 1404,
            "byteOffset" : 19920
        },
        {
            "buffer" : 0,
            "byteLength" : 936,
            "byteOffset" : 21324
        },
        {
            "buffer" : 0,
            "byteLength" : 1122,
            "byteOffset" : 22260
        },
        {
            "buffer" : 0,
            "byteLength" : 1296,
            "byteOffset" : 23384
        },
        {
            "buffer" : 0,
            "byteLength" : 1296,
            "byteOffset" : 24680
        },
        {
            "buffer" : 0,
            "byteLength" : 864,
            "byteOffset" : 25976
        },
        {
            "buffer" : 0,
            "byteLength" : 792,
            "byteOffset" : 26840
        },
        {
            "buffer" : 0,
            "byteLength" : 3648,
            "byteOffset" : 27632
        },
        {
            "buffer" : 0,
            "byteLength" : 3648,
            "byteOffset" : 31280
        },
        {
            "buffer" : 0,
            "byteLength" : 2432,
            "byteOffset" : 34928
        },
        {
            "buffer" : 0,
            "byteLength" : 1680,
            "byteOffset" : 37360
        },
        {
            "buffer" : 0,
            "byteLength" : 9840,
            "byteOffset" : 39040
        },
        {
            "buffer" : 0,
            "byteLength" : 9840,
            "byteOffset" : 48880
        },
        {
            "buffer" : 0,
            "byteLength" : 6560,
            "byteOffset" : 58720
        },
        {
            "buffer" : 0,
            "byteLength" : 6468,
            "byteOffset" : 65280
        },
        {
            "buffer" : 0,
            "byteLength" : 5868,
            "byteOffset" : 71748
        },
        {
            "buffer" : 0,
            "byteLength" : 5868,
            "byteOffset" : 77616
        },
        {
            "buffer" : 0,
            "byteLength" : 3912,
            "byteOffset" : 83484
        },
        {
            "buffer" : 0,
            "byteLength" : 2940,
            "byteOffset" : 87396
        },
        {
            "buffer" : 0,
            "byteLength" : 3576,
            "byteOffset" : 90336
        },
        {
            "buffer" : 0,
            "byteLength" : 3576,
            "byteOffset" : 93912
        },
        {
            "buffer" : 0,
            "byteLength" : 2384,
            "byteOffset" : 97488
        },
        {
            "buffer" : 0,
            "byteLength" : 2676,
            "byteOffset" : 99872
        }
    ],
    "buffers" : [
        {
            "byteLength" : 102548,
            "uri" : "data:application/octet-stream;base64,"
        }
    ]
}
