# Blender v2.80 (sub 75) OBJ File: 'VikingTwins.blend'
# www.blender.org
mtllib oar.mtl
o oar_Cube.4968
v -0.005724 -0.334457 0.021335
v 0.015621 -0.334457 0.015616
v -0.021350 -0.334457 0.005709
v -0.015631 -0.334457 -0.015636
v 0.005715 -0.334457 -0.021355
v 0.021341 -0.334457 -0.005730
v -0.011147 -0.300909 0.041573
v -0.041588 -0.300909 0.011132
v 0.041578 -0.300909 -0.011152
v 0.030436 -0.300909 0.030431
v 0.011137 -0.300909 -0.041593
v -0.030446 -0.300909 -0.030451
v 0.005103 -0.334457 0.019052
v -0.013959 -0.334457 0.013944
v -0.019067 -0.334457 -0.005118
v -0.005112 -0.334457 -0.019072
v 0.013949 -0.334457 -0.013964
v 0.019057 -0.334457 0.005098
v 0.035838 -0.325888 -0.009614
v 0.026234 -0.325888 0.026229
v -0.009609 -0.325888 0.035833
v -0.035848 -0.325888 0.009594
v -0.026244 -0.325888 -0.026249
v 0.009599 -0.325888 -0.035853
v -0.009303 -0.325888 -0.034711
v -0.025408 -0.325888 0.025393
v 0.025398 -0.325888 -0.025413
v -0.034706 -0.325888 -0.009308
v 0.009293 -0.325888 0.034691
v -0.041640 -0.300898 -0.011166
v 0.011151 -0.300898 0.041625
v -0.011161 -0.300898 -0.041646
v 0.030474 -0.300898 -0.030489
v 0.041631 -0.300898 0.011146
v 0.034696 -0.325888 0.009288
v -0.030484 -0.300898 0.030469
v 0.020063 0.571407 0.020058
v -0.007350 0.571407 0.027403
v -0.027418 0.571407 0.007335
v -0.020073 0.571407 -0.020078
v 0.007341 0.571407 -0.027423
v 0.027409 0.571407 -0.007355
v 0.027409 0.571407 0.007335
v 0.020063 0.571407 -0.020078
v -0.007350 0.571407 -0.027423
v -0.027418 0.571407 -0.007355
v -0.020073 0.571407 0.020058
v 0.007341 0.571407 0.027403
v 0.041335 0.805608 0.033097
v 0.025979 0.722421 0.025973
v -0.000005 0.722421 0.035484
v -0.041359 0.805608 0.033097
v -0.035499 0.722421 -0.000010
v -0.041359 0.805608 -0.033117
v -0.025988 0.722421 -0.025994
v -0.127128 1.491004 -0.012339
v -0.000005 0.722421 -0.035504
v 0.041335 0.805608 -0.033117
v 0.035489 0.722421 -0.000010
v 0.127117 1.491004 0.012319
v 0.025979 0.722421 -0.025993
v 0.127117 1.491004 -0.012339
v -0.025988 0.722421 0.025973
v -0.127128 1.491004 0.012319
v -0.127128 1.700320 -0.009129
v -0.079549 1.780821 -0.009129
v -0.120753 1.737304 -0.009129
v -0.103338 1.768141 -0.009129
v -0.079549 1.780821 0.009108
v -0.127128 1.700320 0.009108
v -0.103338 1.768141 0.009108
v -0.120753 1.737304 0.009108
v 0.079539 1.780821 -0.009129
v 0.127117 1.700320 -0.009129
v 0.103328 1.768141 -0.009129
v 0.120743 1.737304 -0.009129
v 0.127117 1.700320 0.009108
v 0.079539 1.780821 0.009108
v 0.120743 1.737304 0.009108
v 0.103328 1.768141 0.009108
v 0.127117 1.123529 -0.021760
v 0.082632 0.903544 -0.024696
v 0.114088 1.011674 -0.021760
v -0.082649 0.903542 -0.024696
v -0.127128 1.123529 -0.021760
v -0.114100 1.011673 -0.021760
v -0.127128 1.123529 0.021740
v -0.082649 0.903542 0.024676
v -0.114100 1.011673 0.021740
v 0.082632 0.903544 0.024676
v 0.127117 1.123529 0.021740
v 0.114088 1.011674 0.021740
vt 0.833333 1.000000
vt 0.833333 0.750000
vt 0.750000 0.750000
vt 0.750000 1.000000
vt 0.666667 1.000000
vt 0.666667 0.750000
vt 0.583333 0.750000
vt 0.583333 1.000000
vt 0.500000 1.000000
vt 0.500000 0.750000
vt 0.416667 0.750000
vt 0.416667 1.000000
vt 0.333333 1.000000
vt 0.333333 0.750000
vt 0.250000 0.750000
vt 0.250000 1.000000
vt 0.166667 1.000000
vt 0.166667 0.750000
vt 0.083333 0.750000
vt 0.083333 1.000000
vt 0.583333 1.000000
vt 0.666667 1.000000
vt 0.083333 1.000000
vt 0.083333 1.000000
vt 0.166667 1.000000
vt 0.166667 1.000000
vt 0.833333 1.000000
vt 0.916667 1.000000
vt 0.916667 1.000000
vt 0.250000 1.000000
vt 0.333333 1.000000
vt 0.750000 1.000000
vt 0.416667 1.000000
vt 0.500000 1.000000
vt 0.457846 0.370000
vt 0.457846 0.250000
vt 0.457846 0.130000
vt 0.353923 0.070000
vt 0.250000 0.010000
vt 0.146077 0.070000
vt 0.042154 0.130000
vt 0.042154 0.250000
vt 0.042154 0.370000
vt 0.146077 0.430000
vt 0.250000 0.490000
vt 0.353923 0.430000
vt 0.916667 1.000000
vt 1.000000 1.000000
vt 1.000000 1.000000
vt 0.583333 1.000000
vt 0.666667 1.000000
vt 0.250000 1.000000
vt 0.333333 1.000000
vt 0.750000 1.000000
vt 0.833333 1.000000
vt 0.416667 1.000000
vt 0.500000 1.000000
vt -0.000000 1.000000
vt -0.000000 1.000000
vt 0.916667 0.750000
vt 1.000000 1.000000
vt 1.000000 0.750000
vt -0.000000 1.000000
vt -0.000000 0.750000
vt 0.083333 0.750000
vt -0.000000 0.750000
vt 0.750000 0.750000
vt 0.666667 0.750000
vt 0.500000 0.750000
vt 0.416667 0.750000
vt 0.250000 0.750000
vt 0.166667 0.750000
vt 0.833333 0.750000
vt 0.583333 0.750000
vt 0.333333 0.750000
vt 1.000000 0.750000
vt 0.916667 0.750000
vt 0.416667 0.750000
vt 0.333333 0.750000
vt 0.250000 0.750000
vt 0.166667 0.750000
vt 0.916667 0.750000
vt 0.833333 0.750000
vt 0.083333 0.750000
vt 0.750000 0.750000
vt -0.000000 0.750000
vt 0.666667 0.750000
vt 0.583333 0.750000
vt 0.500000 0.750000
vt 0.583333 0.750000
vt 0.666667 0.750000
vt 0.666667 0.750000
vt 0.583333 0.750000
vt 0.833333 0.750000
vt 0.916667 0.750000
vt 0.916667 0.750000
vt 0.833333 0.750000
vt 0.083333 0.750000
vt 0.166667 0.750000
vt 0.166667 0.750000
vt 0.083333 0.750000
vt 0.333333 0.750000
vt 0.416667 0.750000
vt 0.416667 0.750000
vt 0.333333 0.750000
vt 0.916667 0.750000
vt 0.833333 0.750000
vt 0.666667 0.750000
vt 0.583333 0.750000
vt 0.166667 0.750000
vt 0.083333 0.750000
vt 0.916667 0.750000
vt 0.914577 0.750000
vt 0.908869 0.750000
vt 0.901072 0.750000
vt 0.848928 0.750000
vt 0.841131 0.750000
vt 0.835423 0.750000
vt 0.833333 0.750000
vt 0.416667 0.750000
vt 0.414577 0.750000
vt 0.408869 0.750000
vt 0.401072 0.750000
vt 0.348928 0.750000
vt 0.341131 0.750000
vt 0.335423 0.750000
vt 0.333333 0.750000
vt 0.166667 0.750000
vt 0.083333 0.750000
vt 0.666667 0.750000
vt 0.583333 0.750000
vt 0.666667 0.750000
vt 0.583333 0.750000
vt 0.666667 0.750000
vt 0.583333 0.750000
vt 0.763157 0.750000
vt 0.692981 0.750000
vt 0.166667 0.750000
vt 0.083333 0.750000
vt 0.166667 0.750000
vt 0.083333 0.750000
vt 0.153509 0.750000
vt 0.223685 0.750000
vt 0.666667 0.750000
vt 0.083333 0.750000
vt 0.583333 0.750000
vt 0.166667 0.750000
vt 0.416667 0.750000
vt 0.333333 0.750000
vn -0.2570 -0.1179 0.9592
vn -0.2350 -0.0157 0.9719
vn -0.7070 -0.0129 0.7070
vn -0.7023 -0.1165 0.7023
vn -0.9592 -0.1179 0.2570
vn -0.9719 -0.0157 0.2350
vn -0.9719 -0.0157 -0.2350
vn -0.9594 -0.1165 -0.2571
vn -0.7022 -0.1179 -0.7022
vn -0.7070 -0.0129 -0.7070
vn -0.2350 -0.0157 -0.9719
vn -0.2571 -0.1165 -0.9594
vn 0.2570 -0.1179 -0.9592
vn 0.2350 -0.0157 -0.9719
vn 0.7070 -0.0129 -0.7070
vn 0.7023 -0.1165 -0.7023
vn 0.9592 -0.1179 -0.2570
vn 0.9719 -0.0157 -0.2350
vn 0.9719 -0.0157 0.2350
vn 0.9594 -0.1165 0.2571
vn -0.9346 -0.2525 -0.2504
vn -0.9338 -0.2558 0.2502
vn 0.4755 -0.8704 0.1274
vn 0.2535 -0.9649 0.0679
vn 0.2975 -0.9514 -0.0797
vn 0.4535 -0.8829 -0.1215
vn -0.2502 -0.2558 0.9338
vn 0.2504 -0.2525 0.9346
vn 0.2571 -0.1165 0.9594
vn 0.9346 -0.2525 0.2504
vn 0.9338 -0.2558 -0.2502
vn 0.6842 -0.2525 -0.6842
vn 0.2502 -0.2558 -0.9338
vn -0.6842 -0.2525 0.6842
vn -0.2504 -0.2525 -0.9346
vn -0.6836 -0.2558 -0.6836
vn -0.0797 -0.9514 0.2975
vn -0.1856 -0.9649 0.1856
vn -0.2975 -0.9514 0.0797
vn -0.2535 -0.9649 -0.0679
vn -0.2178 -0.9514 -0.2178
vn -0.0679 -0.9649 -0.2535
vn 0.0797 -0.9514 -0.2975
vn 0.1856 -0.9649 -0.1856
vn 0.2178 -0.9514 0.2178
vn 0.0679 -0.9649 0.2535
vn 0.1274 -0.8704 0.4755
vn 0.3320 -0.8829 0.3320
vn -0.4755 -0.8704 -0.1274
vn -0.4535 -0.8829 0.1215
vn 0.3481 -0.8704 -0.3481
vn 0.1215 -0.8829 -0.4535
vn -0.3481 -0.8704 0.3481
vn -0.1215 -0.8829 0.4535
vn -0.1274 -0.8704 -0.4755
vn -0.3320 -0.8829 -0.3320
vn 0.6836 -0.2558 0.6836
vn 0.7022 -0.1179 0.7022
vn 0.2350 -0.0157 0.9719
vn 0.7070 -0.0129 0.7070
vn 0.9935 -0.1135 -0.0000
vn 0.9216 -0.1211 0.3688
vn -0.9216 -0.1212 0.3688
vn -0.9935 -0.1136 -0.0000
vn -0.3687 -0.0943 -0.9247
vn 0.0000 -0.0717 -0.9974
vn 0.9216 -0.1211 -0.3688
vn 0.0000 -0.0717 0.9974
vn -0.3687 -0.0943 0.9247
vn -0.9216 -0.1212 -0.3688
vn 0.3687 -0.0942 -0.9247
vn 0.3687 -0.0942 0.9247
vn -0.0304 0.0471 -0.9984
vn 0.0304 0.0471 -0.9984
vn 0.9685 -0.2463 -0.0358
vn 0.0304 0.0471 0.9984
vn -0.0304 0.0471 0.9984
vn 0.9685 -0.2463 0.0358
vn -0.9685 -0.2464 0.0358
vn -0.9685 -0.2464 -0.0358
vn -0.9983 -0.0584 -0.0000
vn -1.0000 -0.0000 -0.0000
vn 0.0000 0.0133 0.9999
vn 0.0000 0.0185 0.9998
vn 0.9983 -0.0584 -0.0000
vn 1.0000 0.0000 -0.0000
vn 0.0000 0.0133 -0.9999
vn 0.0000 0.0185 -0.9998
vn -0.0000 0.0498 0.9988
vn -0.9418 -0.3363 -0.0000
vn 0.9418 -0.3363 -0.0000
vn 0.0000 0.0114 0.9999
vn 0.0000 0.0114 -0.9999
vn 0.9964 0.0848 -0.0000
vn -0.9964 0.0848 -0.0000
vn -0.9420 0.3357 -0.0000
vn -0.6984 0.7157 -0.0000
vn -0.2424 0.9702 0.0000
vn 0.9420 0.3357 -0.0000
vn 0.6984 0.7157 -0.0000
vn 0.2424 0.9702 -0.0000
vn 0.0000 0.0118 0.9999
vn -0.9800 -0.1989 -0.0000
vn 0.9800 -0.1989 -0.0000
vn -0.0000 0.0498 -0.9988
vn -0.0000 0.0118 -0.9999
usemtl BrownDark
s 1
f 7/1/1 38/2/2 47/3/3 36/4/4
s 2
f 8/5/5 39/6/6 46/7/7 30/8/8
s 3
f 12/9/9 40/10/10 45/11/11 32/12/12
s 4
f 11/13/13 41/14/14 44/15/15 33/16/16
s 5
f 9/17/17 42/18/18 43/19/19 34/20/20
s 6
f 28/21/21 22/22/22 8/5/5 30/8/8
s 7
f 35/23/23 18/24/24 6/25/25 19/26/26
s 8
f 7/1/1 21/27/27 29/28/28 31/29/29
s 9
f 34/20/20 35/23/30 19/26/31 9/17/17
s 10
f 27/30/32 24/31/33 11/13/13 33/16/16
s 11
f 26/32/34 21/27/27 7/1/1 36/4/4
s 12
f 25/33/35 23/34/36 12/9/9 32/12/12
s 13
f 1/35/37 14/36/38 3/37/39 15/38/40 4/39/41 16/40/42 5/41/43 17/42/44 6/43/25 18/44/24 2/45/45 13/46/46
s 14
f 29/28/47 13/47/46 2/48/45 20/49/48
s 15
f 28/21/49 15/50/40 3/51/39 22/22/50
s 16
f 27/30/51 17/52/44 5/53/43 24/31/52
s 17
f 26/32/53 14/54/38 1/55/37 21/27/54
s 18
f 25/33/55 16/56/42 4/57/41 23/34/56
s 19
f 24/31/52 5/53/43 16/56/42 25/33/55
s 20
f 9/17/17 19/26/31 27/30/32 33/16/16
s 21
f 22/22/50 3/51/39 14/54/38 26/32/53
s 22
f 12/9/9 23/34/36 28/21/21 30/8/8
s 23
f 19/26/26 6/25/25 17/52/44 27/30/51
s 24
f 20/58/57 35/23/30 34/20/20 10/59/58
s 25
f 23/34/56 4/57/41 15/50/40 28/21/49
s 26
f 11/13/13 24/31/33 25/33/35 32/12/12
s 27
f 21/27/54 1/55/37 13/47/46 29/28/47
s 28
f 8/5/5 22/22/22 26/32/34 36/4/4
s 29
f 30/8/8 46/7/7 40/10/10 12/9/9
s 30
f 31/29/29 48/60/59 38/2/2 7/1/1
s 31
f 32/12/12 45/11/11 41/14/14 11/13/13
s 32
f 33/16/16 44/15/15 42/18/18 9/17/17
s 33
f 10/61/58 37/62/60 48/60/59 31/29/29
s 34
f 20/58/48 2/63/45 18/24/24 35/23/23
s 35
f 36/4/4 47/3/3 39/6/6 8/5/5
s 36
f 37/64/60 43/19/19 59/65/61 50/66/62
s 37
f 43/19/19 42/18/18 59/65/61
s 38
f 39/6/6 47/3/3 63/67/63 53/68/64
s 39
f 45/11/11 40/10/10 55/69/65 57/70/66
s 40
f 42/18/18 44/15/15 61/71/67 59/72/61
s 41
f 47/3/3 38/2/2 51/73/68 63/67/69
s 42
f 40/10/10 46/7/7 53/74/64 55/69/70
s 43
f 44/15/15 41/14/14 57/75/66 61/71/71
s 44
f 38/2/2 48/60/59 51/73/68
s 45
f 48/60/59 37/62/60 50/76/72 51/77/68
s 46
f 46/7/7 39/6/6 53/74/64
s 47
f 41/14/14 45/11/11 57/75/66
s 48
f 57/70/66 54/78/73 58/79/74
s 49
f 61/71/71 57/75/66 58/80/74
s 50
f 59/72/61 61/71/67 58/81/75
s 51
f 51/77/68 49/82/76 52/83/77
s 52
f 59/72/61 58/81/75 49/84/78
s 53
f 63/67/69 51/73/68 52/85/77
s 54
f 50/66/62 59/65/61 49/86/78
s 55
f 53/68/64 63/67/63 52/87/79
s 56
f 53/68/64 52/87/79 54/88/80
s 57
f 55/69/70 53/74/64 54/89/80
s 58
f 51/77/68 50/76/72 49/82/76
s 59
f 57/70/66 55/69/65 54/78/73
s 60
f 29/28/28 20/49/57 10/61/58 31/29/29
s 61
f 34/20/20 43/19/19 37/64/60 10/59/58
s 62
f 85/90/81 87/91/81 64/92/82 56/93/82
s 63
f 87/94/83 91/95/83 60/96/84 64/97/84
s 64
f 91/98/85 81/99/85 62/100/86 60/101/86
s 65
f 81/102/87 85/103/87 56/104/88 62/105/88
s 66
f 52/83/77 49/82/76 90/106/89 88/107/89
s 67
f 54/88/80 52/87/79 88/108/90 84/109/90
s 68
f 49/84/78 58/81/75 82/110/91 90/111/91
s 69
f 64/97/84 60/96/84 77/112/92 79/113/92 80/114/92 78/115/92 69/116/92 71/117/92 72/118/92 70/119/92
s 70
f 62/105/88 56/104/88 65/120/93 67/121/93 68/122/93 66/123/93 73/124/93 75/125/93 76/126/93 74/127/93
s 71
f 60/101/86 62/100/86 74/128/94 77/129/94
s 72
f 56/93/82 64/92/82 70/130/95 65/131/95
s 73
f 65/131/95 70/130/95 72/132/96 67/133/96
s 74
f 67/133/96 72/132/96 71/134/97 68/135/97
s 75
f 68/122/97 71/136/97 69/137/98 66/123/98
s 76
f 77/129/94 74/128/94 76/138/99 79/139/99
s 77
f 79/139/99 76/138/99 75/140/100 80/141/100
s 78
f 80/142/100 75/125/100 73/124/101 78/143/101
s 79
f 66/123/98 69/137/98 78/143/101 73/124/101
s 80
f 89/144/102 88/107/89 90/111/89 92/145/102
s 81
f 87/94/83 89/144/102 92/145/102 91/95/83
s 82
f 84/109/90 88/108/90 89/144/103 86/146/103
s 83
f 86/146/103 89/144/103 87/91/81 85/90/81
s 84
f 90/111/91 82/110/91 83/147/104 92/145/104
s 85
f 92/145/104 83/147/104 81/99/85 91/98/85
s 86
f 58/79/74 54/78/73 84/148/105 82/149/105
s 87
f 81/102/87 83/147/106 86/146/106 85/103/87
s 88
f 83/147/106 82/149/105 84/109/105 86/146/106
