# Blender v2.80 (sub 75) OBJ File: 'MCOTMC_September2021_KingAndQueen_Source.blend'
# www.blender.org
mtllib character_queenArmLeft.mtl
o character_queenArmLeft_Cube.139
v -0.112638 0.094184 0.000000
v 0.030428 0.043655 0.000000
v 0.127550 -0.043655 0.000000
v 0.202074 -0.153668 0.000000
v 0.248922 -0.270714 0.000000
v 0.029813 0.043655 -0.003902
v -0.023944 0.041009 -0.045074
v -0.015744 0.060554 -0.030716
v 0.010326 0.043655 -0.035024
v 0.123625 -0.043655 -0.022250
v 0.068035 -0.043655 -0.064054
v 0.104289 -0.043655 -0.049094
v 0.195610 -0.153668 -0.040226
v 0.140822 -0.153668 -0.086112
v 0.176509 -0.153668 -0.068863
v 0.240862 -0.270714 -0.054960
v 0.186749 -0.270714 -0.105240
v 0.221958 -0.270714 -0.085768
v 0.197873 -0.476656 -0.045053
v 0.194156 -0.434231 -0.088876
v 0.247653 -0.434775 -0.047054
v 0.228280 -0.434503 -0.072732
v 0.192837 -0.450383 -0.085022
v 0.224524 -0.450199 -0.070091
v 0.242262 -0.450886 -0.046384
v 0.230909 -0.464502 -0.043369
v 0.255953 -0.434775 0.000000
v 0.200684 -0.476656 0.000000
v 0.249981 -0.450802 0.000000
v 0.238357 -0.464389 0.000000
v -0.023944 0.041009 0.045074
v 0.029813 0.043655 0.003902
v -0.015744 0.060554 0.030716
v 0.010326 0.043655 0.035024
v 0.068035 -0.043655 0.064054
v 0.123625 -0.043655 0.022250
v 0.104289 -0.043655 0.049094
v 0.140822 -0.153668 0.086112
v 0.195610 -0.153668 0.040225
v 0.176509 -0.153668 0.068862
v 0.186749 -0.270714 0.105239
v 0.240862 -0.270714 0.054960
v 0.221958 -0.270714 0.085768
v 0.197873 -0.476656 0.045053
v 0.247653 -0.434775 0.047054
v 0.194156 -0.434231 0.088876
v 0.230909 -0.464502 0.043369
v 0.228280 -0.434503 0.072732
v 0.242262 -0.450886 0.046384
v 0.224524 -0.450199 0.070091
v 0.192837 -0.450383 0.085022
v -0.099513 0.086358 -0.024634
v -0.115335 0.092680 -0.016182
v -0.032691 0.038842 -0.037765
v 0.042110 -0.043655 -0.061678
v 0.035009 -0.043655 -0.056513
v 0.095641 -0.153668 -0.082917
v 0.088735 -0.153668 -0.077804
v 0.129255 -0.270714 -0.101335
v 0.122509 -0.270714 -0.096075
v 0.127836 -0.468184 0.000000
v 0.145882 -0.476656 0.000000
v -0.115335 0.092680 0.016182
v -0.099513 0.086358 0.024634
v -0.032691 0.038842 0.037765
v 0.035009 -0.043655 0.056514
v 0.042110 -0.043655 0.061678
v 0.088735 -0.153668 0.077804
v 0.095640 -0.153668 0.082917
v 0.122509 -0.270714 0.096075
v 0.129255 -0.270714 0.101335
v 0.127675 -0.434429 -0.073896
v 0.144160 -0.434231 -0.085578
v 0.127012 -0.468043 -0.049235
v 0.144485 -0.476656 -0.048932
v 0.142558 -0.450457 -0.081949
v 0.126206 -0.449926 -0.070329
v 0.127012 -0.468043 0.049235
v 0.144485 -0.476656 0.048932
v 0.144160 -0.434231 0.085578
v 0.127675 -0.434429 0.073896
v 0.142558 -0.450457 0.081949
v 0.126206 -0.449926 0.070329
v 0.254828 -0.384825 -0.048489
v 0.235941 -0.384778 -0.073980
v 0.201151 -0.384732 -0.090296
v 0.201151 -0.384732 0.090296
v 0.235941 -0.384778 0.073980
v 0.254828 -0.384825 0.048489
v 0.263381 -0.384825 0.000000
v 0.132734 -0.387182 -0.075276
v 0.149534 -0.384732 -0.086946
v 0.149534 -0.384732 0.086946
v 0.132734 -0.387182 0.075276
v 0.287092 -0.347945 0.000000
v 0.288302 -0.376047 0.000000
v 0.285342 -0.381865 0.000000
v 0.279380 -0.347210 -0.063485
v 0.280648 -0.376047 -0.063618
v 0.277939 -0.381717 -0.061855
v 0.220770 -0.341149 -0.118223
v 0.220312 -0.381475 -0.115826
v 0.221901 -0.376061 -0.118548
v 0.262409 -0.345598 -0.096847
v 0.261439 -0.381498 -0.094876
v 0.263784 -0.376077 -0.097122
v 0.220770 -0.341149 0.118223
v 0.221901 -0.376061 0.118548
v 0.220312 -0.381475 0.115826
v 0.279380 -0.347210 0.063485
v 0.277939 -0.381717 0.061855
v 0.280648 -0.376047 0.063618
v 0.262409 -0.345598 0.096847
v 0.261439 -0.381498 0.094876
v 0.263784 -0.376077 0.097122
v 0.140973 -0.332592 -0.113815
v 0.141311 -0.376038 -0.114095
v 0.141471 -0.381513 -0.111363
v 0.132011 -0.331591 -0.108124
v 0.132707 -0.381567 -0.105621
v 0.132291 -0.376031 -0.108353
v 0.132011 -0.331591 0.108124
v 0.132291 -0.376031 0.108353
v 0.132707 -0.381567 0.105621
v 0.140973 -0.332592 0.113815
v 0.141471 -0.381513 0.111363
v 0.141311 -0.376038 0.114096
v 0.273278 -0.342960 -0.058430
v 0.280430 -0.343644 0.000000
v 0.273278 -0.342960 0.058430
v 0.257493 -0.341452 -0.089213
v 0.219211 -0.337361 -0.108926
v 0.146249 -0.329539 -0.104865
v 0.219211 -0.337361 0.108926
v 0.257493 -0.341452 0.089213
v 0.146248 -0.329539 0.104866
v 0.138043 -0.328624 -0.099614
v 0.138043 -0.328624 0.099614
vt 0.522340 0.512139
vt 0.541667 0.512031
vt 0.541667 0.584998
vt 0.521760 0.583333
vt 0.500000 0.583333
vt 0.500000 0.666667
vt 0.480537 0.666667
vt 0.478240 0.583333
vt 0.500000 0.750000
vt 0.485527 0.750000
vt 0.458333 0.666667
vt 0.458333 0.583333
vt 0.458333 0.583333
vt 0.458333 0.666667
vt 0.458334 0.906935
vt 0.458333 0.833333
vt 0.458333 0.862459
vt 0.500000 0.833333
vt 0.496791 0.833333
vt 0.519464 0.666667
vt 0.514474 0.750000
vt 0.537646 0.666667
vt 0.462354 0.666667
vt 0.463239 0.750000
vt 0.536761 0.750000
vt 0.465259 0.833333
vt 0.534741 0.833333
vt 0.538038 0.583333
vt 0.461962 0.583333
vt 0.500000 0.512200
vt 0.477661 0.512139
vt 0.458333 0.750000
vt 0.458333 0.750000
vt 0.500000 0.916667
vt 0.471242 0.916667
vt 0.541667 0.833333
vt 0.541667 0.906935
vt 0.541667 0.862459
vt 0.503210 0.833333
vt 0.458333 0.835734
vt 0.541667 0.753358
vt 0.541667 0.750000
vt 0.541667 0.833333
vt 0.458333 0.841529
vt 0.541667 0.669098
vt 0.541667 0.666667
vt 0.541667 0.583333
vt 0.541667 0.512016
vt 0.458333 0.753358
vt 0.458333 0.833333
vt 0.458333 0.669098
vt 0.458333 0.584998
vt 0.541667 0.512067
vt 0.538114 0.512102
vt 0.541667 0.583333
vt 0.458333 0.512031
vt 0.532059 0.840013
vt 0.541667 0.666667
vt 0.458333 0.512016
vt 0.541667 0.750000
vt 0.528758 0.916667
vt 0.461887 0.512102
vt 0.458333 0.512067
vt 0.545932 0.856140
vt 0.537063 0.499297
vt 0.541551 0.498656
vt 0.541667 0.492160
vt 0.538103 0.492144
vt 0.500000 0.498218
vt 0.477586 0.498338
vt 0.477626 0.492070
vt 0.500000 0.492070
vt 0.541667 0.498596
vt 0.541667 0.492151
vt 0.522414 0.498338
vt 0.522375 0.492070
vt 0.541667 0.498247
vt 0.541667 0.491567
vt 0.458333 0.498596
vt 0.458449 0.498656
vt 0.458333 0.492160
vt 0.458333 0.492151
vt 0.458333 0.498247
vt 0.458333 0.491567
vt 0.458333 0.508819
vt 0.458333 0.508766
vt 0.462937 0.499297
vt 0.461897 0.492144
vt 0.541565 0.504464
vt 0.522259 0.504627
vt 0.541667 0.508705
vt 0.522366 0.508894
vt 0.541667 0.504492
vt 0.541667 0.508766
vt 0.458435 0.504464
vt 0.458333 0.504492
vt 0.458333 0.508705
vt 0.477741 0.504627
vt 0.477634 0.508894
vt 0.500000 0.504575
vt 0.500000 0.508958
vt 0.537693 0.504146
vt 0.541513 0.504313
vt 0.538117 0.508855
vt 0.541667 0.508819
vt 0.458487 0.504313
vt 0.462307 0.504146
vt 0.461883 0.508855
vt 0.478547 0.416667
vt 0.500000 0.416667
vt 0.500000 0.416667
vt 0.478546 0.416667
vt 0.538006 0.453807
vt 0.461995 0.453807
vt 0.458333 0.453807
vt 0.458333 0.453807
vt 0.537768 0.439503
vt 0.462232 0.439503
vt 0.541667 0.453807
vt 0.541667 0.451570
vt 0.541667 0.437599
vt 0.541667 0.439573
vt 0.522103 0.438838
vt 0.522063 0.453330
vt 0.522604 0.416667
vt 0.521454 0.416667
vt 0.458333 0.439573
vt 0.458333 0.437599
vt 0.458333 0.451570
vt 0.521454 0.416667
vt 0.528394 0.416667
vt 0.541667 0.439510
vt 0.477937 0.453330
vt 0.477897 0.438838
vt 0.477396 0.416667
vt 0.458333 0.439510
vt 0.500000 0.416667
vt 0.500000 0.438845
vt 0.500000 0.453330
vt 0.541667 0.453807
vt 0.471606 0.416667
vt 0.500000 0.416667
vn 0.7055 0.6817 -0.1936
vn 0.5450 0.7160 -0.4363
vn 0.6372 0.3445 -0.6894
vn 0.8658 0.3938 -0.3088
vn 0.9207 0.3902 -0.0000
vn 0.8847 0.4661 0.0000
vn 0.8264 0.4639 0.3193
vn 0.8658 0.3938 0.3088
vn 0.7591 0.6509 0.0000
vn 0.7123 0.6401 0.2879
vn -0.3380 0.0398 0.9403
vn -0.3387 0.0050 0.9409
vn 0.1935 0.1855 0.9634
vn 0.1853 0.2691 0.9451
vn 0.1120 0.5574 0.8227
vn -0.1877 0.1366 0.9727
vn 0.2884 0.8248 0.4863
vn 0.5189 0.8548 0.0000
vn 0.5166 0.8342 0.1930
vn 0.8264 0.4639 -0.3193
vn 0.7123 0.6401 -0.2879
vn -0.9364 -0.3510 -0.0000
vn -0.8484 -0.5294 -0.0000
vn -0.6576 -0.6392 0.3988
vn -0.6576 -0.6392 -0.3988
vn -0.9635 -0.2676 -0.0000
vn 0.7487 0.6629 -0.0000
vn 0.7055 0.6817 0.1936
vn -0.3360 -0.0170 0.9417
vn 0.1340 0.3155 0.9394
vn 0.3191 0.9477 -0.0000
vn 0.3188 0.9470 0.0394
vn -0.1877 0.1366 -0.9727
vn 0.1120 0.5574 -0.8227
vn 0.2884 0.8248 -0.4863
vn 0.5166 0.8342 -0.1930
vn 0.4193 0.6680 0.6148
vn 0.5185 0.5583 -0.6476
vn 0.1340 0.3155 -0.9394
vn 0.4193 0.6680 -0.6148
vn 0.6011 0.4175 -0.6815
vn 0.1853 0.2691 -0.9451
vn 0.1935 0.1855 -0.9634
vn 0.3032 0.2024 -0.9312
vn 0.5185 0.5583 0.6476
vn 0.6011 0.4175 0.6815
vn 0.6372 0.3445 0.6894
vn -0.2666 -0.0223 -0.9635
vn -0.5761 -0.1115 -0.8098
vn -0.5930 -0.0751 -0.8017
vn -0.3387 0.0050 -0.9409
vn 0.5449 0.7160 0.4363
vn -0.3380 0.0398 -0.9403
vn 0.3032 0.2024 0.9312
vn -0.3360 -0.0170 -0.9417
vn 0.3188 0.9470 -0.0394
vn -0.5668 -0.8171 -0.1052
vn -0.5165 -0.5434 -0.6618
vn -0.5751 -0.2385 -0.7825
vn -0.5938 -0.1002 -0.7984
vn -0.5165 -0.5434 0.6618
vn -0.5668 -0.8171 0.1052
vn -0.5751 -0.2385 0.7825
vn -0.5938 -0.1002 0.7984
vn -0.5930 -0.0751 0.8017
vn -0.9659 -0.2591 -0.0000
vn -0.5528 -0.8333 0.0000
vn -0.5761 -0.1115 0.8098
vn -0.2666 -0.0223 0.9635
vn -0.0107 -0.9874 -0.1577
vn -0.0091 -0.9895 -0.1440
vn -0.0091 -0.9895 -0.1442
vn 0.1276 -0.9918 0.0000
vn 0.1054 -0.9935 0.0424
vn 0.1098 -0.9932 0.0379
vn 0.0282 -0.9938 -0.1073
vn 0.0126 -0.9930 -0.1173
vn 0.1054 -0.9935 -0.0424
vn 0.1098 -0.9932 -0.0379
vn 0.0694 -0.9947 -0.0758
vn 0.0654 -0.9947 -0.0792
vn 0.0282 -0.9938 0.1073
vn -0.0091 -0.9895 0.1440
vn -0.0091 -0.9895 0.1442
vn 0.0126 -0.9930 0.1173
vn 0.0694 -0.9947 0.0758
vn 0.0654 -0.9947 0.0792
vn 0.0107 0.9445 0.3285
vn -0.0073 0.9478 0.3188
vn 0.1723 0.9223 0.3459
vn 0.1725 0.9223 0.3459
vn -0.0107 -0.9874 0.1577
vn -0.9976 -0.0692 -0.0000
vn -0.9994 0.0334 -0.0000
vn 0.8452 -0.4778 -0.2393
vn 0.6071 -0.5153 -0.6049
vn 0.6917 -0.2374 -0.6820
vn 0.9319 -0.2209 -0.2876
vn 0.6958 0.0355 -0.7174
vn 0.9551 0.0438 -0.2931
vn 0.1560 -0.4802 -0.8631
vn 0.2148 -0.2332 -0.9484
vn 0.1866 0.0160 -0.9823
vn 0.1560 -0.4802 0.8632
vn 0.6071 -0.5153 0.6049
vn 0.6917 -0.2374 0.6820
vn 0.2148 -0.2332 0.9484
vn 0.6958 0.0355 0.7174
vn 0.1866 0.0160 0.9823
vn 0.8452 -0.4778 0.2393
vn 0.9319 -0.2209 0.2876
vn 0.9551 0.0438 0.2931
vn 0.8901 -0.4557 0.0000
vn 0.9779 -0.2091 0.0000
vn 0.9990 0.0438 -0.0000
vn -0.2955 -0.4352 -0.8505
vn -0.4948 -0.4070 -0.7678
vn -0.5261 -0.2182 -0.8219
vn -0.2918 -0.2151 -0.9320
vn -0.5365 0.0011 -0.8439
vn -0.3229 0.0038 -0.9464
vn -0.4948 -0.4070 0.7678
vn -0.2955 -0.4351 0.8505
vn -0.2918 -0.2151 0.9320
vn -0.5261 -0.2182 0.8219
vn -0.3229 0.0038 0.9464
vn -0.5365 0.0011 0.8439
vn -0.9994 -0.0349 -0.0000
vn -1.0000 -0.0063 -0.0000
vn 0.4860 0.8631 -0.1375
vn 0.5411 0.8409 -0.0000
vn -0.1886 0.9611 0.2019
vn -0.3053 0.9455 0.1135
vn -0.1886 0.9611 -0.2019
vn -0.3053 0.9455 -0.1135
vn -0.0073 0.9478 -0.3188
vn 0.0107 0.9445 -0.3285
vn 0.1725 0.9223 -0.3459
vn 0.1723 0.9223 -0.3459
vn 0.3474 0.8990 0.2666
vn 0.4860 0.8631 0.1375
vn 0.3474 0.8990 -0.2666
vn -0.2101 -0.9303 0.3005
vn -0.2185 -0.9758 -0.0000
vn 0.1723 -0.9850 0.0000
vn 0.1603 -0.9428 0.2922
vn -0.9949 0.1010 -0.0000
vn -0.3039 0.0065 0.9527
vn -0.3292 -0.0854 0.9404
vn 0.1765 -0.1443 0.9737
vn 0.2061 -0.0580 0.9768
vn -0.9988 0.0499 -0.0000
vn 0.1765 -0.1443 -0.9737
vn 0.6170 -0.1899 -0.7637
vn 0.5143 -0.5208 -0.6813
vn 0.1607 -0.5369 -0.8282
vn 0.8038 -0.4787 -0.3532
vn 0.8947 -0.2278 -0.3841
vn 0.5153 -0.8084 -0.2845
vn 0.1603 -0.9428 -0.2922
vn 0.1607 -0.5369 0.8282
vn 0.5143 -0.5208 0.6813
vn 0.6170 -0.1899 0.7637
vn -0.2101 -0.9303 -0.3005
vn -0.4279 -0.8422 -0.3281
vn -0.4917 -0.5053 -0.7091
vn -0.2855 -0.4942 -0.8211
vn 0.8947 -0.2278 0.3842
vn 0.8038 -0.4787 0.3532
vn 0.5153 -0.8084 0.2845
vn -0.2855 -0.4942 0.8211
vn 0.6392 -0.1154 0.7603
vn 0.5802 -0.8145 0.0000
vn 0.8689 -0.4951 0.0000
vn 0.9707 -0.2403 0.0000
vn 0.2061 -0.0580 -0.9768
vn 0.6392 -0.1154 -0.7603
vn -0.3292 -0.0854 -0.9404
vn -0.5773 -0.0530 -0.8148
vn -0.4917 -0.5053 0.7091
vn -0.4279 -0.8422 0.3281
vn -0.9980 -0.0629 -0.0000
vn -0.5773 -0.0530 0.8148
vn -0.4335 -0.9011 -0.0000
vn -0.5760 0.0389 0.8165
vn -0.5760 0.0389 -0.8165
vn -0.3039 0.0065 -0.9527
vn 0.9098 -0.1434 0.3894
vn 0.9098 -0.1434 -0.3894
vn 0.9891 -0.1471 0.0000
usemtl BlueDark
s 2
f 128/1/1 131/2/2 18/3/3 16/4/4
s 3
f 5/5/5 4/6/6 39/7/7 42/8/8
s 4
f 4/6/6 3/9/9 36/10/10 39/7/7
s 5
f 69/11/11 71/12/12 41/13/13 38/14/14
s 6
f 64/15/15 31/16/16 33/17/17
s 7
f 3/9/9 2/18/18 32/19/19 36/10/10
s 9
f 16/4/4 13/20/20 4/6/6 5/5/5
s 10
f 13/20/20 10/21/21 3/9/9 4/6/6
s 11
f 58/22/22 68/23/22 66/24/23 56/25/23
s 12
f 56/25/23 66/24/23 65/26/24 54/27/25
s 16
f 60/28/26 70/29/26 68/23/22 58/22/22
s 17
f 129/30/27 5/5/5 42/8/8 130/31/28
s 18
f 67/32/29 69/11/11 38/14/14 35/33/30
s 19
f 31/16/16 67/32/29 35/33/30
s 20
f 2/18/18 1/34/31 63/35/32 64/15/32 33/17/17 32/19/19
s 24
f 7/36/33 52/37/34 8/38/35
s 25
f 10/21/21 6/39/36 2/18/18 3/9/9
s 26
f 31/16/16 34/40/37 33/17/17
s 28
f 12/41/38 11/42/39 7/36/33 9/43/40
s 32
f 34/40/37 32/44/19 33/17/17
s 40
f 10/21/21 12/41/38 9/43/40 6/39/36
s 42
f 13/20/20 15/45/41 12/41/38 10/21/21
s 43
f 15/45/41 14/46/42 11/42/39 12/41/38
s 44
f 16/4/4 18/3/3 15/45/41 13/20/20
s 45
f 18/3/3 17/47/43 14/46/42 15/45/41
s 49
f 131/2/2 132/48/44 17/47/43 18/3/3
s 50
f 37/49/45 36/10/10 32/19/19 34/50/37
s 52
f 35/33/30 37/49/45 34/50/37 31/16/16
s 55
f 38/14/14 40/51/46 37/49/45 35/33/30
s 56
f 40/51/46 39/7/7 36/10/10 37/49/45
s 57
f 41/13/13 43/52/47 40/51/46 38/14/14
s 58
f 43/52/47 42/8/8 39/7/7 40/51/46
s 59
f 133/53/48 137/54/49 60/28/50 59/55/51
s 61
f 135/56/52 130/31/28 42/8/8 43/52/47
s 65
f 6/39/36 9/57/40 8/38/35
s 66
f 59/55/51 57/58/53 14/46/42 17/47/43
s 67
f 134/59/54 135/56/52 43/52/47 41/13/13
s 68
f 133/53/48 59/55/51 17/47/43 132/48/44
s 71
f 57/58/53 55/60/55 11/42/39 14/46/42
s 72
f 55/60/55 7/36/33 11/42/39
s 73
f 6/39/36 8/38/35 52/37/56 53/61/56 1/34/31 2/18/18
s 74
f 7/36/33 54/27/25 53/61/57 52/37/58
s 75
f 55/60/55 56/25/59 54/27/25 7/36/33
s 76
f 57/58/53 58/22/60 56/25/59 55/60/55
s 77
f 59/55/51 60/28/50 58/22/60 57/58/53
s 79
f 65/26/24 31/16/16 64/15/61 63/35/62
s 80
f 66/24/63 67/32/29 31/16/16 65/26/24
s 81
f 68/23/64 69/11/11 67/32/29 66/24/63
s 82
f 70/29/65 71/12/12 69/11/11 68/23/64
s 88
f 137/54/66 138/62/66 70/29/26 60/28/26
s 91
f 54/27/25 65/26/24 63/35/62 1/34/67 53/61/57
s 101
f 138/62/68 136/63/69 71/12/12 70/29/65
s 103
f 9/57/40 7/64/33 8/38/35
s 126
f 128/1/1 16/4/4 5/5/5 129/30/27
s 134
f 71/12/12 136/63/69 134/59/54 41/13/13
usemtl Gold
s 8
f 120/65/70 118/66/71 92/67/72 91/68/70
s 13
f 97/69/73 111/70/74 89/71/75 90/72/73
s 14
f 118/66/71 102/73/76 86/74/77 92/67/72
s 21
f 100/75/78 97/69/73 90/72/73 84/76/79
s 46
f 102/73/76 105/77/80 85/78/81 86/74/77
s 47
f 109/79/82 126/80/83 93/81/84 87/82/85
s 48
f 114/83/86 109/79/82 87/82/85 88/84/87
s 60
f 136/63/88 125/85/89 107/86/90 134/59/91
s 78
f 126/80/83 124/87/92 94/88/92 93/81/84
s 83
f 124/87/93 120/65/93 91/68/94 94/88/94
s 99
f 111/70/74 114/83/86 88/84/87 89/71/75
s 104
f 100/75/95 105/77/96 106/89/97 99/90/98
s 105
f 99/90/98 106/89/97 104/91/99 98/92/100
s 106
f 105/77/96 102/73/101 103/93/102 106/89/97
s 107
f 106/89/97 103/93/102 101/94/103 104/91/99
s 108
f 109/79/104 114/83/105 115/95/106 108/96/107
s 109
f 108/96/107 115/95/106 113/97/108 107/86/109
s 110
f 114/83/105 111/70/110 112/98/111 115/95/106
s 111
f 115/95/106 112/98/111 110/99/112 113/97/108
s 112
f 97/69/113 100/75/95 99/90/98 96/100/114
s 113
f 96/100/114 99/90/98 98/92/100 95/101/115
s 114
f 95/101/115 110/99/112 112/98/111 96/100/114
s 115
f 96/100/114 112/98/111 111/70/110 97/69/113
s 116
f 118/66/116 120/65/117 121/102/118 117/103/119
s 117
f 117/103/119 121/102/118 119/104/120 116/105/121
s 118
f 124/87/122 126/80/123 127/106/124 123/107/125
s 119
f 123/107/125 127/106/124 125/85/126 122/108/127
s 120
f 120/65/93 124/87/93 123/107/128 121/102/128
s 121
f 121/102/128 123/107/128 122/108/129 119/104/129
s 122
f 102/73/101 118/66/116 117/103/119 103/93/102
s 123
f 103/93/102 117/103/119 116/105/121 101/94/103
s 124
f 126/80/123 109/79/104 108/96/107 127/106/124
s 125
f 127/106/124 108/96/107 107/86/109 125/85/126
s 127
f 105/77/80 100/75/78 84/76/79 85/78/81
s 128
f 98/92/130 128/1/1 129/30/27 95/101/131
s 129
f 122/108/132 125/85/89 136/63/88 138/62/133
s 130
f 119/104/134 122/108/132 138/62/133 137/54/135
s 131
f 116/105/136 133/53/137 132/48/138 101/94/139
s 132
f 107/86/90 113/97/140 135/56/52 134/59/91
s 133
f 113/97/140 110/99/141 130/31/28 135/56/52
s 135
f 116/105/136 119/104/134 137/54/135 133/53/137
s 136
f 104/91/142 101/94/139 132/48/138 131/2/2
s 137
f 95/101/131 129/30/27 130/31/28 110/99/141
s 138
f 98/92/130 104/91/142 131/2/2 128/1/1
usemtl PinkLight
s 1
f 79/109/143 62/110/144 28/111/145 44/112/146
s 15
f 91/68/94 72/113/147 81/114/147 94/88/94
s 22
f 93/81/148 80/115/149 46/116/150 87/82/151
s 23
f 72/113/147 77/117/152 83/118/152 81/114/147
s 27
f 20/119/153 22/120/154 24/121/155 23/122/156
s 29
f 25/123/157 24/121/155 22/120/154 21/124/158
s 30
f 23/122/156 24/121/155 26/125/159 19/126/160
s 31
f 26/125/159 24/121/155 25/123/157
s 33
f 51/127/161 50/128/162 48/129/163 46/116/150
s 34
f 75/130/164 74/131/165 77/117/166 76/132/167
s 35
f 45/133/168 48/129/163 50/128/162 49/134/169
s 36
f 49/134/169 50/128/162 47/135/170
s 37
f 46/116/150 80/115/149 82/136/171 51/127/161
s 38
f 44/112/146 47/135/170 50/128/162 51/127/161
s 39
f 76/132/167 23/122/156 19/126/160 75/130/164
s 41
f 79/109/143 44/112/146 51/127/161 82/136/171
s 51
f 46/116/150 48/129/163 88/84/172 87/82/151
s 53
f 30/137/173 26/125/159 25/123/157 29/138/174
s 54
f 29/138/174 25/123/157 21/124/158 27/139/175
s 62
f 20/119/153 86/74/176 85/78/177 22/120/154
s 63
f 47/135/170 30/137/173 29/138/174 49/134/169
s 64
f 49/134/169 29/138/174 27/139/175 45/133/168
s 69
f 23/122/156 76/132/167 73/140/178 20/119/153
s 70
f 62/110/144 75/130/164 19/126/160 28/111/145
s 84
f 76/132/167 77/117/166 72/113/179 73/140/178
s 85
f 82/136/171 83/118/180 78/141/181 79/109/143
s 86
f 77/117/152 74/131/182 61/142/182 78/141/182 83/118/152
s 87
f 80/115/149 81/114/183 83/118/180 82/136/171
s 89
f 62/110/144 61/142/184 74/131/165 75/130/164
s 90
f 79/109/143 78/141/181 61/142/184 62/110/144
s 92
f 80/115/149 93/81/148 94/88/185 81/114/183
s 93
f 72/113/179 91/68/186 92/67/187 73/140/178
s 94
f 73/140/178 92/67/187 86/74/176 20/119/153
s 95
f 28/111/145 30/137/173 47/135/170 44/112/146
s 96
f 45/133/168 89/71/188 88/84/172 48/129/163
s 97
f 19/126/160 26/125/159 30/137/173 28/111/145
s 98
f 21/124/158 22/120/154 85/78/177 84/76/189
s 100
f 21/124/158 84/76/189 90/72/190 27/139/175
s 102
f 27/139/175 90/72/190 89/71/188 45/133/168
