{
    "asset" : {
        "generator" : "Khronos glTF Blender I/O v0.9.36",
        "version" : "2.0"
    },
    "scene" : 0,
    "scenes" : [
        {
            "name" : "Scene",
            "nodes" : [
                3
            ]
        }
    ],
    "nodes" : [
        {
            "mesh" : 0,
            "name" : "character_monsterArmLeft",
            "translation" : [
                0.20404529571533203,
                0.6335563659667969,
                0
            ]
        },
        {
            "mesh" : 1,
            "name" : "character_monsterArmRight",
            "translation" : [
                -0.20404553413391113,
                0.6335563063621521,
                0
            ]
        },
        {
            "mesh" : 2,
            "name" : "character_monsterHead",
            "translation" : [
                0,
                0.7037110328674316,
                0
            ]
        },
        {
            "children" : [
                0,
                1,
                2
            ],
            "mesh" : 3,
            "name" : "character_monster"
        }
    ],
    "materials" : [
        {
            "doubleSided" : true,
            "name" : "Brown",
            "pbrMetallicRoughness" : {
                "baseColorFactor" : [
                    0.5778115391731262,
                    0.23347531259059906,
                    0.11534765362739563,
                    1
                ],
                "metallicFactor" : 0,
                "roughnessFactor" : 0.5
            }
        },
        {
            "doubleSided" : true,
            "name" : "BlueLight",
            "pbrMetallicRoughness" : {
                "baseColorFactor" : [
                    0.3603615462779999,
                    0.5287242531776428,
                    0.7185794115066528,
                    1
                ],
                "metallicFactor" : 0,
                "roughnessFactor" : 0.5
            }
        },
        {
            "name" : "Black",
            "pbrMetallicRoughness" : {
                "baseColorFactor" : [
                    0.019794002175331116,
                    0.03207586705684662,
                    0.037408243864774704,
                    1
                ],
                "metallicFactor" : 0,
                "roughnessFactor" : 0.20000000298023224
            }
        },
        {
            "name" : "White",
            "pbrMetallicRoughness" : {
                "baseColorFactor" : [
                    0.799102783203125,
                    0.799102783203125,
                    0.799102783203125,
                    1
                ],
                "metallicFactor" : 0,
                "roughnessFactor" : 0.5
            }
        },
        {
            "name" : "Metal",
            "pbrMetallicRoughness" : {
                "baseColorFactor" : [
                    0.40126433968544006,
                    0.47849249839782715,
                    0.5173344612121582,
                    1
                ],
                "metallicFactor" : 0.20000000298023224,
                "roughnessFactor" : 0.30000001192092896
            }
        },
        {
            "name" : "BrownDark",
            "pbrMetallicRoughness" : {
                "baseColorFactor" : [
                    0.32694560289382935,
                    0.10152623057365417,
                    0.05927089974284172,
                    1
                ],
                "metallicFactor" : 0,
                "roughnessFactor" : 0.4000000059604645
            }
        }
    ],
    "meshes" : [
        {
            "name" : "Cube.053",
            "primitives" : [
                {
                    "attributes" : {
                        "POSITION" : 0,
                        "NORMAL" : 1,
                        "TEXCOORD_0" : 2
                    },
                    "indices" : 3,
                    "material" : 0
                },
                {
                    "attributes" : {
                        "POSITION" : 4,
                        "NORMAL" : 5,
                        "TEXCOORD_0" : 6
                    },
                    "indices" : 7,
                    "material" : 1
                }
            ]
        },
        {
            "name" : "Cube.033",
            "primitives" : [
                {
                    "attributes" : {
                        "POSITION" : 8,
                        "NORMAL" : 9,
                        "TEXCOORD_0" : 10
                    },
                    "indices" : 11,
                    "material" : 0
                },
                {
                    "attributes" : {
                        "POSITION" : 12,
                        "NORMAL" : 13,
                        "TEXCOORD_0" : 14
                    },
                    "indices" : 15,
                    "material" : 1
                }
            ]
        },
        {
            "name" : "Cube.034",
            "primitives" : [
                {
                    "attributes" : {
                        "POSITION" : 16,
                        "NORMAL" : 17,
                        "TEXCOORD_0" : 18
                    },
                    "indices" : 19,
                    "material" : 1
                },
                {
                    "attributes" : {
                        "POSITION" : 20,
                        "NORMAL" : 21,
                        "TEXCOORD_0" : 22
                    },
                    "indices" : 23,
                    "material" : 2
                },
                {
                    "attributes" : {
                        "POSITION" : 24,
                        "NORMAL" : 25,
                        "TEXCOORD_0" : 26
                    },
                    "indices" : 27,
                    "material" : 3
                },
                {
                    "attributes" : {
                        "POSITION" : 28,
                        "NORMAL" : 29,
                        "TEXCOORD_0" : 30
                    },
                    "indices" : 31,
                    "material" : 4
                }
            ]
        },
        {
            "name" : "Cube.045",
            "primitives" : [
                {
                    "attributes" : {
                        "POSITION" : 32,
                        "NORMAL" : 33,
                        "TEXCOORD_0" : 34
                    },
                    "indices" : 35,
                    "material" : 0
                },
                {
                    "attributes" : {
                        "POSITION" : 36,
                        "NORMAL" : 37,
                        "TEXCOORD_0" : 38
                    },
                    "indices" : 39,
                    "material" : 5
                },
                {
                    "attributes" : {
                        "POSITION" : 40,
                        "NORMAL" : 41,
                        "TEXCOORD_0" : 42
                    },
                    "indices" : 43,
                    "material" : 1
                }
            ]
        }
    ],
    "accessors" : [
        {
            "bufferView" : 0,
            "componentType" : 5126,
            "count" : 54,
            "max" : [
                0.12755003571510315,
                0.09418356418609619,
                0.06405441462993622
            ],
            "min" : [
                -0.11533478647470474,
                -0.04365527629852295,
                -0.06405436992645264
            ],
            "type" : "VEC3"
        },
        {
            "bufferView" : 1,
            "componentType" : 5126,
            "count" : 54,
            "type" : "VEC3"
        },
        {
            "bufferView" : 2,
            "componentType" : 5126,
            "count" : 54,
            "type" : "VEC2"
        },
        {
            "bufferView" : 3,
            "componentType" : 5123,
            "count" : 213,
            "type" : "SCALAR"
        },
        {
            "bufferView" : 4,
            "componentType" : 5126,
            "count" : 157,
            "max" : [
                0.26490139961242676,
                -0.04365527629852295,
                0.09058663994073868
            ],
            "min" : [
                0.03500893712043762,
                -0.47665560245513916,
                -0.0905865803360939
            ],
            "type" : "VEC3"
        },
        {
            "bufferView" : 5,
            "componentType" : 5126,
            "count" : 157,
            "type" : "VEC3"
        },
        {
            "bufferView" : 6,
            "componentType" : 5126,
            "count" : 157,
            "type" : "VEC2"
        },
        {
            "bufferView" : 7,
            "componentType" : 5123,
            "count" : 765,
            "type" : "SCALAR"
        },
        {
            "bufferView" : 8,
            "componentType" : 5126,
            "count" : 62,
            "max" : [
                0.11533510684967041,
                0.09418362379074097,
                0.06405436247587204
            ],
            "min" : [
                -0.12754976749420166,
                -0.043655335903167725,
                -0.06405443698167801
            ],
            "type" : "VEC3"
        },
        {
            "bufferView" : 9,
            "componentType" : 5126,
            "count" : 62,
            "type" : "VEC3"
        },
        {
            "bufferView" : 10,
            "componentType" : 5126,
            "count" : 62,
            "type" : "VEC2"
        },
        {
            "bufferView" : 11,
            "componentType" : 5123,
            "count" : 213,
            "type" : "SCALAR"
        },
        {
            "bufferView" : 12,
            "componentType" : 5126,
            "count" : 170,
            "max" : [
                -0.035008758306503296,
                -0.043655335903167725,
                0.09058663249015808
            ],
            "min" : [
                -0.26490116119384766,
                -0.4766555428504944,
                -0.0905865952372551
            ],
            "type" : "VEC3"
        },
        {
            "bufferView" : 13,
            "componentType" : 5126,
            "count" : 170,
            "type" : "VEC3"
        },
        {
            "bufferView" : 14,
            "componentType" : 5126,
            "count" : 170,
            "type" : "VEC2"
        },
        {
            "bufferView" : 15,
            "componentType" : 5123,
            "count" : 765,
            "type" : "SCALAR"
        },
        {
            "bufferView" : 16,
            "componentType" : 5126,
            "count" : 618,
            "max" : [
                0.4999995827674866,
                1.1583303213119507,
                0.5645545721054077
            ],
            "min" : [
                -0.4999998211860657,
                0,
                -0.49999961256980896
            ],
            "type" : "VEC3"
        },
        {
            "bufferView" : 17,
            "componentType" : 5126,
            "count" : 618,
            "type" : "VEC3"
        },
        {
            "bufferView" : 18,
            "componentType" : 5126,
            "count" : 618,
            "type" : "VEC2"
        },
        {
            "bufferView" : 19,
            "componentType" : 5123,
            "count" : 2712,
            "type" : "SCALAR"
        },
        {
            "bufferView" : 20,
            "componentType" : 5126,
            "count" : 947,
            "max" : [
                0.40315893292427063,
                1.4140169620513916,
                0.5214751958847046
            ],
            "min" : [
                -0.4025675654411316,
                0.35582518577575684,
                -0.4147314131259918
            ],
            "type" : "VEC3"
        },
        {
            "bufferView" : 21,
            "componentType" : 5126,
            "count" : 947,
            "type" : "VEC3"
        },
        {
            "bufferView" : 22,
            "componentType" : 5126,
            "count" : 947,
            "type" : "VEC2"
        },
        {
            "bufferView" : 23,
            "componentType" : 5123,
            "count" : 4029,
            "type" : "SCALAR"
        },
        {
            "bufferView" : 24,
            "componentType" : 5126,
            "count" : 170,
            "max" : [
                0.2671826481819153,
                0.2864329218864441,
                0.47734400629997253
            ],
            "min" : [
                -0.26718270778656006,
                0.19682544469833374,
                0.39939990639686584
            ],
            "type" : "VEC3"
        },
        {
            "bufferView" : 25,
            "componentType" : 5126,
            "count" : 170,
            "type" : "VEC3"
        },
        {
            "bufferView" : 26,
            "componentType" : 5126,
            "count" : 170,
            "type" : "VEC2"
        },
        {
            "bufferView" : 27,
            "componentType" : 5123,
            "count" : 648,
            "type" : "SCALAR"
        },
        {
            "bufferView" : 28,
            "componentType" : 5126,
            "count" : 104,
            "max" : [
                0.657069981098175,
                0.8540095090866089,
                0.14377859234809875
            ],
            "min" : [
                -0.6570699214935303,
                0.6049774885177612,
                -0.14377883076667786
            ],
            "type" : "VEC3"
        },
        {
            "bufferView" : 29,
            "componentType" : 5126,
            "count" : 104,
            "type" : "VEC3"
        },
        {
            "bufferView" : 30,
            "componentType" : 5126,
            "count" : 104,
            "type" : "VEC2"
        },
        {
            "bufferView" : 31,
            "componentType" : 5123,
            "count" : 408,
            "type" : "SCALAR"
        },
        {
            "bufferView" : 32,
            "componentType" : 5126,
            "count" : 277,
            "max" : [
                0.34227097034454346,
                0.7255613207817078,
                0.3539828360080719
            ],
            "min" : [
                -0.3415714502334595,
                -2.2351741790771484e-08,
                -0.36246123909950256
            ],
            "type" : "VEC3"
        },
        {
            "bufferView" : 33,
            "componentType" : 5126,
            "count" : 277,
            "type" : "VEC3"
        },
        {
            "bufferView" : 34,
            "componentType" : 5126,
            "count" : 277,
            "type" : "VEC2"
        },
        {
            "bufferView" : 35,
            "componentType" : 5123,
            "count" : 1116,
            "type" : "SCALAR"
        },
        {
            "bufferView" : 36,
            "componentType" : 5126,
            "count" : 126,
            "max" : [
                0.33807387948036194,
                0.250007301568985,
                0.33807381987571716
            ],
            "min" : [
                -0.33807387948036194,
                -2.2351741790771484e-08,
                -0.3380739390850067
            ],
            "type" : "VEC3"
        },
        {
            "bufferView" : 37,
            "componentType" : 5126,
            "count" : 126,
            "type" : "VEC3"
        },
        {
            "bufferView" : 38,
            "componentType" : 5126,
            "count" : 126,
            "type" : "VEC2"
        },
        {
            "bufferView" : 39,
            "componentType" : 5123,
            "count" : 468,
            "type" : "SCALAR"
        },
        {
            "bufferView" : 40,
            "componentType" : 5126,
            "count" : 8,
            "max" : [
                0.22771665453910828,
                0.5650272965431213,
                0.27607864141464233
            ],
            "min" : [
                -0.19588717818260193,
                0.32357341051101685,
                -0.22665193676948547
            ],
            "type" : "VEC3"
        },
        {
            "bufferView" : 41,
            "componentType" : 5126,
            "count" : 8,
            "type" : "VEC3"
        },
        {
            "bufferView" : 42,
            "componentType" : 5126,
            "count" : 8,
            "type" : "VEC2"
        },
        {
            "bufferView" : 43,
            "componentType" : 5123,
            "count" : 12,
            "type" : "SCALAR"
        }
    ],
    "bufferViews" : [
        {
            "buffer" : 0,
            "byteLength" : 648,
            "byteOffset" : 0
        },
        {
            "buffer" : 0,
            "byteLength" : 648,
            "byteOffset" : 648
        },
        {
            "buffer" : 0,
            "byteLength" : 432,
            "byteOffset" : 1296
        },
        {
            "buffer" : 0,
            "byteLength" : 426,
            "byteOffset" : 1728
        },
        {
            "buffer" : 0,
            "byteLength" : 1884,
            "byteOffset" : 2156
        },
        {
            "buffer" : 0,
            "byteLength" : 1884,
            "byteOffset" : 4040
        },
        {
            "buffer" : 0,
            "byteLength" : 1256,
            "byteOffset" : 5924
        },
        {
            "buffer" : 0,
            "byteLength" : 1530,
            "byteOffset" : 7180
        },
        {
            "buffer" : 0,
            "byteLength" : 744,
            "byteOffset" : 8712
        },
        {
            "buffer" : 0,
            "byteLength" : 744,
            "byteOffset" : 9456
        },
        {
            "buffer" : 0,
            "byteLength" : 496,
            "byteOffset" : 10200
        },
        {
            "buffer" : 0,
            "byteLength" : 426,
            "byteOffset" : 10696
        },
        {
            "buffer" : 0,
            "byteLength" : 2040,
            "byteOffset" : 11124
        },
        {
            "buffer" : 0,
            "byteLength" : 2040,
            "byteOffset" : 13164
        },
        {
            "buffer" : 0,
            "byteLength" : 1360,
            "byteOffset" : 15204
        },
        {
            "buffer" : 0,
            "byteLength" : 1530,
            "byteOffset" : 16564
        },
        {
            "buffer" : 0,
            "byteLength" : 7416,
            "byteOffset" : 18096
        },
        {
            "buffer" : 0,
            "byteLength" : 7416,
            "byteOffset" : 25512
        },
        {
            "buffer" : 0,
            "byteLength" : 4944,
            "byteOffset" : 32928
        },
        {
            "buffer" : 0,
            "byteLength" : 5424,
            "byteOffset" : 37872
        },
        {
            "buffer" : 0,
            "byteLength" : 11364,
            "byteOffset" : 43296
        },
        {
            "buffer" : 0,
            "byteLength" : 11364,
            "byteOffset" : 54660
        },
        {
            "buffer" : 0,
            "byteLength" : 7576,
            "byteOffset" : 66024
        },
        {
            "buffer" : 0,
            "byteLength" : 8058,
            "byteOffset" : 73600
        },
        {
            "buffer" : 0,
            "byteLength" : 2040,
            "byteOffset" : 81660
        },
        {
            "buffer" : 0,
            "byteLength" : 2040,
            "byteOffset" : 83700
        },
        {
            "buffer" : 0,
            "byteLength" : 1360,
            "byteOffset" : 85740
        },
        {
            "buffer" : 0,
            "byteLength" : 1296,
            "byteOffset" : 87100
        },
        {
            "buffer" : 0,
            "byteLength" : 1248,
            "byteOffset" : 88396
        },
        {
            "buffer" : 0,
            "byteLength" : 1248,
            "byteOffset" : 89644
        },
        {
            "buffer" : 0,
            "byteLength" : 832,
            "byteOffset" : 90892
        },
        {
            "buffer" : 0,
            "byteLength" : 816,
            "byteOffset" : 91724
        },
        {
            "buffer" : 0,
            "byteLength" : 3324,
            "byteOffset" : 92540
        },
        {
            "buffer" : 0,
            "byteLength" : 3324,
            "byteOffset" : 95864
        },
        {
            "buffer" : 0,
            "byteLength" : 2216,
            "byteOffset" : 99188
        },
        {
            "buffer" : 0,
            "byteLength" : 2232,
            "byteOffset" : 101404
        },
        {
            "buffer" : 0,
            "byteLength" : 1512,
            "byteOffset" : 103636
        },
        {
            "buffer" : 0,
            "byteLength" : 1512,
            "byteOffset" : 105148
        },
        {
            "buffer" : 0,
            "byteLength" : 1008,
            "byteOffset" : 106660
        },
        {
            "buffer" : 0,
            "byteLength" : 936,
            "byteOffset" : 107668
        },
        {
            "buffer" : 0,
            "byteLength" : 96,
            "byteOffset" : 108604
        },
        {
            "buffer" : 0,
            "byteLength" : 96,
            "byteOffset" : 108700
        },
        {
            "buffer" : 0,
            "byteLength" : 64,
            "byteOffset" : 108796
        },
        {
            "buffer" : 0,
            "byteLength" : 24,
            "byteOffset" : 108860
        }
    ],
    "buffers" : [
        {
            "byteLength" : 108884,
            "uri" : "data:application/octet-stream;base64,"
        }
    ]
}
