# Blender v2.80 (sub 75) OBJ File: 'MCOTMC_April2021_Merchant_Source.blend'
# www.blender.org
mtllib katana.mtl
o katana_Cube.5987
v -0.010908 -0.227969 -0.018902
v 0.010908 -0.227969 -0.018902
v 0.010908 -0.227969 0.018885
v -0.010908 -0.227969 0.018885
v -0.019257 -0.254061 -0.039813
v 0.019257 -0.254061 -0.039813
v 0.019257 -0.254061 0.039796
v -0.019257 -0.254061 0.039796
v 0.000000 -0.274222 -0.000008
v -0.018774 -0.227969 -0.010848
v -0.015144 0.130092 -0.026238
v 0.015144 0.130092 -0.026238
v 0.018774 -0.227969 -0.010848
v 0.018774 -0.227969 0.010831
v 0.015144 0.130092 0.026222
v -0.015144 0.130092 0.026222
v -0.018774 -0.227969 0.010831
v -0.033193 -0.254061 -0.022878
v 0.033193 -0.254061 -0.022878
v 0.033193 -0.254061 0.022861
v -0.033193 -0.254061 0.022861
v -0.018374 -0.263916 0.031816
v -0.018373 -0.263916 -0.031832
v 0.018374 -0.263916 -0.031832
v 0.018374 -0.263916 0.031816
v 0.030810 -0.263916 0.017780
v 0.030810 -0.263916 -0.017796
v -0.030810 -0.263916 -0.017796
v -0.030810 -0.263916 0.017780
v -0.026230 0.130092 0.015136
v 0.026230 0.130092 0.015136
v 0.026230 0.130092 -0.015152
v -0.026230 0.130092 -0.015152
v -0.000000 0.151708 0.049468
v -0.000000 1.239388 -0.052397
v 0.011216 0.152785 -0.047838
v -0.011217 0.152785 -0.047838
v -0.011217 1.035464 -0.049374
v 0.011216 1.035464 -0.049374
v -0.000000 1.035628 0.048410
v -0.000000 1.181053 -0.004301
v -0.000000 1.150622 0.015750
v -0.000000 1.112547 0.032846
v -0.000000 1.072738 0.044308
v 0.011216 0.152258 0.000740
v -0.011217 0.152258 0.000740
v -0.005608 1.035546 -0.000482
v 0.005608 1.035546 -0.000482
v -0.000000 0.156428 -0.000008
v -0.042777 0.130092 0.074086
v -0.074092 0.130092 0.042770
v 0.042777 0.130092 0.074085
v 0.074092 0.130092 0.042770
v 0.074092 0.130092 -0.042784
v 0.042777 0.130092 -0.074099
v -0.042777 0.130092 -0.074099
v -0.074092 0.130092 -0.042784
v -0.042777 0.156428 0.074086
v -0.074092 0.156428 0.042770
v 0.042777 0.156428 0.074085
v 0.074092 0.156428 0.042770
v 0.074092 0.156428 -0.042784
v 0.042777 0.156428 -0.074099
v -0.042777 0.156428 -0.074099
v -0.074092 0.156428 -0.042784
v 0.081767 0.143260 0.047202
v 0.081767 0.143260 -0.047215
v 0.047208 0.143260 0.081760
v -0.081767 0.143260 -0.047215
v -0.081767 0.143260 0.047202
v 0.047208 0.143260 -0.081774
v -0.047208 0.143260 -0.081774
v -0.047208 0.143260 0.081761
v 0.033617 -0.245667 -0.000008
v 0.033617 0.134007 -0.000008
v 0.029113 -0.245667 0.019062
v 0.029113 0.134007 0.019062
v 0.016809 -0.245667 0.033022
v 0.016809 0.134007 0.033022
v -0.000000 -0.245667 0.038132
v -0.000000 0.134007 0.038132
v -0.016809 -0.245667 0.033022
v -0.016809 0.134007 0.033022
v -0.029114 -0.245667 0.019062
v -0.029114 0.134007 0.019062
v -0.033617 -0.245667 -0.000008
v -0.033617 0.134007 -0.000008
v -0.029114 -0.245667 -0.019079
v -0.029114 0.134007 -0.019079
v -0.016809 -0.245667 -0.033039
v -0.016809 0.134007 -0.033039
v -0.000000 -0.245667 -0.038149
v -0.000000 0.134007 -0.038149
v 0.016809 -0.245667 -0.033039
v 0.016809 0.134007 -0.033039
v 0.029113 -0.245667 -0.019079
v 0.029113 0.134007 -0.019079
vt 0.500000 0.000000
vt 0.625000 0.250000
vt 0.500000 0.250000
vt 0.605769 0.500000
vt 0.625000 0.500000
vt 0.605769 0.625000
vt 0.606510 0.750000
vt 0.614348 0.759877
vt 0.621544 0.788004
vt 0.624294 0.830099
vt 0.625000 0.879754
vt 0.625000 1.000000
vt 0.605955 0.875000
vt 0.855769 0.500000
vt 0.875000 0.750000
vt 0.855769 0.750000
vt 0.605769 1.000000
vt 0.375000 1.000000
vt 0.375000 0.875000
vt 0.605769 0.750000
vt 0.375000 0.750000
vt 0.375000 0.625000
vt 0.375000 0.500000
vt 0.375000 0.000000
vt 0.375000 0.250000
vt 0.625000 0.620246
vt 0.624294 0.669901
vt 0.621544 0.711996
vt 0.614348 0.740123
vt 0.625000 0.500000
vt 0.625000 0.750000
vt 0.666667 1.000000
vt 0.833333 1.000000
vt 0.833333 1.000000
vt 0.666667 1.000000
vt 0.916667 0.750000
vt 0.833333 0.750000
vt 0.833333 1.000000
vt 0.916667 1.000000
vt 0.916667 1.000000
vt 0.083333 1.000000
vt 0.083333 1.000000
vt 0.416667 0.750000
vt 0.333333 0.750000
vt 0.333333 1.000000
vt 0.416667 1.000000
vt 0.666667 0.750000
vt 0.666667 1.000000
vt 0.916667 1.000000
vt 0.083333 1.000000
vt 0.166667 1.000000
vt 0.166667 1.000000
vt 0.583333 1.000000
vt 0.583333 1.000000
vt 0.416667 1.000000
vt 0.333333 1.000000
vt 0.333333 1.000000
vt 0.333333 1.000000
vt 0.416667 1.000000
vt 0.166667 0.750000
vt 0.166667 1.000000
vt 0.666667 1.000000
vt 0.833333 1.000000
vt 0.083333 1.000000
vt 0.416667 1.000000
vt 0.583333 1.000000
vt 0.583333 0.750000
vt 0.166667 1.000000
vt 0.583333 1.000000
vt 0.916667 1.000000
vt 0.083333 0.750000
vt 0.916667 0.750000
vt 0.833333 0.750000
vt 0.000000 0.000000
vt 0.000000 0.000000
vt 0.000000 0.000000
vt 0.666667 0.750000
vt 0.000000 0.000000
vt 0.166667 0.750000
vt 0.083333 0.750000
vt 0.000000 0.000000
vt 0.583333 0.750000
vt 0.000000 0.000000
vt 0.416667 0.750000
vt 0.583333 0.750000
vt 0.583333 0.750000
vt 0.416667 0.750000
vt 0.333333 0.750000
vt 0.333333 0.750000
vt 0.916667 0.750000
vt 0.083333 0.750000
vt 0.083333 0.750000
vt 0.916667 0.750000
vt 0.666667 0.750000
vt 0.833333 0.750000
vt 0.833333 0.750000
vt 0.666667 0.750000
vt 0.166667 0.750000
vt 0.166667 0.750000
vt 0.000000 0.000000
vt 0.333333 0.750000
vt 0.416667 0.750000
vt 0.000000 0.000000
vt 0.000000 0.000000
vt 1.000000 0.500000
vt 1.000000 1.000000
vt 0.916667 1.000000
vt 0.916667 0.500000
vt 0.833333 1.000000
vt 0.833333 0.500000
vt 0.750000 1.000000
vt 0.750000 0.500000
vt 0.666667 1.000000
vt 0.666667 0.500000
vt 0.583333 1.000000
vt 0.583333 0.500000
vt 0.500000 1.000000
vt 0.500000 0.500000
vt 0.416667 1.000000
vt 0.416667 0.500000
vt 0.333333 1.000000
vt 0.333333 0.500000
vt 0.250000 1.000000
vt 0.250000 0.500000
vt 0.166667 1.000000
vt 0.166667 0.500000
vt 0.370000 0.457846
vt 0.250000 0.490000
vt 0.130000 0.457846
vt 0.042154 0.370000
vt 0.010000 0.250000
vt 0.042154 0.130000
vt 0.130000 0.042154
vt 0.250000 0.010000
vt 0.370000 0.042154
vt 0.457846 0.130000
vt 0.490000 0.250000
vt 0.457846 0.370000
vt 0.083333 1.000000
vt 0.083333 0.500000
vt 0.000000 1.000000
vt 0.000000 0.500000
vt 0.750000 0.490000
vt 0.870000 0.457846
vt 0.957846 0.370000
vt 0.990000 0.250000
vt 0.957846 0.130000
vt 0.870000 0.042154
vt 0.750000 0.010000
vt 0.630000 0.042154
vt 0.542154 0.130000
vt 0.510000 0.250000
vt 0.542154 0.370000
vt 0.630000 0.457846
vn 0.0000 -0.9999 -0.0111
vn 0.0000 -0.9999 -0.0113
vn 0.9959 0.0298 0.0857
vn 0.9954 0.0423 0.0855
vn 0.9946 0.0236 0.1013
vn -0.9924 0.0186 0.1220
vn -0.9969 0.0348 0.0704
vn -0.9954 0.0423 0.0855
vn -0.9946 0.0236 0.1013
vn -0.0000 -0.0082 -1.0000
vn -0.0000 -0.0148 -0.9999
vn -0.9959 0.0298 0.0857
vn -0.9983 0.0033 0.0575
vn -0.9934 0.0033 0.1143
vn 0.9924 0.0186 0.1220
vn 0.9855 0.0033 0.1699
vn 0.9934 0.0033 0.1143
vn -0.9855 0.0033 0.1699
vn 0.9983 0.0033 0.0575
vn 0.0000 -0.9999 -0.0109
vn 0.9969 0.0348 0.0704
vn -0.0000 -0.0017 -1.0000
vn 0.0713 -0.8684 -0.4907
vn -0.0713 -0.8684 -0.4907
vn -0.0000 -0.6293 -0.7771
vn -0.7104 -0.0230 -0.7034
vn -0.3749 0.3634 -0.8529
vn -0.8948 0.3055 -0.3256
vn -0.7555 0.5744 -0.3152
vn -0.7555 0.5744 0.3152
vn -0.8948 0.3055 0.3256
vn 0.7104 -0.0230 0.7034
vn 0.3749 0.3634 0.8529
vn 0.8948 0.3055 0.3256
vn 0.0000 -0.0205 -0.9998
vn 0.3749 0.3634 -0.8529
vn -0.9720 -0.2350 0.0000
vn -0.2596 -0.9598 0.1064
vn 0.0000 -1.0000 0.0000
vn -0.0713 -0.8684 0.4907
vn 0.2596 -0.9598 -0.1064
vn 0.2596 -0.9598 0.1064
vn 0.0713 -0.8684 0.4907
vn 0.3107 0.6473 0.6961
vn 0.7555 0.5744 0.3152
vn -0.3107 0.6473 -0.6961
vn 0.0000 -0.0205 0.9998
vn -0.3749 0.3634 0.8529
vn 0.3107 0.6473 -0.6961
vn -0.2596 -0.9598 -0.1064
vn 0.6655 -0.4858 0.5667
vn 0.9998 -0.0208 0.0000
vn 0.8948 0.3055 -0.3256
vn 0.0000 -0.6293 0.7771
vn -0.3107 0.6473 0.6961
vn 0.6655 -0.4858 -0.5667
vn -0.6655 -0.4858 -0.5667
vn 0.9720 -0.2350 0.0000
vn 0.7555 0.5744 -0.3152
vn -0.6655 -0.4858 0.5667
vn -0.7104 -0.0230 0.7034
vn 0.7104 -0.0230 -0.7034
vn -0.9998 -0.0208 0.0000
vn -0.0000 1.0000 0.0000
vn 0.7633 0.5557 0.3295
vn 0.7633 0.5557 -0.3295
vn 0.7761 0.5538 -0.3015
vn 0.7761 0.5538 0.3015
vn 0.3295 0.5558 0.7633
vn 0.3015 0.5538 0.7761
vn -0.7633 0.5557 -0.3295
vn -0.7633 0.5557 0.3295
vn -0.7761 0.5538 0.3015
vn -0.7761 0.5538 -0.3015
vn 0.3295 0.5557 -0.7633
vn -0.3295 0.5557 -0.7633
vn -0.3015 0.5538 -0.7761
vn 0.3015 0.5538 -0.7761
vn -0.3295 0.5558 0.7633
vn -0.3015 0.5538 0.7761
vn -0.3015 -0.5538 -0.7761
vn -0.7761 -0.5538 -0.3015
vn -0.7633 -0.5557 -0.3295
vn -0.3295 -0.5557 -0.7633
vn -0.7761 -0.5538 0.3015
vn -0.3015 -0.5538 0.7761
vn -0.3295 -0.5558 0.7633
vn -0.7633 -0.5557 0.3295
vn 0.3015 -0.5538 0.7761
vn 0.3295 -0.5558 0.7633
vn 0.7761 -0.5538 -0.3015
vn 0.3015 -0.5538 -0.7761
vn 0.3295 -0.5557 -0.7633
vn 0.7633 -0.5557 -0.3295
vn 0.7761 -0.5538 0.3015
vn 0.7633 -0.5557 0.3295
vn 1.0000 0.0000 0.0000
vn 0.8883 0.0000 0.4593
vn 0.5411 0.0000 0.8410
vn -0.0000 0.0000 1.0000
vn -0.5411 0.0000 0.8410
vn -0.8883 0.0000 0.4593
vn -1.0000 0.0000 -0.0000
vn -0.8883 0.0000 -0.4593
vn -0.5411 0.0000 -0.8410
vn -0.0000 0.0000 -1.0000
vn 0.5411 0.0000 -0.8410
vn 0.8883 0.0000 -0.4593
usemtl Metal
s 32
f 45/1/1 34/2/2 46/3/1
s 33
f 39/4/3 35/5/4 48/6/5
s 34
f 40/7/6 44/8/7 43/9/7 42/10/7 41/11/7 35/12/8 47/13/9
s 35
f 38/14/10 35/15/11 39/16/10
s 37
f 47/13/9 38/17/12 37/18/13 46/19/14
s 38
f 48/6/5 40/20/15 34/21/16 45/22/17
s 39
f 34/21/18 40/20/6 47/13/9 46/19/14
s 40
f 36/23/19 39/4/3 48/6/5 45/22/17
s 41
f 36/24/20 45/1/1 46/3/1 37/25/20
s 42
f 47/13/9 35/12/8 38/17/12
s 43
f 48/6/5 35/5/4 41/26/21 42/27/21 43/28/21 44/29/21 40/20/15
s 68
f 37/30/22 38/14/10 39/16/10 36/31/22
usemtl Gold
s 1
f 24/32/23 23/33/24 5/34/25 6/35/25
s 2
f 33/36/26 11/37/26 1/38/27 10/39/28
s 3
f 18/40/29 21/41/30 17/42/31 10/39/28
s 4
f 31/43/32 15/44/32 3/45/33 14/46/34
s 5
f 11/37/35 12/47/35 2/48/36 1/38/27
s 6
f 28/49/37 29/50/37 21/41/37 18/40/37
s 7
f 29/50/38 9/51/39 22/52/40
s 8
f 9/53/39 27/54/41 26/55/42
s 9
f 22/52/40 9/56/39 25/57/43
s 10
f 3/45/33 7/58/44 20/59/45 14/46/34
s 11
f 1/38/27 5/34/46 18/40/29 10/39/28
s 12
f 15/44/47 16/60/47 4/61/48 3/45/33
s 13
f 27/54/41 9/62/39 24/32/23
s 14
f 24/32/23 9/63/39 23/33/24
s 15
f 5/34/46 1/38/27 2/48/36 6/35/49
s 16
f 9/64/39 29/50/38 28/49/50
s 17
f 25/57/43 9/65/39 26/55/42
s 18
f 7/58/51 25/57/51 26/55/51 20/59/51
s 19
f 31/43/52 14/46/34 13/66/53 32/67/52
s 20
f 22/52/40 25/57/43 7/58/54 8/68/54
s 21
f 7/58/44 3/45/33 4/61/48 8/68/55
s 22
f 19/69/56 27/54/56 24/32/56 6/35/56
s 23
f 23/33/24 9/70/39 28/49/50
s 24
f 5/34/57 23/33/57 28/49/57 18/40/57
s 25
f 26/55/58 27/54/58 19/69/58 20/59/58
s 26
f 13/66/53 19/69/59 6/35/49 2/48/36
s 27
f 14/46/34 20/59/45 19/69/59 13/66/53
s 28
f 17/42/31 21/41/30 8/68/55 4/61/48
s 29
f 21/41/60 29/50/60 22/52/60 8/68/60
s 30
f 16/60/61 30/71/61 17/42/31 4/61/48
s 31
f 12/47/62 32/67/62 13/66/53 2/48/36
s 36
f 30/71/63 33/36/63 10/39/28 17/42/31
s 44
f 11/37/39 33/36/39 57/72/39 56/73/39
s 45
f 49/74/64 60/75/64 61/76/64
s 46
f 12/47/39 11/37/39 56/73/39 55/77/39
s 47
f 49/74/64 58/78/64 60/75/64
s 48
f 30/71/39 16/60/39 50/79/39 51/80/39
s 49
f 49/74/64 59/81/64 58/78/64
s 50
f 32/67/39 12/47/39 55/77/39 54/82/39
s 51
f 49/74/64 65/83/64 59/81/64
s 52
f 66/84/65 67/85/66 62/86/67 61/87/68
s 53
f 68/88/69 66/84/65 61/87/68 60/89/70
s 54
f 69/90/71 70/91/72 59/92/73 65/93/74
s 55
f 71/94/75 72/95/76 64/96/77 63/97/78
s 56
f 67/85/66 71/94/75 63/97/78 62/86/67
s 57
f 73/98/79 68/88/69 60/89/70 58/99/80
s 58
f 70/91/72 73/98/79 58/99/80 59/92/73
s 59
f 72/95/76 69/90/71 65/93/74 64/96/77
s 60
f 49/74/64 61/76/64 62/100/64
s 61
f 16/60/39 15/44/39 52/101/39 50/79/39
s 62
f 33/36/39 30/71/39 51/80/39 57/72/39
s 63
f 15/44/39 31/43/39 53/102/39 52/101/39
s 64
f 49/74/64 62/100/64 63/103/64
s 65
f 49/74/64 63/103/64 64/104/64
s 66
f 49/74/64 64/104/64 65/83/64
s 67
f 31/43/39 32/67/39 54/82/39 53/102/39
s 69
f 56/73/81 57/72/82 69/90/83 72/95/84
s 70
f 51/80/85 50/79/86 73/98/87 70/91/88
s 71
f 50/79/86 52/101/89 68/88/90 73/98/87
s 72
f 54/82/91 55/77/92 71/94/93 67/85/94
s 73
f 55/77/92 56/73/81 72/95/84 71/94/93
s 74
f 57/72/82 51/80/85 70/91/88 69/90/83
s 75
f 52/101/89 53/102/95 66/84/96 68/88/90
s 76
f 53/102/95 54/82/91 67/85/94 66/84/96
usemtl RedDark
s 77
f 74/105/97 75/106/97 77/107/98 76/108/98
s 78
f 76/108/98 77/107/98 79/109/99 78/110/99
s 79
f 78/110/99 79/109/99 81/111/100 80/112/100
s 80
f 80/112/100 81/111/100 83/113/101 82/114/101
s 81
f 82/114/101 83/113/101 85/115/102 84/116/102
s 82
f 84/116/102 85/115/102 87/117/103 86/118/103
s 83
f 86/118/103 87/117/103 89/119/104 88/120/104
s 84
f 88/120/104 89/119/104 91/121/105 90/122/105
s 85
f 90/122/105 91/121/105 93/123/106 92/124/106
s 86
f 92/124/106 93/123/106 95/125/107 94/126/107
s 87
f 77/127/64 75/128/64 97/129/64 95/130/64 93/131/64 91/132/64 89/133/64 87/134/64 85/135/64 83/136/64 81/137/64 79/138/64
s 88
f 94/126/107 95/125/107 97/139/108 96/140/108
s 89
f 96/140/108 97/139/108 75/141/97 74/142/97
s 90
f 74/143/39 76/144/39 78/145/39 80/146/39 82/147/39 84/148/39 86/149/39 88/150/39 90/151/39 92/152/39 94/153/39 96/154/39
