# Blender v2.80 (sub 75) OBJ File: 'MCOTMC_October2022_Swordsmaster_Source.blend'
# www.blender.org
mtllib iron_sword_sheath.mtl
o iron_sword_sheath_Cube.8742
v 0.007067 -0.201061 -0.087314
v 0.021545 -0.794059 -0.104837
v -0.007067 -0.201061 -0.087314
v -0.021545 -0.794059 -0.104837
v 0.007067 -0.201061 0.087314
v 0.021545 -0.794059 0.104839
v -0.007067 -0.201061 0.087314
v -0.021545 -0.794059 0.104839
v 0.016669 -0.951360 -0.065763
v -0.016669 -0.951360 -0.065763
v -0.016669 -0.951360 0.065766
v 0.016669 -0.951360 0.065766
v -0.026105 -0.173663 0.028239
v -0.026105 -0.173663 -0.028238
v -0.045422 -0.794059 -0.034945
v -0.045422 -0.794059 0.034947
v 0.026105 -0.173663 -0.028238
v 0.026105 -0.173663 0.028239
v 0.045422 -0.794059 0.034947
v 0.045422 -0.794059 -0.034945
v -0.035142 -0.951360 -0.021920
v -0.035142 -0.951360 0.021923
v 0.035142 -0.951360 0.021923
v 0.035142 -0.951360 -0.021920
v 0.017752 -0.979973 -0.019831
v -0.017753 -0.979973 -0.019831
v -0.017753 -0.979973 0.019834
v 0.017752 -0.979973 0.019834
v 0.065712 -0.292099 -0.036294
v 0.065712 -0.368703 -0.036294
v 0.065712 -0.368703 0.036295
v 0.065712 -0.292099 0.036295
v -0.033896 -0.692911 -0.116596
v -0.033896 -0.616307 -0.116596
v -0.033896 -0.368703 -0.116596
v -0.033896 -0.292099 -0.116596
v -0.065712 -0.616307 0.036295
v -0.065712 -0.692910 0.036295
v -0.065712 -0.692910 -0.036294
v -0.065712 -0.616307 -0.036294
v -0.065712 -0.292099 0.036295
v -0.065712 -0.368703 0.036295
v -0.065712 -0.368703 -0.036294
v -0.065712 -0.292099 -0.036294
v 0.021545 -0.376758 -0.104838
v 0.021545 -0.284044 -0.104838
v 0.021545 -0.700966 -0.104837
v 0.021545 -0.608252 -0.104837
v -0.021545 -0.608252 -0.104837
v -0.021545 -0.700966 -0.104837
v -0.021545 -0.284044 -0.104838
v -0.021545 -0.376758 -0.104838
v -0.021545 -0.608252 0.104839
v -0.021545 -0.700965 0.104839
v -0.021545 -0.284044 0.104839
v -0.021545 -0.376758 0.104839
v 0.021545 -0.608252 0.104839
v 0.021545 -0.700965 0.104839
v 0.021545 -0.284044 0.104839
v 0.021545 -0.376758 0.104839
v 0.045422 -0.608252 0.034947
v 0.045422 -0.700965 0.034947
v 0.045422 -0.284044 0.034946
v 0.045422 -0.376758 0.034947
v 0.045422 -0.700965 -0.034945
v 0.045422 -0.608252 -0.034945
v 0.045422 -0.376758 -0.034946
v 0.045422 -0.284044 -0.034946
v -0.045422 -0.608252 -0.034945
v -0.045422 -0.700965 -0.034945
v -0.045422 -0.284044 -0.034946
v -0.045422 -0.376758 -0.034946
v -0.045422 -0.700965 0.034947
v -0.045422 -0.608252 0.034947
v -0.045422 -0.376758 0.034947
v -0.045422 -0.284044 0.034946
v 0.065712 -0.616307 0.036295
v 0.065712 -0.692910 0.036295
v 0.065712 -0.692910 -0.036294
v 0.065712 -0.616307 -0.036294
v 0.033896 -0.292099 0.116597
v 0.033895 -0.368703 0.116597
v 0.033895 -0.616307 0.116597
v 0.033895 -0.692910 0.116598
v 0.033895 -0.368703 -0.116596
v 0.033896 -0.292099 -0.116596
v 0.033895 -0.692911 -0.116596
v 0.033895 -0.616307 -0.116596
v -0.033896 -0.292099 0.116597
v -0.033896 -0.368703 0.116597
v -0.033896 -0.616307 0.116597
v -0.033896 -0.692910 0.116598
v -0.021545 -0.209188 -0.104838
v 0.021545 -0.209188 -0.104838
v -0.045422 -0.174827 -0.030748
v 0.021545 -0.209188 0.104838
v -0.021545 -0.209188 0.104838
v 0.045422 -0.174827 0.030748
v -0.045422 -0.174827 0.030748
v 0.045422 -0.174827 -0.030748
v -0.026105 -0.435109 -0.028238
v 0.026105 -0.435109 -0.028238
v -0.026105 -0.435109 0.028239
v 0.026105 -0.435109 0.028239
v -0.000000 -0.412687 -0.087314
v -0.000000 -0.412686 0.087315
vt 0.571003 0.250000
vt 0.625000 0.250000
vt 0.625000 0.333333
vt 0.571003 0.333333
vt 0.375000 0.416667
vt 0.428997 0.416667
vt 0.428997 0.500000
vt 0.375000 0.500000
vt 0.470952 0.416667
vt 0.529048 0.416667
vt 0.529048 0.500000
vt 0.470952 0.500000
vt 0.571003 0.000000
vt 0.625000 0.000000
vt 0.288266 0.553159
vt 0.355290 0.590606
vt 0.355290 0.590606
vt 0.288266 0.553159
vt 0.625000 0.250000
vt 0.625000 0.333333
vt 0.625000 0.750000
vt 0.625000 0.500000
vt 0.625000 0.500000
vt 0.625000 0.750000
vt 0.625000 0.750000
vt 0.625000 0.500000
vt 0.625000 0.000000
vt 0.625000 0.833333
vt 0.625000 0.833333
vt 0.625000 1.000000
vt 0.625000 0.916667
vt 0.625000 0.916667
vt 0.625000 1.000000
vt 0.625000 0.416667
vt 0.625000 0.333333
vt 0.625000 0.416667
vt 0.625000 0.833333
vt 0.625000 0.916667
vt 0.625000 0.416667
vt 0.211733 0.696840
vt 0.144710 0.659393
vt 0.144710 0.659393
vt 0.211733 0.696840
vt 0.144710 0.590606
vt 0.211733 0.553159
vt 0.211733 0.553159
vt 0.144710 0.590606
vt 0.470952 0.750000
vt 0.529048 0.750000
vt 0.529048 0.833333
vt 0.470952 0.833333
vt 0.529048 0.916667
vt 0.470952 0.916667
vt 0.470952 0.250000
vt 0.529048 0.250000
vt 0.529048 0.333333
vt 0.470952 0.333333
vt 0.625000 0.000000
vt 0.625000 0.250000
vt 0.625000 1.000000
vt 0.375000 0.333333
vt 0.428997 0.333333
vt 0.571003 0.500000
vt 0.571003 0.750000
vt 0.375000 0.250000
vt 0.428997 0.250000
vt 0.571003 0.416667
vt 0.375000 0.833333
vt 0.428997 0.833333
vt 0.428997 0.916667
vt 0.375000 0.916667
vt 0.571003 0.833333
vt 0.571003 0.916667
vt 0.375000 0.750000
vt 0.428997 0.750000
vt 0.470952 0.000000
vt 0.529048 0.000000
vt 0.571003 1.000000
vt 0.428997 1.000000
vt 0.375000 1.000000
vt 0.529048 1.000000
vt 0.470952 1.000000
vt 0.375000 0.000000
vt 0.428997 0.000000
vt 0.125000 0.750000
vt 0.125000 0.500000
vt 0.208333 0.500000
vt 0.355290 0.659393
vt 0.288267 0.696840
vt 0.291667 0.750000
vt 0.291667 0.500000
vt 0.208333 0.750000
vt 0.355290 0.659393
vt 0.288267 0.696840
vt 0.470952 0.333333
vt 0.470952 0.416667
vt 0.428997 0.416667
vt 0.428997 0.333333
vt 0.428997 0.916667
vt 0.428997 1.000000
vt 0.529048 0.416667
vt 0.529048 0.500000
vt 0.571003 0.500000
vt 0.571003 0.416667
vt 0.470952 0.916667
vt 0.470952 0.833333
vt 0.470952 1.000000
vt 0.428997 0.500000
vt 0.529048 0.750000
vt 0.529048 0.833333
vt 0.470952 0.500000
vt 0.529048 0.250000
vt 0.529048 0.333333
vt 0.571003 0.833333
vt 0.571003 0.750000
vt 0.571003 0.333333
vt 0.571003 0.250000
vt 0.428997 0.750000
vt 0.428997 0.833333
vt 0.470952 0.250000
vt 0.428997 0.250000
vt 0.571003 0.916667
vt 0.529048 0.916667
vt 0.470952 0.750000
vt 0.571003 1.000000
vt 0.529048 1.000000
vt 0.470952 0.000000
vt 0.428997 0.000000
vt 0.571003 0.000000
vt 0.529048 0.000000
vn -0.9463 -0.0000 -0.3233
vn -0.9411 -0.0474 -0.3348
vn -0.9838 -0.0428 -0.1742
vn -0.9865 0.0000 -0.1639
vn -0.9913 0.0030 0.1314
vn -0.9864 0.0037 0.1641
vn -0.9486 0.0072 0.3163
vn -0.9865 0.0000 0.1639
vn -0.9463 0.0000 0.3233
vn 0.0000 -0.0000 -1.0000
vn 0.0000 -0.1203 -0.9927
vn 0.9881 0.0060 -0.1535
vn 0.9342 0.0140 -0.3564
vn 0.9872 0.0062 -0.1596
vn -0.9115 -0.2157 -0.3501
vn -0.9376 -0.3024 -0.1717
vn 0.0000 -0.8488 0.5287
vn 0.0000 -0.9620 0.2732
vn 0.0000 -0.1203 0.9927
vn 0.0000 -0.2411 0.9705
vn 0.0000 -0.2411 -0.9705
vn 0.9838 -0.0428 0.1742
vn 0.9411 -0.0474 0.3348
vn 0.9115 -0.2157 0.3501
vn 0.9376 -0.3024 0.1717
vn 0.9411 -0.0474 -0.3348
vn 0.9838 -0.0428 -0.1742
vn 0.9376 -0.3024 -0.1717
vn 0.9115 -0.2157 -0.3501
vn -0.9376 -0.3024 0.1717
vn -0.8426 -0.5218 -0.1332
vn -0.8426 -0.5218 0.1332
vn 0.8426 -0.5218 0.1332
vn 0.8426 -0.5218 -0.1332
vn -0.9411 -0.0474 0.3348
vn -0.9838 -0.0428 0.1742
vn -0.9115 -0.2157 0.3501
vn -0.9881 0.0060 0.1535
vn -0.9342 0.0140 0.3564
vn -0.9872 0.0063 0.1596
vn 0.9342 0.0140 0.3564
vn 0.9881 0.0060 0.1535
vn 0.9872 0.0062 0.1596
vn 0.9463 0.0000 0.3233
vn 0.9865 -0.0000 0.1639
vn 0.9865 -0.0000 -0.1639
vn 0.0000 -0.8488 -0.5287
vn 0.0000 -0.9620 -0.2732
vn -0.9913 0.0030 -0.1314
vn -0.9864 0.0037 -0.1641
vn 0.0000 0.0000 1.0000
vn -0.9486 0.0072 -0.3163
vn 0.9913 0.0030 0.1314
vn 0.9864 0.0037 0.1641
vn 0.9864 0.0037 -0.1641
vn 0.9913 0.0030 -0.1314
vn 0.9486 0.0072 0.3163
vn 0.9463 -0.0000 -0.3233
vn 0.9486 0.0072 -0.3163
vn 0.0000 0.9072 -0.4207
vn -0.0307 0.9758 -0.2164
vn -0.0309 0.9762 -0.2145
vn 0.0000 0.9072 0.4207
vn 0.0307 0.9758 0.2164
vn 0.0309 0.9762 0.2145
vn -0.0307 0.9758 0.2164
vn -0.0309 0.9762 0.2145
vn 0.0307 0.9758 -0.2164
vn 0.0309 0.9762 -0.2145
vn 0.0000 0.9880 -0.1546
vn 0.0000 0.9349 -0.3549
vn 0.0000 0.9349 0.3549
vn 0.0000 0.9880 0.1546
vn -0.9881 0.0060 -0.1535
vn -0.9872 0.0062 -0.1596
vn -0.9342 0.0140 -0.3564
vn -0.9823 -0.0000 -0.1875
vn -0.9823 0.0000 0.1875
vn 0.1883 0.9024 -0.3877
vn 0.3814 0.9213 -0.0764
vn 0.3799 0.9226 -0.0667
vn 0.2398 0.9124 -0.3315
vn -0.3814 0.9213 0.0764
vn -0.3814 0.9213 -0.0764
vn -0.3799 0.9226 -0.0667
vn -0.3799 0.9226 0.0667
vn -0.1883 0.9024 0.3877
vn -0.2398 0.9124 0.3315
vn -0.3814 -0.9213 0.0764
vn -0.1883 -0.9024 0.3877
vn -0.2398 -0.9124 0.3315
vn -0.3799 -0.9226 0.0667
vn 0.3814 -0.9213 0.0764
vn 0.3814 -0.9213 -0.0764
vn 0.3799 -0.9226 -0.0667
vn 0.3799 -0.9226 0.0667
vn 0.1883 -0.9024 -0.3877
vn 0.2398 -0.9124 -0.3315
vn -0.3814 -0.9213 -0.0764
vn -0.3799 -0.9226 -0.0667
vn 0.3814 0.9213 0.0764
vn 0.1883 0.9024 0.3877
vn 0.2398 0.9124 0.3315
vn 0.3799 0.9226 0.0667
vn -0.2398 -0.9124 0.3316
vn -0.1883 0.9024 -0.3877
vn -0.2398 0.9124 -0.3316
vn 0.1883 -0.9024 0.3877
vn 0.2398 -0.9124 0.3315
vn -0.1883 -0.9024 -0.3877
vn -0.2398 -0.9124 -0.3315
vn -0.9297 -0.0000 -0.3684
vn 0.9823 0.0000 0.1875
vn 0.9823 -0.0000 -0.1875
vn 0.9297 0.0000 0.3684
vn 0.9297 -0.0000 -0.3684
vn -0.9297 0.0000 0.3684
vn 0.2398 0.9124 -0.3316
vn 0.2398 -0.9124 0.3316
usemtl WoodDark
s 1
f 50/1/1 4/2/2 15/3/3 70/4/4
s 2
f 99/5/5 76/6/6 55/7/7 97/8/7
s 3
f 75/9/8 74/10/8 53/11/9 56/12/9
s 4
f 47/13/10 2/14/11 4/2/11 50/1/10
s 5
f 13/15/12 7/16/13 106/17/13 103/18/14
s 6
f 15/3/3 4/2/2 10/19/15 21/20/16
s 7
f 12/21/17 11/22/17 27/23/18 28/24/18
s 8
f 6/25/19 8/26/19 11/22/20 12/21/20
s 9
f 4/2/11 2/14/11 9/27/21 10/19/21
s 10
f 19/28/22 6/25/23 12/21/24 23/29/25
s 11
f 2/30/26 20/31/27 24/32/28 9/33/29
s 12
f 20/31/27 19/28/22 23/29/25 24/32/28
s 13
f 22/34/30 21/20/16 26/35/31 27/36/32
s 14
f 24/32/28 23/29/25 28/37/33 25/38/34
s 15
f 8/26/35 16/39/36 22/34/30 11/22/37
s 16
f 16/39/36 15/3/3 21/20/16 22/34/30
s 17
f 17/40/38 1/41/39 105/42/39 102/43/40
s 18
f 3/44/41 14/45/42 101/46/43 105/47/41
s 19
f 60/48/44 57/49/44 61/50/45 64/51/45
s 20
f 64/51/45 61/50/45 66/52/46 67/53/46
s 21
f 52/54/1 49/55/1 69/56/4 72/57/4
s 22
f 72/57/4 69/56/4 74/10/8 75/9/8
s 23
f 10/19/47 9/27/47 25/58/48 26/59/48
s 24
f 23/29/25 12/21/24 28/37/33
s 25
f 21/20/16 10/19/15 26/35/31
s 26
f 9/33/29 24/32/28 25/60/34
s 27
f 11/22/37 22/34/30 27/23/32
s 28
f 26/59/48 25/38/48 28/24/18 27/36/18
s 30
f 95/61/49 71/62/50 76/6/6 99/5/5
s 31
f 54/63/51 8/26/19 6/25/19 58/64/51
s 32
f 93/65/52 51/66/52 71/62/50 95/61/49
s 33
f 70/4/4 15/3/3 16/39/36 73/67/8
s 34
f 98/68/53 63/69/54 68/70/55 100/71/56
s 35
f 62/72/45 19/28/22 20/31/27 65/73/46
s 36
f 96/74/57 59/75/57 63/69/54 98/68/53
s 37
f 45/76/10 48/77/10 49/55/10 52/54/10
s 38
f 65/73/46 20/31/27 2/30/26 47/78/58
s 39
f 58/64/44 6/25/23 19/28/22 62/72/45
s 40
f 73/67/8 16/39/36 8/26/35 54/63/9
s 41
f 97/8/51 55/7/51 59/75/51 96/74/51
s 42
f 56/12/51 53/11/51 57/49/51 60/48/51
s 43
f 100/71/56 68/70/55 46/79/59 94/80/59
s 44
f 67/53/46 66/52/46 48/81/58 45/82/58
s 61
f 94/83/10 46/84/10 51/66/10 93/65/10
s 93
f 3/44/60 1/41/60 94/85/60 93/86/60
s 94
f 14/45/61 3/44/60 93/86/60 95/87/62
s 95
f 5/88/63 7/16/63 97/8/63 96/74/63
s 96
f 18/89/64 5/88/63 96/74/63 98/90/65
s 97
f 7/16/63 13/15/66 99/91/67 97/8/63
s 98
f 13/15/66 14/45/61 95/87/62 99/91/67
s 99
f 1/41/60 17/40/68 100/92/69 94/85/60
s 100
f 17/40/68 18/89/64 98/90/65 100/92/69
s 101
f 103/18/70 106/93/71 104/94/70
s 102
f 105/47/72 101/46/73 102/43/73
s 103
f 101/46/73 103/18/70 104/94/70 102/43/73
s 104
f 7/16/10 5/88/10 106/17/10
s 105
f 1/41/51 3/44/51 105/42/51
s 106
f 18/89/74 17/40/38 102/43/40 104/94/75
s 107
f 14/45/42 13/15/12 103/18/14 101/46/43
s 108
f 5/88/76 18/89/74 104/94/75 106/93/76
usemtl GreyDark
s 29
f 43/95/77 42/96/78 41/97/78 44/98/77
s 45
f 46/79/79 68/70/80 29/99/81 86/100/82
s 46
f 76/6/83 71/62/84 44/98/85 41/97/86
s 47
f 53/11/87 74/10/83 37/101/86 91/102/88
s 48
f 73/67/89 54/63/90 92/103/91 38/104/92
s 49
f 64/51/93 67/53/94 30/105/95 31/106/96
s 50
f 67/53/94 45/82/97 85/107/98 30/105/95
s 51
f 72/57/99 75/9/89 42/96/92 43/95/100
s 52
f 55/7/87 76/6/83 41/97/86 89/108/88
s 53
f 61/50/101 57/49/102 83/109/103 77/110/104
s 54
f 75/9/89 56/12/90 90/111/105 42/96/92
s 55
f 69/56/84 49/55/106 34/112/107 40/113/85
s 56
f 58/64/108 62/72/93 78/114/96 84/115/109
s 57
f 57/49/102 53/11/87 91/102/88 83/109/103
s 58
f 50/1/110 70/4/99 39/116/100 33/117/111
s 59
f 54/63/90 58/64/108 84/115/109 92/103/91
s 60
f 63/69/101 59/75/102 81/118/103 32/119/104
s 62
f 39/116/77 38/104/78 37/101/78 40/113/77
s 63
f 35/120/112 43/95/77 44/98/77 36/121/112
s 64
f 33/117/112 39/116/77 40/113/77 34/112/112
s 65
f 31/106/113 30/105/114 29/99/114 32/119/113
s 66
f 78/114/113 79/122/114 80/123/114 77/110/113
s 67
f 82/124/115 31/106/113 32/119/113 81/118/115
s 68
f 84/115/115 78/114/113 77/110/113 83/109/115
s 69
f 30/105/114 85/107/116 86/100/116 29/99/114
s 70
f 79/122/114 87/125/116 88/126/116 80/123/114
s 71
f 90/111/51 82/124/51 81/118/51 89/108/51
s 72
f 92/103/51 84/115/51 83/109/51 91/102/51
s 73
f 42/96/78 90/111/117 89/108/117 41/97/78
s 74
f 38/104/78 92/103/117 91/102/117 37/101/78
s 75
f 85/127/10 35/120/10 36/121/10 86/128/10
s 76
f 87/129/10 33/117/10 34/112/10 88/130/10
s 77
f 68/70/80 63/69/101 32/119/104 29/99/81
s 78
f 45/76/97 52/54/110 35/120/111 85/127/98
s 79
f 65/73/94 47/78/97 87/125/98 79/122/95
s 80
f 51/66/106 46/84/79 86/128/82 36/121/107
s 81
f 70/4/99 73/67/89 38/104/92 39/116/100
s 82
f 62/72/93 65/73/94 79/122/95 78/114/96
s 83
f 47/13/97 50/1/110 33/117/111 87/129/98
s 84
f 48/81/79 66/52/80 80/123/81 88/126/118
s 85
f 49/55/106 48/77/79 88/130/118 34/112/107
s 86
f 74/10/83 69/56/84 40/113/85 37/101/86
s 87
f 66/52/80 61/50/101 77/110/104 80/123/81
s 88
f 56/12/90 60/48/108 82/124/119 90/111/105
s 89
f 52/54/110 72/57/99 43/95/100 35/120/111
s 90
f 59/75/102 55/7/87 89/108/88 81/118/103
s 91
f 60/48/108 64/51/93 31/106/96 82/124/119
s 92
f 71/62/84 51/66/106 36/121/107 44/98/85
