# Blender v2.80 (sub 75) OBJ File: 'MCOTMC_October2022_Swordsmaster_Source.blend'
# www.blender.org
mtllib katana.mtl
o katana_Cube.8580
v -0.014164 -0.092644 -0.024544
v 0.014166 -0.092644 -0.024544
v 0.014166 -0.092644 0.024526
v -0.014164 -0.092644 0.024526
v -0.025006 -0.126526 -0.051698
v 0.025008 -0.126526 -0.051698
v 0.025008 -0.126526 0.051680
v -0.025006 -0.126526 0.051680
v 0.000001 -0.152707 -0.000009
v -0.024378 -0.092644 -0.014084
v -0.015746 0.135267 -0.027282
v 0.015746 0.135267 -0.027282
v 0.024380 -0.092644 -0.014084
v 0.024380 -0.092644 0.014066
v 0.015746 0.135267 0.027265
v -0.015746 0.135267 0.027265
v -0.024378 -0.092644 0.014066
v -0.043102 -0.126526 -0.029706
v 0.043104 -0.126526 -0.029706
v 0.043104 -0.126526 0.029689
v -0.043102 -0.126526 0.029689
v -0.023858 -0.139324 0.041317
v -0.023858 -0.139324 -0.041334
v 0.023860 -0.139324 -0.041335
v 0.023860 -0.139324 0.041317
v 0.040010 -0.139324 0.023090
v 0.040010 -0.139324 -0.023108
v -0.040008 -0.139324 -0.023108
v -0.040008 -0.139324 0.023090
v -0.027273 0.135267 0.015738
v 0.027273 0.135267 0.015738
v 0.027273 0.135267 -0.015755
v -0.027273 0.135267 -0.015755
v -0.000000 0.157743 0.043878
v -0.000000 1.187723 -0.110688
v 0.011662 0.158863 -0.036860
v -0.011663 0.158863 -0.036860
v -0.011663 0.978731 -0.078187
v 0.011662 0.978731 -0.078187
v -0.000000 0.991662 0.003449
v -0.000000 1.135035 -0.063002
v -0.000000 1.106627 -0.041699
v -0.000000 1.069674 -0.021499
v -0.000000 1.029861 -0.005687
v 0.011662 0.158314 0.003448
v -0.011663 0.158314 0.003448
v -0.005831 0.985341 -0.037658
v 0.005831 0.985341 -0.037658
v -0.000000 0.162650 -0.000008
v -0.044479 0.135267 0.077032
v -0.077040 0.135267 0.044472
v 0.044479 0.135267 0.077032
v 0.077039 0.135267 0.044472
v 0.077039 0.135267 -0.044486
v 0.044479 0.135267 -0.077047
v -0.044479 0.135267 -0.077047
v -0.077040 0.135267 -0.044486
v -0.044479 0.162650 0.077032
v -0.077040 0.162650 0.044472
v 0.044479 0.162650 0.077032
v 0.077039 0.162650 0.044472
v 0.077039 0.162650 -0.044486
v 0.044479 0.162650 -0.077047
v -0.044479 0.162650 -0.077047
v -0.077040 0.162650 -0.044486
v 0.085020 0.148959 0.049079
v 0.085020 0.148959 -0.049093
v 0.049086 0.148959 0.085012
v -0.085020 0.148959 -0.049093
v -0.085020 0.148959 0.049079
v 0.049086 0.148959 -0.085027
v -0.049086 0.148959 -0.085027
v -0.049086 0.148959 0.085013
v 0.043655 -0.115626 -0.000009
v 0.034954 0.139337 -0.000009
v 0.037807 -0.115626 0.024755
v 0.030271 0.139337 0.019820
v 0.021828 -0.115626 0.042884
v 0.017477 0.139337 0.034336
v 0.000001 -0.115626 0.049519
v -0.000000 0.139337 0.039649
v -0.021826 -0.115626 0.042884
v -0.017477 0.139337 0.034336
v -0.037805 -0.115626 0.024755
v -0.030272 0.139337 0.019820
v -0.043654 -0.115626 -0.000009
v -0.034955 0.139337 -0.000009
v -0.037805 -0.115626 -0.024773
v -0.030272 0.139337 -0.019837
v -0.021826 -0.115626 -0.042901
v -0.017477 0.139337 -0.034353
v 0.000001 -0.115626 -0.049537
v -0.000000 0.139337 -0.039666
v 0.021828 -0.115626 -0.042901
v 0.017477 0.139337 -0.034353
v 0.037807 -0.115626 -0.024773
v 0.030271 0.139337 -0.019838
v -0.011663 0.342490 -0.036820
v -0.011663 0.527223 -0.034737
v -0.011663 0.650261 -0.038565
v -0.011663 0.796157 -0.053488
v 0.011662 0.796157 -0.053488
v 0.011662 0.650261 -0.038565
v 0.011662 0.527223 -0.034737
v 0.011662 0.342490 -0.036820
v 0.006997 0.800865 -0.013081
v 0.008164 0.652787 0.001691
v 0.009330 0.527871 0.005426
v 0.010496 0.342102 0.003452
v -0.006998 0.800865 -0.013081
v -0.008164 0.652787 0.001691
v -0.009330 0.527871 0.005426
v -0.010496 0.342102 0.003452
v -0.000000 0.805263 0.027589
v -0.000000 0.655042 0.042022
v -0.000000 0.528341 0.045605
v -0.000000 0.341664 0.043810
vt 0.605769 0.500000
vt 0.625000 0.500000
vt 0.605769 0.625000
vt 0.605955 0.875000
vt 0.625000 0.879754
vt 0.625000 1.000000
vt 0.855769 0.500000
vt 0.875000 0.750000
vt 0.855769 0.750000
vt 0.421191 0.875000
vt 0.421154 1.000000
vt 0.375000 1.000000
vt 0.375000 0.875000
vt 0.421154 0.625000
vt 0.421154 0.750000
vt 0.375000 0.750000
vt 0.375000 0.625000
vt 0.559615 0.750000
vt 0.605769 0.750000
vt 0.559764 0.875000
vt 0.559615 0.500000
vt 0.559615 0.625000
vt 0.605769 1.000000
vt 0.625000 0.620246
vt 0.809615 0.500000
vt 0.809615 0.750000
vt 0.625000 0.500000
vt 0.671154 0.500000
vt 0.671154 0.750000
vt 0.625000 0.750000
vt 0.717308 0.500000
vt 0.717308 0.750000
vt 0.763461 0.500000
vt 0.763462 0.750000
vt 0.375000 0.500000
vt 0.421154 0.500000
vt 0.467308 0.500000
vt 0.467308 0.625000
vt 0.513462 0.500000
vt 0.513462 0.625000
vt 0.467308 0.750000
vt 0.467382 0.875000
vt 0.513462 0.750000
vt 0.513573 0.875000
vt 0.559615 1.000000
vt 0.513461 1.000000
vt 0.467308 1.000000
vt 0.606510 0.750000
vt 0.614348 0.759877
vt 0.621544 0.788004
vt 0.624294 0.830099
vt 0.624294 0.669901
vt 0.621544 0.711996
vt 0.614348 0.740123
vt 0.666667 1.000000
vt 0.833333 1.000000
vt 0.833333 1.000000
vt 0.666667 1.000000
vt 0.916667 0.750000
vt 0.833333 0.750000
vt 0.833333 1.000000
vt 0.916667 1.000000
vt 0.916667 1.000000
vt 0.083333 1.000000
vt 0.083333 1.000000
vt 0.416667 0.750000
vt 0.333333 0.750000
vt 0.333333 1.000000
vt 0.416667 1.000000
vt 0.666667 0.750000
vt 0.666667 1.000000
vt 0.916667 1.000000
vt 0.083333 1.000000
vt 0.166667 1.000000
vt 0.166667 1.000000
vt 0.583333 1.000000
vt 0.583333 1.000000
vt 0.416667 1.000000
vt 0.333333 1.000000
vt 0.333333 1.000000
vt 0.333333 1.000000
vt 0.416667 1.000000
vt 0.166667 0.750000
vt 0.166667 1.000000
vt 0.666667 1.000000
vt 0.833333 1.000000
vt 0.083333 1.000000
vt 0.416667 1.000000
vt 0.583333 1.000000
vt 0.583333 0.750000
vt 0.166667 1.000000
vt 0.583333 1.000000
vt 0.916667 1.000000
vt 0.083333 0.750000
vt 0.916667 0.750000
vt 0.833333 0.750000
vt 0.000000 0.000000
vt 0.000000 0.000000
vt 0.000000 0.000000
vt 0.666667 0.750000
vt 0.000000 0.000000
vt 0.166667 0.750000
vt 0.083333 0.750000
vt 0.000000 0.000000
vt 0.583333 0.750000
vt 0.000000 0.000000
vt 0.416667 0.750000
vt 0.583333 0.750000
vt 0.583333 0.750000
vt 0.416667 0.750000
vt 0.333333 0.750000
vt 0.333333 0.750000
vt 0.916667 0.750000
vt 0.083333 0.750000
vt 0.083333 0.750000
vt 0.916667 0.750000
vt 0.666667 0.750000
vt 0.833333 0.750000
vt 0.833333 0.750000
vt 0.666667 0.750000
vt 0.166667 0.750000
vt 0.166667 0.750000
vt 0.000000 0.000000
vt 0.333333 0.750000
vt 0.416667 0.750000
vt 0.000000 0.000000
vt 0.000000 0.000000
vt 1.000000 0.500000
vt 1.000000 1.000000
vt 0.916667 1.000000
vt 0.916667 0.500000
vt 0.833333 1.000000
vt 0.833333 0.500000
vt 0.750000 1.000000
vt 0.750000 0.500000
vt 0.666667 1.000000
vt 0.666667 0.500000
vt 0.583333 1.000000
vt 0.583333 0.500000
vt 0.500000 1.000000
vt 0.500000 0.500000
vt 0.416667 1.000000
vt 0.416667 0.500000
vt 0.333333 1.000000
vt 0.333333 0.500000
vt 0.250000 1.000000
vt 0.250000 0.500000
vt 0.166667 1.000000
vt 0.166667 0.500000
vt 0.083333 1.000000
vt 0.083333 0.500000
vt 0.000000 1.000000
vt 0.000000 0.500000
vn 0.9907 0.0474 0.1279
vn 0.9953 0.0570 0.0785
vn 0.9908 0.0390 0.1295
vn -0.9908 0.0390 0.1295
vn -0.9973 0.0482 0.0550
vn -0.9953 0.0570 0.0785
vn -0.0000 -0.1437 -0.9896
vn -0.0000 -0.1537 -0.9881
vn -0.9900 0.0024 0.1409
vn -0.9996 0.0029 0.0290
vn -0.9999 0.0032 0.0145
vn -0.9899 0.0032 0.1417
vn 0.9900 0.0024 0.1409
vn 0.9678 0.0019 0.2519
vn 0.9644 0.0031 0.2645
vn 0.9899 0.0032 0.1417
vn -0.9857 0.0224 0.1672
vn -0.9892 0.0276 0.1439
vn -0.9899 0.0197 0.1402
vn 0.9935 0.0170 0.1127
vn 0.9899 0.0197 0.1402
vn -0.9907 0.0474 0.1279
vn 0.9973 0.0482 0.0550
vn -0.0000 -0.1179 -0.9930
vn 0.0000 0.0002 -1.0000
vn 0.0000 0.0057 -1.0000
vn -0.0000 -0.0099 -1.0000
vn -0.0000 -0.0665 -0.9978
vn 0.9999 0.0032 0.0145
vn 0.9996 0.0029 0.0290
vn 0.9983 0.0048 0.0577
vn 0.9897 0.0052 0.1433
vn 0.9963 0.0104 0.0858
vn 0.9897 0.0134 0.1428
vn -0.9644 0.0031 0.2645
vn -0.9678 0.0019 0.2519
vn -0.9742 0.0057 0.2255
vn -0.9897 0.0052 0.1433
vn -0.9802 0.0162 0.1972
vn -0.9897 0.0134 0.1428
vn 0.9892 0.0276 0.1439
vn 0.9857 0.0224 0.1672
vn 0.9802 0.0162 0.1972
vn 0.9742 0.0057 0.2255
vn -0.9935 0.0170 0.1127
vn -0.9963 0.0105 0.0858
vn -0.9983 0.0048 0.0577
vn -0.9916 0.0423 0.1220
vn -0.9940 0.0500 0.0976
vn -0.9962 0.0503 0.0710
vn 0.9962 0.0503 0.0710
vn 0.9940 0.0500 0.0976
vn 0.9916 0.0423 0.1220
vn 0.0713 -0.8684 -0.4907
vn -0.0713 -0.8684 -0.4907
vn -0.0000 -0.6293 -0.7771
vn -0.7110 -0.0138 -0.7031
vn -0.3745 0.3679 -0.8511
vn -0.8934 0.3099 -0.3251
vn -0.7555 0.5744 -0.3152
vn -0.7555 0.5744 0.3152
vn -0.8934 0.3099 0.3251
vn 0.7110 -0.0138 0.7031
vn 0.3745 0.3679 0.8511
vn 0.8934 0.3099 0.3251
vn 0.0000 -0.0120 -0.9999
vn 0.3745 0.3679 -0.8511
vn -0.9720 -0.2350 0.0000
vn -0.2596 -0.9598 0.1064
vn -0.0000 -1.0000 0.0000
vn -0.0713 -0.8684 0.4907
vn 0.2596 -0.9598 -0.1064
vn 0.2596 -0.9598 0.1064
vn 0.0713 -0.8684 0.4907
vn 0.3107 0.6473 0.6961
vn 0.7555 0.5744 0.3152
vn -0.3107 0.6473 -0.6961
vn 0.0000 -0.0120 0.9999
vn -0.3745 0.3679 0.8511
vn 0.3107 0.6473 -0.6961
vn -0.2596 -0.9598 -0.1064
vn 0.6655 -0.4858 0.5667
vn 0.9999 -0.0127 0.0000
vn 0.8934 0.3099 -0.3251
vn 0.0000 -0.6293 0.7771
vn -0.3107 0.6473 0.6961
vn 0.6655 -0.4858 -0.5667
vn -0.6655 -0.4858 -0.5667
vn 0.9720 -0.2350 0.0000
vn 0.7555 0.5744 -0.3152
vn -0.6655 -0.4858 0.5667
vn -0.7110 -0.0138 0.7031
vn 0.7110 -0.0138 -0.7031
vn -0.9999 -0.0127 0.0000
vn 0.0000 1.0000 -0.0000
vn 0.7633 0.5557 0.3295
vn 0.7633 0.5557 -0.3295
vn 0.7761 0.5538 -0.3015
vn 0.7761 0.5538 0.3015
vn 0.3295 0.5557 0.7633
vn 0.3015 0.5538 0.7761
vn -0.7633 0.5557 -0.3295
vn -0.7633 0.5557 0.3295
vn -0.7761 0.5538 0.3015
vn -0.7761 0.5538 -0.3015
vn 0.3295 0.5557 -0.7633
vn -0.3295 0.5557 -0.7633
vn -0.3015 0.5538 -0.7761
vn 0.3015 0.5538 -0.7761
vn -0.3295 0.5558 0.7633
vn -0.3015 0.5538 0.7761
vn -0.3015 -0.5538 -0.7761
vn -0.7761 -0.5538 -0.3015
vn -0.7633 -0.5557 -0.3295
vn -0.3295 -0.5557 -0.7633
vn -0.7761 -0.5538 0.3015
vn -0.3015 -0.5538 0.7761
vn -0.3295 -0.5558 0.7633
vn -0.7633 -0.5558 0.3295
vn 0.3015 -0.5538 0.7761
vn 0.3295 -0.5558 0.7633
vn 0.7761 -0.5538 -0.3015
vn 0.3015 -0.5538 -0.7761
vn 0.3295 -0.5557 -0.7633
vn 0.7633 -0.5557 -0.3295
vn 0.7761 -0.5538 0.3015
vn 0.7633 -0.5558 0.3295
vn 0.9994 0.0341 0.0000
vn 0.8880 0.0351 0.4585
vn 0.8875 0.0351 0.4595
vn 0.5413 0.0374 0.8400
vn 0.5402 0.0374 0.8407
vn -0.0000 0.0387 0.9993
vn -0.5413 0.0374 0.8400
vn -0.5402 0.0374 0.8407
vn -0.8880 0.0351 0.4585
vn -0.8875 0.0351 0.4595
vn -0.9994 0.0341 -0.0000
vn -0.8880 0.0351 -0.4585
vn -0.8875 0.0351 -0.4595
vn -0.5413 0.0374 -0.8400
vn -0.5402 0.0374 -0.8407
vn -0.0000 0.0387 -0.9993
vn 0.5413 0.0374 -0.8400
vn 0.5402 0.0374 -0.8407
vn 0.8880 0.0351 -0.4585
vn 0.8875 0.0351 -0.4595
usemtl Metal
s 32
f 39/1/1 35/2/2 48/3/3
s 33
f 47/4/4 41/5/5 35/6/6
s 34
f 38/7/7 35/8/8 39/9/7
s 36
f 113/10/9 98/11/10 37/12/11 46/13/12
s 37
f 109/14/13 117/15/14 34/16/15 45/17/16
s 38
f 114/18/17 40/19/18 47/4/4 110/20/19
s 39
f 102/21/20 39/1/1 48/3/3 106/22/21
s 40
f 47/4/4 35/6/6 38/23/22
s 41
f 48/3/3 35/2/2 41/24/23
s 66
f 101/25/24 38/7/7 39/9/7 102/26/24
s 87
f 37/27/25 98/28/26 105/29/26 36/30/25
s 88
f 98/28/26 99/31/27 104/32/27 105/29/26
s 89
f 99/31/27 100/33/28 103/34/28 104/32/27
s 90
f 100/33/28 101/25/24 102/26/24 103/34/28
s 91
f 36/35/29 105/36/30 109/14/13 45/17/16
s 92
f 105/36/30 104/37/31 108/38/32 109/14/13
s 93
f 104/37/31 103/39/33 107/40/34 108/38/32
s 94
f 103/39/33 102/21/20 106/22/21 107/40/34
s 95
f 34/16/35 117/15/36 113/10/9 46/13/12
s 96
f 117/15/36 116/41/37 112/42/38 113/10/9
s 97
f 116/41/37 115/43/39 111/44/40 112/42/38
s 98
f 115/43/39 114/18/17 110/20/19 111/44/40
s 99
f 48/3/3 40/19/41 114/18/42 106/22/21
s 100
f 106/22/21 114/18/42 115/43/43 107/40/34
s 101
f 107/40/34 115/43/43 116/41/44 108/38/32
s 102
f 108/38/32 116/41/44 117/15/14 109/14/13
s 103
f 47/4/4 38/23/22 101/45/45 110/20/19
s 104
f 110/20/19 101/45/45 100/46/46 111/44/40
s 105
f 111/44/40 100/46/46 99/47/47 112/42/38
s 106
f 112/42/38 99/47/47 98/11/10 113/10/9
s 107
f 40/48/18 44/49/48 47/4/4
s 108
f 44/49/48 43/50/49 47/4/4
s 109
f 42/51/50 41/5/5 47/4/4
s 110
f 43/50/49 42/51/50 47/4/4
s 111
f 48/3/3 41/24/23 42/52/51
s 112
f 48/3/3 42/52/51 43/53/52
s 113
f 48/3/3 43/53/52 44/54/53
s 114
f 40/19/41 48/3/3 44/54/53
usemtl GreyDark
s 1
f 24/55/54 23/56/55 5/57/56 6/58/56
s 2
f 33/59/57 11/60/57 1/61/58 10/62/59
s 3
f 18/63/60 21/64/61 17/65/62 10/62/59
s 4
f 31/66/63 15/67/63 3/68/64 14/69/65
s 5
f 11/60/66 12/70/66 2/71/67 1/61/58
s 6
f 28/72/68 29/73/68 21/64/68 18/63/68
s 7
f 29/73/69 9/74/70 22/75/71
s 8
f 9/76/70 27/77/72 26/78/73
s 9
f 22/75/71 9/79/70 25/80/74
s 10
f 3/68/64 7/81/75 20/82/76 14/69/65
s 11
f 1/61/58 5/57/77 18/63/60 10/62/59
s 12
f 15/67/78 16/83/78 4/84/79 3/68/64
s 13
f 27/77/72 9/85/70 24/55/54
s 14
f 24/55/54 9/86/70 23/56/55
s 15
f 5/57/77 1/61/58 2/71/67 6/58/80
s 16
f 9/87/70 29/73/69 28/72/81
s 17
f 25/80/74 9/88/70 26/78/73
s 18
f 7/81/82 25/80/82 26/78/82 20/82/82
s 19
f 31/66/83 14/69/65 13/89/84 32/90/83
s 20
f 22/75/71 25/80/74 7/81/85 8/91/85
s 21
f 7/81/75 3/68/64 4/84/79 8/91/86
s 22
f 19/92/87 27/77/87 24/55/87 6/58/87
s 23
f 23/56/55 9/93/70 28/72/81
s 24
f 5/57/88 23/56/88 28/72/88 18/63/88
s 25
f 26/78/89 27/77/89 19/92/89 20/82/89
s 26
f 13/89/84 19/92/90 6/58/80 2/71/67
s 27
f 14/69/65 20/82/76 19/92/90 13/89/84
s 28
f 17/65/62 21/64/61 8/91/86 4/84/79
s 29
f 21/64/91 29/73/91 22/75/91 8/91/91
s 30
f 16/83/92 30/94/92 17/65/62 4/84/79
s 31
f 12/70/93 32/90/93 13/89/84 2/71/67
s 35
f 30/94/94 33/59/94 10/62/59 17/65/62
s 42
f 11/60/70 33/59/70 57/95/70 56/96/70
s 43
f 49/97/95 60/98/95 61/99/95
s 44
f 12/70/70 11/60/70 56/96/70 55/100/70
s 45
f 49/97/95 58/101/95 60/98/95
s 46
f 30/94/70 16/83/70 50/102/70 51/103/70
s 47
f 49/97/95 59/104/95 58/101/95
s 48
f 32/90/70 12/70/70 55/100/70 54/105/70
s 49
f 49/97/95 65/106/95 59/104/95
s 50
f 66/107/96 67/108/97 62/109/98 61/110/99
s 51
f 68/111/100 66/107/96 61/110/99 60/112/101
s 52
f 69/113/102 70/114/103 59/115/104 65/116/105
s 53
f 71/117/106 72/118/107 64/119/108 63/120/109
s 54
f 67/108/97 71/117/106 63/120/109 62/109/98
s 55
f 73/121/110 68/111/100 60/112/101 58/122/111
s 56
f 70/114/103 73/121/110 58/122/111 59/115/104
s 57
f 72/118/107 69/113/102 65/116/105 64/119/108
s 58
f 49/97/95 61/99/95 62/123/95
s 59
f 16/83/70 15/67/70 52/124/70 50/102/70
s 60
f 33/59/70 30/94/70 51/103/70 57/95/70
s 61
f 15/67/70 31/66/70 53/125/70 52/124/70
s 62
f 49/97/95 62/123/95 63/126/95
s 63
f 49/97/95 63/126/95 64/127/95
s 64
f 49/97/95 64/127/95 65/106/95
s 65
f 31/66/70 32/90/70 54/105/70 53/125/70
s 67
f 56/96/112 57/95/113 69/113/114 72/118/115
s 68
f 51/103/116 50/102/117 73/121/118 70/114/119
s 69
f 50/102/117 52/124/120 68/111/121 73/121/118
s 70
f 54/105/122 55/100/123 71/117/124 67/108/125
s 71
f 55/100/123 56/96/112 72/118/115 71/117/124
s 72
f 57/95/113 51/103/116 70/114/119 69/113/114
s 73
f 52/124/120 53/125/126 66/107/127 68/111/121
s 74
f 53/125/126 54/105/122 67/108/125 66/107/127
usemtl BlueDark
s 75
f 74/128/128 75/129/128 77/130/129 76/131/130
s 76
f 76/131/130 77/130/129 79/132/131 78/133/132
s 77
f 78/133/132 79/132/131 81/134/133 80/135/133
s 78
f 80/135/133 81/134/133 83/136/134 82/137/135
s 79
f 82/137/135 83/136/134 85/138/136 84/139/137
s 80
f 84/139/137 85/138/136 87/140/138 86/141/138
s 81
f 86/141/138 87/140/138 89/142/139 88/143/140
s 82
f 88/143/140 89/142/139 91/144/141 90/145/142
s 83
f 90/145/142 91/144/141 93/146/143 92/147/143
s 84
f 92/147/143 93/146/143 95/148/144 94/149/145
s 85
f 94/149/145 95/148/144 97/150/146 96/151/147
s 86
f 96/151/147 97/150/146 75/152/128 74/153/128
