{
    "asset" : {
        "generator" : "Khronos glTF Blender I/O v0.9.36",
        "version" : "2.0"
    },
    "scene" : 0,
    "scenes" : [
        {
            "extras" : {
                "blenderkitUI" : {
                    "assetbar_on" : 0,
                    "turn_off" : 0
                },
                "uuid" : "fbf8d122-eef3-4286-a009-d9a1fe97eec7"
            },
            "name" : "Scene",
            "nodes" : [
                6
            ]
        }
    ],
    "nodes" : [
        {
            "mesh" : 0,
            "name" : "cog_A",
            "translation" : [
                0,
                0.2887820601463318,
                1.430511474609375e-05
            ]
        },
        {
            "mesh" : 1,
            "name" : "rod_A",
            "translation" : [
                0,
                0,
                -2.288818359375e-05
            ]
        },
        {
            "children" : [
                1
            ],
            "mesh" : 2,
            "name" : "cog_B",
            "translation" : [
                0,
                0.4684218466281891,
                1.430511474609375e-05
            ]
        },
        {
            "mesh" : 3,
            "name" : "cog_C",
            "translation" : [
                7.62939453125e-06,
                0.91070157289505,
                -0.1496744155883789
            ]
        },
        {
            "mesh" : 4,
            "name" : "cog_D",
            "translation" : [
                7.62939453125e-06,
                1.0724550485610962,
                -0.008187294006347656
            ]
        },
        {
            "mesh" : 5,
            "name" : "rod_B",
            "translation" : [
                0,
                0.5832231044769287,
                1.430511474609375e-05
            ]
        },
        {
            "children" : [
                0,
                2,
                3,
                4,
                5
            ],
            "mesh" : 6,
            "name" : "gear_sword_individualcogs"
        }
    ],
    "materials" : [
        {
            "name" : "Copper",
            "pbrMetallicRoughness" : {
                "baseColorFactor" : [
                    0.6307672262191772,
                    0.2898349463939667,
                    0.1054619625210762,
                    1
                ],
                "metallicFactor" : 0.699999988079071,
                "roughnessFactor" : 0.2340908944606781
            }
        },
        {
            "name" : "Metal",
            "pbrMetallicRoughness" : {
                "baseColorFactor" : [
                    0.40126433968544006,
                    0.47849249839782715,
                    0.5173344612121582,
                    1
                ],
                "metallicFactor" : 0.20000000298023224,
                "roughnessFactor" : 0.30000001192092896
            }
        },
        {
            "doubleSided" : true,
            "name" : "BlueDark",
            "pbrMetallicRoughness" : {
                "baseColorFactor" : [
                    0.13079515099525452,
                    0.2526138126850128,
                    0.40837106108665466,
                    1
                ],
                "metallicFactor" : 0,
                "roughnessFactor" : 0.5
            }
        }
    ],
    "meshes" : [
        {
            "name" : "Cylinder.180",
            "primitives" : [
                {
                    "attributes" : {
                        "POSITION" : 0,
                        "NORMAL" : 1,
                        "TEXCOORD_0" : 2
                    },
                    "indices" : 3,
                    "material" : 0
                }
            ]
        },
        {
            "name" : "Cylinder.182",
            "primitives" : [
                {
                    "attributes" : {
                        "POSITION" : 4,
                        "NORMAL" : 5,
                        "TEXCOORD_0" : 6
                    },
                    "indices" : 7,
                    "material" : 1
                },
                {
                    "attributes" : {
                        "POSITION" : 8,
                        "NORMAL" : 9,
                        "TEXCOORD_0" : 10
                    },
                    "indices" : 11,
                    "material" : 0
                }
            ]
        },
        {
            "name" : "Cylinder.185",
            "primitives" : [
                {
                    "attributes" : {
                        "POSITION" : 12,
                        "NORMAL" : 13,
                        "TEXCOORD_0" : 14
                    },
                    "indices" : 15,
                    "material" : 0
                }
            ]
        },
        {
            "name" : "Cylinder.187",
            "primitives" : [
                {
                    "attributes" : {
                        "POSITION" : 16,
                        "NORMAL" : 17,
                        "TEXCOORD_0" : 18
                    },
                    "indices" : 19,
                    "material" : 1
                }
            ]
        },
        {
            "name" : "Cylinder.188",
            "primitives" : [
                {
                    "attributes" : {
                        "POSITION" : 20,
                        "NORMAL" : 21,
                        "TEXCOORD_0" : 22
                    },
                    "indices" : 23,
                    "material" : 0
                }
            ]
        },
        {
            "name" : "Cylinder.181",
            "primitives" : [
                {
                    "attributes" : {
                        "POSITION" : 24,
                        "NORMAL" : 25,
                        "TEXCOORD_0" : 26
                    },
                    "indices" : 7,
                    "material" : 1
                },
                {
                    "attributes" : {
                        "POSITION" : 27,
                        "NORMAL" : 28,
                        "TEXCOORD_0" : 29
                    },
                    "indices" : 30,
                    "material" : 0
                }
            ]
        },
        {
            "name" : "Cylinder.179",
            "primitives" : [
                {
                    "attributes" : {
                        "POSITION" : 31,
                        "NORMAL" : 32,
                        "TEXCOORD_0" : 33
                    },
                    "indices" : 34,
                    "material" : 0
                },
                {
                    "attributes" : {
                        "POSITION" : 35,
                        "NORMAL" : 36,
                        "TEXCOORD_0" : 37
                    },
                    "indices" : 38,
                    "material" : 2
                },
                {
                    "attributes" : {
                        "POSITION" : 39,
                        "NORMAL" : 40,
                        "TEXCOORD_0" : 41
                    },
                    "indices" : 42,
                    "material" : 1
                }
            ]
        }
    ],
    "accessors" : [
        {
            "bufferView" : 0,
            "componentType" : 5126,
            "count" : 192,
            "max" : [
                0.2374204695224762,
                0.09679193794727325,
                0.23799963295459747
            ],
            "min" : [
                -0.23742473125457764,
                -0.09679313749074936,
                -0.23801271617412567
            ],
            "type" : "VEC3"
        },
        {
            "bufferView" : 1,
            "componentType" : 5126,
            "count" : 192,
            "type" : "VEC3"
        },
        {
            "bufferView" : 2,
            "componentType" : 5126,
            "count" : 192,
            "type" : "VEC2"
        },
        {
            "bufferView" : 3,
            "componentType" : 5123,
            "count" : 360,
            "type" : "SCALAR"
        },
        {
            "bufferView" : 4,
            "componentType" : 5126,
            "count" : 142,
            "max" : [
                0.02248985879123211,
                0.02364719659090042,
                0.3171730041503906
            ],
            "min" : [
                -0.02248985506594181,
                -0.02364719659090042,
                -0.3171730041503906
            ],
            "type" : "VEC3"
        },
        {
            "bufferView" : 5,
            "componentType" : 5126,
            "count" : 142,
            "type" : "VEC3"
        },
        {
            "bufferView" : 6,
            "componentType" : 5126,
            "count" : 142,
            "type" : "VEC2"
        },
        {
            "bufferView" : 7,
            "componentType" : 5123,
            "count" : 240,
            "type" : "SCALAR"
        },
        {
            "bufferView" : 8,
            "componentType" : 5126,
            "count" : 216,
            "max" : [
                0.08452878892421722,
                0.08432456105947495,
                0.29963740706443787
            ],
            "min" : [
                -0.0845334455370903,
                -0.08432306349277496,
                -0.29963740706443787
            ],
            "type" : "VEC3"
        },
        {
            "bufferView" : 9,
            "componentType" : 5126,
            "count" : 216,
            "type" : "VEC3"
        },
        {
            "bufferView" : 10,
            "componentType" : 5126,
            "count" : 216,
            "type" : "VEC2"
        },
        {
            "bufferView" : 11,
            "componentType" : 5123,
            "count" : 408,
            "type" : "SCALAR"
        },
        {
            "bufferView" : 12,
            "componentType" : 5126,
            "count" : 238,
            "max" : [
                0.20634908974170685,
                0.04651404544711113,
                0.2092818170785904
            ],
            "min" : [
                -0.20586252212524414,
                -0.046510275453329086,
                -0.2092887908220291
            ],
            "type" : "VEC3"
        },
        {
            "bufferView" : 13,
            "componentType" : 5126,
            "count" : 238,
            "type" : "VEC3"
        },
        {
            "bufferView" : 14,
            "componentType" : 5126,
            "count" : 238,
            "type" : "VEC2"
        },
        {
            "bufferView" : 15,
            "componentType" : 5123,
            "count" : 540,
            "type" : "SCALAR"
        },
        {
            "bufferView" : 16,
            "componentType" : 5126,
            "count" : 228,
            "max" : [
                0.018928278237581253,
                0.09387247264385223,
                0.09543243050575256
            ],
            "min" : [
                -0.018928438425064087,
                -0.09409275650978088,
                -0.09543246775865555
            ],
            "type" : "VEC3"
        },
        {
            "bufferView" : 17,
            "componentType" : 5126,
            "count" : 228,
            "type" : "VEC3"
        },
        {
            "bufferView" : 18,
            "componentType" : 5126,
            "count" : 228,
            "type" : "VEC2"
        },
        {
            "bufferView" : 19,
            "componentType" : 5123,
            "count" : 540,
            "type" : "SCALAR"
        },
        {
            "bufferView" : 20,
            "componentType" : 5126,
            "count" : 280,
            "max" : [
                0.07839372754096985,
                0.10095042735338211,
                0.10262830555438995
            ],
            "min" : [
                -0.0783950537443161,
                -0.10118784755468369,
                -0.10262829810380936
            ],
            "type" : "VEC3"
        },
        {
            "bufferView" : 21,
            "componentType" : 5126,
            "count" : 280,
            "type" : "VEC3"
        },
        {
            "bufferView" : 22,
            "componentType" : 5126,
            "count" : 280,
            "type" : "VEC2"
        },
        {
            "bufferView" : 23,
            "componentType" : 5123,
            "count" : 540,
            "type" : "SCALAR"
        },
        {
            "bufferView" : 24,
            "componentType" : 5126,
            "count" : 142,
            "max" : [
                0.16016395390033722,
                0.023647211492061615,
                0.02248983643949032
            ],
            "min" : [
                -0.16016395390033722,
                -0.023647211492061615,
                -0.02248983457684517
            ],
            "type" : "VEC3"
        },
        {
            "bufferView" : 25,
            "componentType" : 5126,
            "count" : 142,
            "type" : "VEC3"
        },
        {
            "bufferView" : 26,
            "componentType" : 5126,
            "count" : 142,
            "type" : "VEC2"
        },
        {
            "bufferView" : 27,
            "componentType" : 5126,
            "count" : 216,
            "max" : [
                0.14262837171554565,
                0.08432456105947495,
                0.08452875912189484
            ],
            "min" : [
                -0.14262837171554565,
                -0.08432306349277496,
                -0.08453340828418732
            ],
            "type" : "VEC3"
        },
        {
            "bufferView" : 28,
            "componentType" : 5126,
            "count" : 216,
            "type" : "VEC3"
        },
        {
            "bufferView" : 29,
            "componentType" : 5126,
            "count" : 216,
            "type" : "VEC2"
        },
        {
            "bufferView" : 30,
            "componentType" : 5123,
            "count" : 408,
            "type" : "SCALAR"
        },
        {
            "bufferView" : 31,
            "componentType" : 5126,
            "count" : 914,
            "max" : [
                0.2317696511745453,
                1.5327954292297363,
                0.265170693397522
            ],
            "min" : [
                -0.23177194595336914,
                -0.3867594599723816,
                -0.23177079856395721
            ],
            "type" : "VEC3"
        },
        {
            "bufferView" : 32,
            "componentType" : 5126,
            "count" : 914,
            "type" : "VEC3"
        },
        {
            "bufferView" : 33,
            "componentType" : 5126,
            "count" : 914,
            "type" : "VEC2"
        },
        {
            "bufferView" : 34,
            "componentType" : 5123,
            "count" : 1932,
            "type" : "SCALAR"
        },
        {
            "bufferView" : 35,
            "componentType" : 5126,
            "count" : 158,
            "max" : [
                0.06605768203735352,
                0.09526843577623367,
                0.06284994632005692
            ],
            "min" : [
                -0.06606168299913406,
                -0.06007683649659157,
                -0.06283152103424072
            ],
            "type" : "VEC3"
        },
        {
            "bufferView" : 36,
            "componentType" : 5126,
            "count" : 158,
            "type" : "VEC3"
        },
        {
            "bufferView" : 37,
            "componentType" : 5126,
            "count" : 158,
            "type" : "VEC2"
        },
        {
            "bufferView" : 38,
            "componentType" : 5123,
            "count" : 420,
            "type" : "SCALAR"
        },
        {
            "bufferView" : 39,
            "componentType" : 5126,
            "count" : 36,
            "max" : [
                0.03812373802065849,
                1.5327954292297363,
                0.2153550088405609
            ],
            "min" : [
                -0.03812375292181969,
                0.6343173384666443,
                -0.14968940615653992
            ],
            "type" : "VEC3"
        },
        {
            "bufferView" : 40,
            "componentType" : 5126,
            "count" : 36,
            "type" : "VEC3"
        },
        {
            "bufferView" : 41,
            "componentType" : 5126,
            "count" : 36,
            "type" : "VEC2"
        },
        {
            "bufferView" : 42,
            "componentType" : 5123,
            "count" : 96,
            "type" : "SCALAR"
        }
    ],
    "bufferViews" : [
        {
            "buffer" : 0,
            "byteLength" : 2304,
            "byteOffset" : 0
        },
        {
            "buffer" : 0,
            "byteLength" : 2304,
            "byteOffset" : 2304
        },
        {
            "buffer" : 0,
            "byteLength" : 1536,
            "byteOffset" : 4608
        },
        {
            "buffer" : 0,
            "byteLength" : 720,
            "byteOffset" : 6144
        },
        {
            "buffer" : 0,
            "byteLength" : 1704,
            "byteOffset" : 6864
        },
        {
            "buffer" : 0,
            "byteLength" : 1704,
            "byteOffset" : 8568
        },
        {
            "buffer" : 0,
            "byteLength" : 1136,
            "byteOffset" : 10272
        },
        {
            "buffer" : 0,
            "byteLength" : 480,
            "byteOffset" : 11408
        },
        {
            "buffer" : 0,
            "byteLength" : 2592,
            "byteOffset" : 11888
        },
        {
            "buffer" : 0,
            "byteLength" : 2592,
            "byteOffset" : 14480
        },
        {
            "buffer" : 0,
            "byteLength" : 1728,
            "byteOffset" : 17072
        },
        {
            "buffer" : 0,
            "byteLength" : 816,
            "byteOffset" : 18800
        },
        {
            "buffer" : 0,
            "byteLength" : 2856,
            "byteOffset" : 19616
        },
        {
            "buffer" : 0,
            "byteLength" : 2856,
            "byteOffset" : 22472
        },
        {
            "buffer" : 0,
            "byteLength" : 1904,
            "byteOffset" : 25328
        },
        {
            "buffer" : 0,
            "byteLength" : 1080,
            "byteOffset" : 27232
        },
        {
            "buffer" : 0,
            "byteLength" : 2736,
            "byteOffset" : 28312
        },
        {
            "buffer" : 0,
            "byteLength" : 2736,
            "byteOffset" : 31048
        },
        {
            "buffer" : 0,
            "byteLength" : 1824,
            "byteOffset" : 33784
        },
        {
            "buffer" : 0,
            "byteLength" : 1080,
            "byteOffset" : 35608
        },
        {
            "buffer" : 0,
            "byteLength" : 3360,
            "byteOffset" : 36688
        },
        {
            "buffer" : 0,
            "byteLength" : 3360,
            "byteOffset" : 40048
        },
        {
            "buffer" : 0,
            "byteLength" : 2240,
            "byteOffset" : 43408
        },
        {
            "buffer" : 0,
            "byteLength" : 1080,
            "byteOffset" : 45648
        },
        {
            "buffer" : 0,
            "byteLength" : 1704,
            "byteOffset" : 46728
        },
        {
            "buffer" : 0,
            "byteLength" : 1704,
            "byteOffset" : 48432
        },
        {
            "buffer" : 0,
            "byteLength" : 1136,
            "byteOffset" : 50136
        },
        {
            "buffer" : 0,
            "byteLength" : 2592,
            "byteOffset" : 51272
        },
        {
            "buffer" : 0,
            "byteLength" : 2592,
            "byteOffset" : 53864
        },
        {
            "buffer" : 0,
            "byteLength" : 1728,
            "byteOffset" : 56456
        },
        {
            "buffer" : 0,
            "byteLength" : 816,
            "byteOffset" : 58184
        },
        {
            "buffer" : 0,
            "byteLength" : 10968,
            "byteOffset" : 59000
        },
        {
            "buffer" : 0,
            "byteLength" : 10968,
            "byteOffset" : 69968
        },
        {
            "buffer" : 0,
            "byteLength" : 7312,
            "byteOffset" : 80936
        },
        {
            "buffer" : 0,
            "byteLength" : 3864,
            "byteOffset" : 88248
        },
        {
            "buffer" : 0,
            "byteLength" : 1896,
            "byteOffset" : 92112
        },
        {
            "buffer" : 0,
            "byteLength" : 1896,
            "byteOffset" : 94008
        },
        {
            "buffer" : 0,
            "byteLength" : 1264,
            "byteOffset" : 95904
        },
        {
            "buffer" : 0,
            "byteLength" : 840,
            "byteOffset" : 97168
        },
        {
            "buffer" : 0,
            "byteLength" : 432,
            "byteOffset" : 98008
        },
        {
            "buffer" : 0,
            "byteLength" : 432,
            "byteOffset" : 98440
        },
        {
            "buffer" : 0,
            "byteLength" : 288,
            "byteOffset" : 98872
        },
        {
            "buffer" : 0,
            "byteLength" : 192,
            "byteOffset" : 99160
        }
    ],
    "buffers" : [
        {
            "byteLength" : 99352,
            "uri" : "data:application/octet-stream;base64,"
        }
    ]
}
